999
dxflib 3.12.2.0
  0
SECTION
  2
HEADER
  9
$ACADVER
  1
AC1015
  9
$HANDSEED
  5
FFFF
  9
$DIMADEC
 70
0
  9
$DIMASZ
 40
0.18
  9
$DIMAUNIT
 70
0
  9
$DIMAZIN
 70
0
  9
$DIMDEC
 70
4
  9
$DIMEXE
 40
0.18
  9
$DIMEXO
 40
0.0625
  9
$DIMGAP
 40
0.09
  9
$DIMLUNIT
 70
2
  9
$DIMSCALE
 40
1.0
  9
$DIMTSZ
 40
0.0
  9
$DIMTXT
 40
0.18
  9
$DIMZIN
 70
0
  9
$DWGCODEPAGE
  3
ANSI_1252
  9
$EXTMAX
 10
1000.0
 20
1000.0
 30
0.0
  9
$EXTMIN
 10
0.0
 20
0.0
 30
0.0
  9
$FILLMODE
 70
0
  9
$INSUNITS
 70
0
  9
$LTSCALE
 40
1.0
  9
$MEASUREMENT
 70
1
  9
$PDMODE
 70
0
  9
$PDSIZE
 40
0
  9
$SPLFRAME
 70
1
  0
ENDSEC
  0
SECTION
  2
TABLES
  0
TABLE
  2
VPORT
  5
8
100
AcDbSymbolTable
 70
1
  0
VPORT
  5
30
100
AcDbSymbolTableRecord
100
AcDbViewportTableRecord
  2
*Active
 70
0
 10
0.0
 20
0.0
 11
1.0
 21
1.0
 12
286.3055555555554861
 22
148.5
 13
0.0
 23
0.0
 14
10.0
 24
10.0
 15
10.0
 25
10.0
 16
0.0
 26
0.0
 36
1.0
 17
0.0
 27
0.0
 37
0.0
 40
297.0
 41
1.92798353909465
 42
50.0
 43
0.0
 44
0.0
 50
0.0
 51
0.0
 71
0
 72
100
 73
1
 74
3
 75
1
 76
1
 77
0
 78
0
281
0
 65
1
110
0.0
120
0.0
130
0.0
111
1.0
121
0.0
131
0.0
112
0.0
122
1.0
132
0.0
 79
0
146
0.0
  0
ENDTAB
  0
TABLE
  2
LTYPE
  5
5
100
AcDbSymbolTable
 70
41
  0
LTYPE
  5
16
100
AcDbSymbolTableRecord
100
AcDbLinetypeTableRecord
  2
Continuous
 70
0
  3
Solid line
 72
65
 73
0
 40
0.0
  0
LTYPE
  5
31
100
AcDbSymbolTableRecord
100
AcDbLinetypeTableRecord
  2
ACAD_ISO15W100
 70
0
  3
ISO double-dash triple-dot __ __ . . . __ __ . .
 72
65
 73
10
 40
39.0
 49
12.0
 74
0
 49
-3.0
 74
0
 49
12.0
 74
0
 49
-3.0
 74
0
 49
0.0
 74
0
 49
-3.0
 74
0
 49
0.0
 74
0
 49
-3.0
 74
0
 49
0.0
 74
0
 49
-3.0
 74
0
  0
LTYPE
  5
32
100
AcDbSymbolTableRecord
100
AcDbLinetypeTableRecord
  2
DIVIDE
 70
0
  3
Divide ____ . . ____ . . ____ . . ____ . . ____
 72
65
 73
6
 40
31.75
 49
12.6999999999999993
 74
0
 49
-6.3499999999999996
 74
0
 49
0.0
 74
0
 49
-6.3499999999999996
 74
0
 49
0.0
 74
0
 49
-6.3499999999999996
 74
0
  0
LTYPE
  5
33
100
AcDbSymbolTableRecord
100
AcDbLinetypeTableRecord
  2
ACAD_ISO10W100
 70
0
  3
ISO dash dot __ . __ . __ . __ . __ . __ . __ . 
 72
65
 73
4
 40
18.0
 49
12.0
 74
0
 49
-3.0
 74
0
 49
0.0
 74
0
 49
-3.0
 74
0
  0
LTYPE
  5
34
100
AcDbSymbolTableRecord
100
AcDbLinetypeTableRecord
  2
ACAD_ISO04W100
 70
0
  3
ISO long-dash dot ____ . ____ . ____ . ____ . _
 72
65
 73
4
 40
30.0
 49
24.0
 74
0
 49
-3.0
 74
0
 49
0.0
 74
0
 49
-3.0
 74
0
  0
LTYPE
  5
35
100
AcDbSymbolTableRecord
100
AcDbLinetypeTableRecord
  2
CENTER2
 70
0
  3
Center (.5x) ___ _ ___ _ ___ _ ___ _ ___ _ ___
 72
65
 73
4
 40
28.5750000000000028
 49
19.0500000000000007
 74
0
 49
-3.1749999999999998
 74
0
 49
3.1749999999999998
 74
0
 49
-3.1749999999999998
 74
0
  0
LTYPE
  5
36
100
AcDbSymbolTableRecord
100
AcDbLinetypeTableRecord
  2
ACAD_ISO11W100
 70
0
  3
ISO double-dash dot __ __ . __ __ . __ __ . __ _
 72
65
 73
6
 40
33.0
 49
12.0
 74
0
 49
-3.0
 74
0
 49
12.0
 74
0
 49
-3.0
 74
0
 49
0.0
 74
0
 49
-3.0
 74
0
  0
LTYPE
  5
37
100
AcDbSymbolTableRecord
100
AcDbLinetypeTableRecord
  2
HIDDEN2
 70
0
  3
Hidden (.5x) _ _ _ _ _ _ _ _ _ _ _ _ _ _ _ _ _ 
 72
65
 73
2
 40
4.7624999999999993
 49
3.1749999999999998
 74
0
 49
-1.5874999999999999
 74
0
  0
LTYPE
  5
38
100
AcDbSymbolTableRecord
100
AcDbLinetypeTableRecord
  2
BORDERX2
 70
0
  3
Border (2x) ____  ____  .  ____  ____  .  ___
 72
65
 73
6
 40
88.8999999999999915
 49
25.3999999999999986
 74
0
 49
-12.6999999999999993
 74
0
 49
25.3999999999999986
 74
0
 49
-12.6999999999999993
 74
0
 49
0.0
 74
0
 49
-12.6999999999999993
 74
0
  0
LTYPE
  5
39
100
AcDbSymbolTableRecord
100
AcDbLinetypeTableRecord
  2
ACAD_ISO05W100
 70
0
  3
ISO long-dash double-dot ____ .. ____ .. ____ . 
 72
65
 73
6
 40
33.0
 49
24.0
 74
0
 49
-3.0
 74
0
 49
0.0
 74
0
 49
-3.0
 74
0
 49
0.0
 74
0
 49
-3.0
 74
0
  0
LTYPE
  5
3A
100
AcDbSymbolTableRecord
100
AcDbLinetypeTableRecord
  2
DASHDOTX2
 70
0
  3
Dash dot (2x) ____  .  ____  .  ____  .  ___
 72
65
 73
4
 40
50.7999999999999972
 49
25.3999999999999986
 74
0
 49
-12.6999999999999993
 74
0
 49
0.0
 74
0
 49
-12.6999999999999993
 74
0
  0
LTYPE
  5
3B
100
AcDbSymbolTableRecord
100
AcDbLinetypeTableRecord
  2
HIDDENX2
 70
0
  3
Hidden (2x) ____ ____ ____ ____ ____ ____ ____ 
 72
65
 73
2
 40
19.0499999999999972
 49
12.6999999999999993
 74
0
 49
-6.3499999999999996
 74
0
  0
LTYPE
  5
3C
100
AcDbSymbolTableRecord
100
AcDbLinetypeTableRecord
  2
CENTERX2
 70
0
  3
Center (2x) ________  __  ________  __  _____
 72
65
 73
4
 40
101.6000000000000085
 49
63.5
 74
0
 49
-12.6999999999999993
 74
0
 49
12.6999999999999993
 74
0
 49
-12.6999999999999993
 74
0
  0
LTYPE
  5
3D
100
AcDbSymbolTableRecord
100
AcDbLinetypeTableRecord
  2
BORDER2
 70
0
  3
Border (.5x) __.__.__.__.__.__.__.__.__.__.__.
 72
65
 73
6
 40
22.2249999999999979
 49
6.3499999999999996
 74
0
 49
-3.1749999999999998
 74
0
 49
6.3499999999999996
 74
0
 49
-3.1749999999999998
 74
0
 49
0.0
 74
0
 49
-3.1749999999999998
 74
0
  0
LTYPE
  5
3E
100
AcDbSymbolTableRecord
100
AcDbLinetypeTableRecord
  2
DASHDOT2
 70
0
  3
Dash dot (.5x) _._._._._._._._._._._._._._._.
 72
65
 73
4
 40
12.6999999999999993
 49
6.3499999999999996
 74
0
 49
-3.1749999999999998
 74
0
 49
0.0
 74
0
 49
-3.1749999999999998
 74
0
  0
LTYPE
  5
3F
100
AcDbSymbolTableRecord
100
AcDbLinetypeTableRecord
  2
ACAD_ISO12W100
 70
0
  3
ISO dash double-dot __ . . __ . . __ . . __ . . 
 72
65
 73
6
 40
21.0
 49
12.0
 74
0
 49
-3.0
 74
0
 49
0.0
 74
0
 49
-3.0
 74
0
 49
0.0
 74
0
 49
-3.0
 74
0
  0
LTYPE
  5
40
100
AcDbSymbolTableRecord
100
AcDbLinetypeTableRecord
  2
ACAD_ISO07W100
 70
0
  3
ISO dot . . . . . . . . . . . . . . . . . . . . 
 72
65
 73
2
 40
3.0
 49
0.0
 74
0
 49
-3.0
 74
0
  0
LTYPE
  5
41
100
AcDbSymbolTableRecord
100
AcDbLinetypeTableRecord
  2
HIDDEN
 70
0
  3
Hidden __ __ __ __ __ __ __ __ __ __ __ __ __ __
 72
65
 73
2
 40
9.5249999999999986
 49
6.3499999999999996
 74
0
 49
-3.1749999999999998
 74
0
  0
LTYPE
  5
42
100
AcDbSymbolTableRecord
100
AcDbLinetypeTableRecord
  2
ACAD_ISO06W100
 70
0
  3
ISO long-dash triple-dot ____ ... ____ ... ____
 72
65
 73
8
 40
36.0
 49
24.0
 74
0
 49
-3.0
 74
0
 49
0.0
 74
0
 49
-3.0
 74
0
 49
0.0
 74
0
 49
-3.0
 74
0
 49
0.0
 74
0
 49
-3.0
 74
0
  0
LTYPE
  5
43
100
AcDbSymbolTableRecord
100
AcDbLinetypeTableRecord
  2
CENTER
 70
0
  3
Center ____ _ ____ _ ____ _ ____ _ ____ _ ____
 72
65
 73
4
 40
50.8000000000000043
 49
31.75
 74
0
 49
-6.3499999999999996
 74
0
 49
6.3499999999999996
 74
0
 49
-6.3499999999999996
 74
0
  0
LTYPE
  5
44
100
AcDbSymbolTableRecord
100
AcDbLinetypeTableRecord
  2
DOTX2
 70
0
  3
Dot (2x) .  .  .  .  .  .  .  .  .  .  .  .  .  .
 72
65
 73
2
 40
12.6999999999999993
 49
0.0
 74
0
 49
-12.6999999999999993
 74
0
  0
LTYPE
  5
45
100
AcDbSymbolTableRecord
100
AcDbLinetypeTableRecord
  2
PHANTOM
 70
0
  3
Phantom ______  __  __  ______  __  __  ______ 
 72
65
 73
6
 40
63.5000000000000071
 49
31.75
 74
0
 49
-6.3499999999999996
 74
0
 49
6.3499999999999996
 74
0
 49
-6.3499999999999996
 74
0
 49
6.3499999999999996
 74
0
 49
-6.3499999999999996
 74
0
  0
LTYPE
  5
46
100
AcDbSymbolTableRecord
100
AcDbLinetypeTableRecord
  2
ACAD_ISO08W100
 70
0
  3
ISO long-dash short-dash ____ __ ____ __ ____ _
 72
65
 73
4
 40
36.0
 49
24.0
 74
0
 49
-3.0
 74
0
 49
6.0
 74
0
 49
-3.0
 74
0
  0
LTYPE
  5
47
100
AcDbSymbolTableRecord
100
AcDbLinetypeTableRecord
  2
DASHEDX2
 70
0
  3
Dashed (2x) ____  ____  ____  ____  ____  ___
 72
65
 73
2
 40
38.0999999999999943
 49
25.3999999999999986
 74
0
 49
-12.6999999999999993
 74
0
  0
LTYPE
  5
48
100
AcDbSymbolTableRecord
100
AcDbLinetypeTableRecord
  2
ACAD_ISO02W100
 70
0
  3
ISO dash __ __ __ __ __ __ __ __ __ __ __ __ __
 72
65
 73
2
 40
15.0
 49
12.0
 74
0
 49
-3.0
 74
0
  0
LTYPE
  5
49
100
AcDbSymbolTableRecord
100
AcDbLinetypeTableRecord
  2
PHANTOM2
 70
0
  3
Phantom (.5x) ___ _ _ ___ _ _ ___ _ _ ___ _ _
 72
65
 73
6
 40
31.7500000000000036
 49
15.875
 74
0
 49
-3.1749999999999998
 74
0
 49
3.1749999999999998
 74
0
 49
-3.1749999999999998
 74
0
 49
3.1749999999999998
 74
0
 49
-3.1749999999999998
 74
0
  0
LTYPE
  5
4A
100
AcDbSymbolTableRecord
100
AcDbLinetypeTableRecord
  2
DASHED2
 70
0
  3
Dashed (.5x) _ _ _ _ _ _ _ _ _ _ _ _ _ _ _ _ _ 
 72
65
 73
2
 40
9.5249999999999986
 49
6.3499999999999996
 74
0
 49
-3.1749999999999998
 74
0
  0
LTYPE
  5
4B
100
AcDbSymbolTableRecord
100
AcDbLinetypeTableRecord
  2
ACAD_ISO09W100
 70
0
  3
ISO long-dash double-short-dash ____ __ __ ____
 72
65
 73
6
 40
45.0
 49
24.0
 74
0
 49
-3.0
 74
0
 49
6.0
 74
0
 49
-3.0
 74
0
 49
6.0
 74
0
 49
-3.0
 74
0
  0
LTYPE
  5
4C
100
AcDbSymbolTableRecord
100
AcDbLinetypeTableRecord
  2
ACAD_ISO13W100
 70
0
  3
ISO double-dash double-dot __ __ . . __ __ . . _
 72
65
 73
8
 40
36.0
 49
12.0
 74
0
 49
-3.0
 74
0
 49
12.0
 74
0
 49
-3.0
 74
0
 49
0.0
 74
0
 49
-3.0
 74
0
 49
0.0
 74
0
 49
-3.0
 74
0
  0
LTYPE
  5
4D
100
AcDbSymbolTableRecord
100
AcDbLinetypeTableRecord
  2
DOT2
 70
0
  3
Dot (.5x) ........................................
 72
65
 73
2
 40
3.1749999999999998
 49
0.0
 74
0
 49
-3.1749999999999998
 74
0
  0
LTYPE
  5
4E
100
AcDbSymbolTableRecord
100
AcDbLinetypeTableRecord
  2
DASHED
 70
0
  3
Dashed __ __ __ __ __ __ __ __ __ __ __ __ __ _
 72
65
 73
2
 40
19.0499999999999972
 49
12.6999999999999993
 74
0
 49
-6.3499999999999996
 74
0
  0
LTYPE
  5
4F
100
AcDbSymbolTableRecord
100
AcDbLinetypeTableRecord
  2
ACAD_ISO14W100
 70
0
  3
ISO dash triple-dot __ . . . __ . . . __ . . . _
 72
65
 73
8
 40
24.0
 49
12.0
 74
0
 49
-3.0
 74
0
 49
0.0
 74
0
 49
-3.0
 74
0
 49
0.0
 74
0
 49
-3.0
 74
0
 49
0.0
 74
0
 49
-3.0
 74
0
  0
LTYPE
  5
15
100
AcDbSymbolTableRecord
100
AcDbLinetypeTableRecord
  2
BYLAYER
 70
0
  3

 72
65
 73
0
 40
0.0
  0
LTYPE
  5
50
100
AcDbSymbolTableRecord
100
AcDbLinetypeTableRecord
  2
PHANTOMX2
 70
0
  3
Phantom (2x) ____________    ____    ____   _
 72
65
 73
6
 40
127.0000000000000142
 49
63.5
 74
0
 49
-12.6999999999999993
 74
0
 49
12.6999999999999993
 74
0
 49
-12.6999999999999993
 74
0
 49
12.6999999999999993
 74
0
 49
-12.6999999999999993
 74
0
  0
LTYPE
  5
14
100
AcDbSymbolTableRecord
100
AcDbLinetypeTableRecord
  2
BYBLOCK
 70
0
  3

 72
65
 73
0
 40
0.0
  0
LTYPE
  5
51
100
AcDbSymbolTableRecord
100
AcDbLinetypeTableRecord
  2
DIVIDEX2
 70
0
  3
Divide (2x) ________  .  .  ________  .  .  _
 72
65
 73
6
 40
63.5
 49
25.3999999999999986
 74
0
 49
-12.6999999999999993
 74
0
 49
0.0
 74
0
 49
-12.6999999999999993
 74
0
 49
0.0
 74
0
 49
-12.6999999999999993
 74
0
  0
LTYPE
  5
52
100
AcDbSymbolTableRecord
100
AcDbLinetypeTableRecord
  2
BORDER
 70
0
  3
Border __ __ . __ __ . __ __ . __ __ . __ __ .
 72
65
 73
6
 40
44.4499999999999957
 49
12.6999999999999993
 74
0
 49
-6.3499999999999996
 74
0
 49
12.6999999999999993
 74
0
 49
-6.3499999999999996
 74
0
 49
0.0
 74
0
 49
-6.3499999999999996
 74
0
  0
LTYPE
  5
53
100
AcDbSymbolTableRecord
100
AcDbLinetypeTableRecord
  2
DIVIDE2
 70
0
  3
Divide (.5x) __..__..__..__..__..__..__..__.._
 72
65
 73
6
 40
15.875
 49
6.3499999999999996
 74
0
 49
-3.1749999999999998
 74
0
 49
0.0
 74
0
 49
-3.1749999999999998
 74
0
 49
0.0
 74
0
 49
-3.1749999999999998
 74
0
  0
LTYPE
  5
54
100
AcDbSymbolTableRecord
100
AcDbLinetypeTableRecord
  2
DOT
 70
0
  3
Dot . . . . . . . . . . . . . . . . . . . . . . . .
 72
65
 73
2
 40
6.3499999999999996
 49
0.0
 74
0
 49
-6.3499999999999996
 74
0
  0
LTYPE
  5
55
100
AcDbSymbolTableRecord
100
AcDbLinetypeTableRecord
  2
DASHDOT
 70
0
  3
Dash dot __ . __ . __ . __ . __ . __ . __ . __
 72
65
 73
4
 40
25.3999999999999986
 49
12.6999999999999993
 74
0
 49
-6.3499999999999996
 74
0
 49
0.0
 74
0
 49
-6.3499999999999996
 74
0
  0
LTYPE
  5
56
100
AcDbSymbolTableRecord
100
AcDbLinetypeTableRecord
  2
ACAD_ISO03W100
 70
0
  3
ISO dash space __    __    __    __    __    __
 72
65
 73
2
 40
30.0
 49
12.0
 74
0
 49
-18.0
 74
0
  0
ENDTAB
  0
TABLE
  2
LAYER
  5
2
100
AcDbSymbolTable
 70
1
  0
LAYER
  5
10
100
AcDbSymbolTableRecord
100
AcDbLayerTableRecord
  2
0
 70
0
 62
7
420
16777215
  6
Continuous
370
5
390
F
  0
ENDTAB
  0
TABLE
  2
STYLE
  5
3
100
AcDbSymbolTable
 70
1
  0
STYLE
  5
57
100
AcDbSymbolTableRecord
100
AcDbTextStyleTableRecord
  2
Standard
 70
0
 40
0.0
 41
1.0
 50
0.0
 71
0
 42
2.5
  3

  4

1001
ACAD
1000
txt
1071
0
  0
ENDTAB
  0
TABLE
  2
VIEW
  5
6
100
AcDbSymbolTable
 70
0
  0
ENDTAB
  0
TABLE
  2
UCS
  5
7
100
AcDbSymbolTable
 70
0
  0
ENDTAB
  0
TABLE
  2
APPID
  5
9
100
AcDbSymbolTable
 70
1
  0
APPID
  5
12
100
AcDbSymbolTableRecord
100
AcDbRegAppTableRecord
  2
ACAD
 70
0
  0
APPID
  5
58
100
AcDbSymbolTableRecord
100
AcDbRegAppTableRecord
  2
QCAD
 70
0
  0
ENDTAB
  0
TABLE
  2
DIMSTYLE
  5
A
100
AcDbSymbolTable
 70
1
100
AcDbDimStyleTable
 71
0
  0
DIMSTYLE
105
27
100
AcDbSymbolTableRecord
100
AcDbDimStyleTableRecord
  2
Standard
 41
0.18
 42
0.0625
 43
3.75
 44
0.18
 70
0
 73
0
 74
0
 77
1
 78
8
140
0.18
141
2.5
143
0.03937007874016
147
0.09
171
3
172
1
271
2
272
2
274
3
278
44
283
0
284
8
340
57
  0
ENDTAB
  0
TABLE
  2
BLOCK_RECORD
  5
1
100
AcDbSymbolTable
 70
1
  0
BLOCK_RECORD
  5
1F
100
AcDbSymbolTableRecord
100
AcDbBlockTableRecord
  2
*Model_Space
340
22
  0
BLOCK_RECORD
  5
1B
100
AcDbSymbolTableRecord
100
AcDbBlockTableRecord
  2
*Paper_Space
340
1E
  0
BLOCK_RECORD
  5
23
100
AcDbSymbolTableRecord
100
AcDbBlockTableRecord
  2
*Paper_Space0
340
26
  0
ENDTAB
  0
ENDSEC
  0
SECTION
  2
BLOCKS
  0
BLOCK
  5
20
100
AcDbEntity
  8
0
100
AcDbBlockBegin
  2
*Model_Space
 70
0
 10
0.0
 20
0.0
 30
0.0
  3
*Model_Space
  1

  0
ENDBLK
  5
21
100
AcDbEntity
  8
0
100
AcDbBlockEnd
  0
BLOCK
  5
1C
100
AcDbEntity
 67
1
  8
0
100
AcDbBlockBegin
  2
*Paper_Space
 70
0
 10
0.0
 20
0.0
 30
0.0
  3
*Paper_Space
  1

  0
ENDBLK
  5
1D
100
AcDbEntity
 67
1
  8
0
100
AcDbBlockEnd
  0
BLOCK
  5
24
100
AcDbEntity
  8
0
100
AcDbBlockBegin
  2
*Paper_Space0
 70
0
 10
0.0
 20
0.0
 30
0.0
  3
*Paper_Space0
  1

  0
ENDBLK
  5
25
100
AcDbEntity
  8
0
100
AcDbBlockEnd
  0
ENDSEC
  0
SECTION
  2
ENTITIES
  0
LINE
  5
59
100
AcDbEntity
100
AcDbLine
  8
0
 62
0
370
-1
 48
1.0
  6
BYLAYER
 10
295.9940000000000282
 20
107.5
 30
0.0
 11
296.1510000000000105
 21
107.4950000000000045
 31
0.0
  0
LINE
  5
5A
100
AcDbEntity
100
AcDbLine
  8
0
 62
0
370
-1
 48
1.0
  6
BYLAYER
 10
296.1510000000000105
 20
107.4950000000000045
 30
0.0
 11
296.3070000000000164
 21
107.4759999999999991
 31
0.0
  0
LINE
  5
5B
100
AcDbEntity
100
AcDbLine
  8
0
 62
0
370
-1
 48
1.0
  6
BYLAYER
 10
296.3070000000000164
 20
107.4759999999999991
 30
0.0
 11
296.4599999999999795
 21
107.4440000000000026
 31
0.0
  0
LINE
  5
5C
100
AcDbEntity
100
AcDbLine
  8
0
 62
0
370
-1
 48
1.0
  6
BYLAYER
 10
296.4599999999999795
 20
107.4440000000000026
 30
0.0
 11
296.6129999999999995
 21
107.4030000000000058
 31
0.0
  0
LINE
  5
5D
100
AcDbEntity
100
AcDbLine
  8
0
 62
0
370
-1
 48
1.0
  6
BYLAYER
 10
296.6129999999999995
 20
107.4030000000000058
 30
0.0
 11
296.7590000000000146
 21
107.3490000000000038
 31
0.0
  0
LINE
  5
5E
100
AcDbEntity
100
AcDbLine
  8
0
 62
0
370
-1
 48
1.0
  6
BYLAYER
 10
296.7590000000000146
 20
107.3490000000000038
 30
0.0
 11
296.9010000000000105
 21
107.2810000000000059
 31
0.0
  0
LINE
  5
5F
100
AcDbEntity
100
AcDbLine
  8
0
 62
0
370
-1
 48
1.0
  6
BYLAYER
 10
296.9010000000000105
 20
107.2810000000000059
 30
0.0
 11
297.0389999999999873
 21
107.2060000000000031
 31
0.0
  0
LINE
  5
60
100
AcDbEntity
100
AcDbLine
  8
0
 62
0
370
-1
 48
1.0
  6
BYLAYER
 10
297.0389999999999873
 20
107.2060000000000031
 30
0.0
 11
297.1700000000000159
 21
107.117999999999995
 31
0.0
  0
LINE
  5
61
100
AcDbEntity
100
AcDbLine
  8
0
 62
0
370
-1
 48
1.0
  6
BYLAYER
 10
297.1700000000000159
 20
107.117999999999995
 30
0.0
 11
297.2930000000000064
 21
107.019999999999996
 31
0.0
  0
LINE
  5
62
100
AcDbEntity
100
AcDbLine
  8
0
 62
0
370
-1
 48
1.0
  6
BYLAYER
 10
297.2930000000000064
 20
107.019999999999996
 30
0.0
 11
297.4080000000000155
 21
106.9140000000000015
 31
0.0
  0
LINE
  5
63
100
AcDbEntity
100
AcDbLine
  8
0
 62
0
370
-1
 48
1.0
  6
BYLAYER
 10
297.4080000000000155
 20
106.9140000000000015
 30
0.0
 11
297.51400000000001
 21
106.7980000000000018
 31
0.0
  0
LINE
  5
64
100
AcDbEntity
100
AcDbLine
  8
0
 62
0
370
-1
 48
1.0
  6
BYLAYER
 10
297.51400000000001
 20
106.7980000000000018
 30
0.0
 11
297.6120000000000232
 21
106.6749999999999972
 31
0.0
  0
LINE
  5
65
100
AcDbEntity
100
AcDbLine
  8
0
 62
0
370
-1
 48
1.0
  6
BYLAYER
 10
297.6120000000000232
 20
106.6749999999999972
 30
0.0
 11
297.6999999999999886
 21
106.5450000000000017
 31
0.0
  0
LINE
  5
66
100
AcDbEntity
100
AcDbLine
  8
0
 62
0
370
-1
 48
1.0
  6
BYLAYER
 10
297.6999999999999886
 20
106.5450000000000017
 30
0.0
 11
297.7760000000000105
 21
106.409000000000006
 31
0.0
  0
LINE
  5
67
100
AcDbEntity
100
AcDbLine
  8
0
 62
0
370
-1
 48
1.0
  6
BYLAYER
 10
297.7760000000000105
 20
106.409000000000006
 30
0.0
 11
297.8419999999999845
 21
106.2650000000000006
 31
0.0
  0
LINE
  5
68
100
AcDbEntity
100
AcDbLine
  8
0
 62
0
370
-1
 48
1.0
  6
BYLAYER
 10
297.8419999999999845
 20
106.2650000000000006
 30
0.0
 11
297.8980000000000246
 21
106.1189999999999998
 31
0.0
  0
LINE
  5
69
100
AcDbEntity
100
AcDbLine
  8
0
 62
0
370
-1
 48
1.0
  6
BYLAYER
 10
297.8980000000000246
 20
106.1189999999999998
 30
0.0
 11
297.9390000000000214
 21
105.9680000000000035
 31
0.0
  0
LINE
  5
6A
100
AcDbEntity
100
AcDbLine
  8
0
 62
0
370
-1
 48
1.0
  6
BYLAYER
 10
297.9390000000000214
 20
105.9680000000000035
 30
0.0
 11
297.9689999999999941
 21
105.8130000000000024
 31
0.0
  0
LINE
  5
6B
100
AcDbEntity
100
AcDbLine
  8
0
 62
0
370
-1
 48
1.0
  6
BYLAYER
 10
297.9689999999999941
 20
105.8130000000000024
 30
0.0
 11
297.9879999999999995
 21
105.6580000000000013
 31
0.0
  0
LINE
  5
6C
100
AcDbEntity
100
AcDbLine
  8
0
 62
0
370
-1
 48
1.0
  6
BYLAYER
 10
297.9879999999999995
 20
105.6580000000000013
 30
0.0
 11
297.9950000000000045
 21
105.5
 31
0.0
  0
LINE
  5
6D
100
AcDbEntity
100
AcDbLine
  8
0
 62
0
370
-1
 48
1.0
  6
BYLAYER
 10
297.9950000000000045
 20
105.5
 30
0.0
 11
297.9950000000000045
 21
2.0987499999999999
 31
0.0
  0
LINE
  5
6E
100
AcDbEntity
100
AcDbLine
  8
0
 62
0
370
-1
 48
1.0
  6
BYLAYER
 10
297.9950000000000045
 20
2.0987499999999999
 30
0.0
 11
297.9879999999999995
 21
1.94303
 31
0.0
  0
LINE
  5
6F
100
AcDbEntity
100
AcDbLine
  8
0
 62
0
370
-1
 48
1.0
  6
BYLAYER
 10
297.9879999999999995
 20
1.94303
 30
0.0
 11
297.9689999999999941
 21
1.7859400000000001
 31
0.0
  0
LINE
  5
70
100
AcDbEntity
100
AcDbLine
  8
0
 62
0
370
-1
 48
1.0
  6
BYLAYER
 10
297.9689999999999941
 20
1.7859400000000001
 30
0.0
 11
297.9390000000000214
 21
1.63435
 31
0.0
  0
LINE
  5
71
100
AcDbEntity
100
AcDbLine
  8
0
 62
0
370
-1
 48
1.0
  6
BYLAYER
 10
297.9390000000000214
 20
1.63435
 30
0.0
 11
297.8980000000000246
 21
1.48001
 31
0.0
  0
LINE
  5
72
100
AcDbEntity
100
AcDbLine
  8
0
 62
0
370
-1
 48
1.0
  6
BYLAYER
 10
297.8980000000000246
 20
1.48001
 30
0.0
 11
297.8419999999999845
 21
1.3339399999999999
 31
0.0
  0
LINE
  5
73
100
AcDbEntity
100
AcDbLine
  8
0
 62
0
370
-1
 48
1.0
  6
BYLAYER
 10
297.8419999999999845
 20
1.3339399999999999
 30
0.0
 11
297.7760000000000105
 21
1.1933800000000001
 31
0.0
  0
LINE
  5
74
100
AcDbEntity
100
AcDbLine
  8
0
 62
0
370
-1
 48
1.0
  6
BYLAYER
 10
297.7760000000000105
 20
1.1933800000000001
 30
0.0
 11
297.6999999999999886
 21
1.0542
 31
0.0
  0
LINE
  5
75
100
AcDbEntity
100
AcDbLine
  8
0
 62
0
370
-1
 48
1.0
  6
BYLAYER
 10
297.6999999999999886
 20
1.0542
 30
0.0
 11
297.6120000000000232
 21
0.9232860000000001
 31
0.0
  0
LINE
  5
76
100
AcDbEntity
100
AcDbLine
  8
0
 62
0
370
-1
 48
1.0
  6
BYLAYER
 10
297.6120000000000232
 20
0.9232860000000001
 30
0.0
 11
297.51400000000001
 21
0.80064
 31
0.0
  0
LINE
  5
77
100
AcDbEntity
100
AcDbLine
  8
0
 62
0
370
-1
 48
1.0
  6
BYLAYER
 10
297.51400000000001
 20
0.80064
 30
0.0
 11
297.4080000000000155
 21
0.684886
 31
0.0
  0
LINE
  5
78
100
AcDbEntity
100
AcDbLine
  8
0
 62
0
370
-1
 48
1.0
  6
BYLAYER
 10
297.4080000000000155
 20
0.684886
 30
0.0
 11
297.2930000000000064
 21
0.578778
 31
0.0
  0
LINE
  5
79
100
AcDbEntity
100
AcDbLine
  8
0
 62
0
370
-1
 48
1.0
  6
BYLAYER
 10
297.2930000000000064
 20
0.578778
 30
0.0
 11
297.1700000000000159
 21
0.480935
 31
0.0
  0
LINE
  5
7A
100
AcDbEntity
100
AcDbLine
  8
0
 62
0
370
-1
 48
1.0
  6
BYLAYER
 10
297.1700000000000159
 20
0.480935
 30
0.0
 11
297.0389999999999873
 21
0.39274
 31
0.0
  0
LINE
  5
7B
100
AcDbEntity
100
AcDbLine
  8
0
 62
0
370
-1
 48
1.0
  6
BYLAYER
 10
297.0389999999999873
 20
0.39274
 30
0.0
 11
296.9010000000000105
 21
0.316949
 31
0.0
  0
LINE
  5
7C
100
AcDbEntity
100
AcDbLine
  8
0
 62
0
370
-1
 48
1.0
  6
BYLAYER
 10
296.9010000000000105
 20
0.316949
 30
0.0
 11
296.7590000000000146
 21
0.252181
 31
0.0
  0
LINE
  5
7D
100
AcDbEntity
100
AcDbLine
  8
0
 62
0
370
-1
 48
1.0
  6
BYLAYER
 10
296.7590000000000146
 20
0.252181
 30
0.0
 11
296.6129999999999995
 21
0.195682
 31
0.0
  0
LINE
  5
7E
100
AcDbEntity
100
AcDbLine
  8
0
 62
0
370
-1
 48
1.0
  6
BYLAYER
 10
296.6129999999999995
 20
0.195682
 30
0.0
 11
296.4599999999999795
 21
0.15434
 31
0.0
  0
LINE
  5
7F
100
AcDbEntity
100
AcDbLine
  8
0
 62
0
370
-1
 48
1.0
  6
BYLAYER
 10
296.4599999999999795
 20
0.15434
 30
0.0
 11
296.3070000000000164
 21
0.124024
 31
0.0
  0
LINE
  5
80
100
AcDbEntity
100
AcDbLine
  8
0
 62
0
370
-1
 48
1.0
  6
BYLAYER
 10
296.3070000000000164
 20
0.124024
 30
0.0
 11
296.1510000000000105
 21
0.106109
 31
0.0
  0
LINE
  5
81
100
AcDbEntity
100
AcDbLine
  8
0
 62
0
370
-1
 48
1.0
  6
BYLAYER
 10
296.1510000000000105
 20
0.106109
 30
0.0
 11
295.9940000000000282
 21
0.0992188
 31
0.0
  0
LINE
  5
82
100
AcDbEntity
100
AcDbLine
  8
0
 62
0
370
-1
 48
1.0
  6
BYLAYER
 10
295.9940000000000282
 20
0.0992188
 30
0.0
 11
2.0932400000000002
 21
0.0978408
 31
0.0
  0
LINE
  5
83
100
AcDbEntity
100
AcDbLine
  8
0
 62
0
370
-1
 48
1.0
  6
BYLAYER
 10
2.0932400000000002
 20
0.0978408
 30
0.0
 11
1.93614
 21
0.106109
 31
0.0
  0
LINE
  5
84
100
AcDbEntity
100
AcDbLine
  8
0
 62
0
370
-1
 48
1.0
  6
BYLAYER
 10
1.93614
 20
0.106109
 30
0.0
 11
1.78043
 21
0.124024
 31
0.0
  0
LINE
  5
85
100
AcDbEntity
100
AcDbLine
  8
0
 62
0
370
-1
 48
1.0
  6
BYLAYER
 10
1.78043
 20
0.124024
 30
0.0
 11
1.62609
 21
0.15434
 31
0.0
  0
LINE
  5
86
100
AcDbEntity
100
AcDbLine
  8
0
 62
0
370
-1
 48
1.0
  6
BYLAYER
 10
1.62609
 20
0.15434
 30
0.0
 11
1.4744999999999999
 21
0.195682
 31
0.0
  0
LINE
  5
87
100
AcDbEntity
100
AcDbLine
  8
0
 62
0
370
-1
 48
1.0
  6
BYLAYER
 10
1.4744999999999999
 20
0.195682
 30
0.0
 11
1.32843
 21
0.252181
 31
0.0
  0
LINE
  5
88
100
AcDbEntity
100
AcDbLine
  8
0
 62
0
370
-1
 48
1.0
  6
BYLAYER
 10
1.32843
 20
0.252181
 30
0.0
 11
1.1851100000000001
 21
0.316949
 31
0.0
  0
LINE
  5
89
100
AcDbEntity
100
AcDbLine
  8
0
 62
0
370
-1
 48
1.0
  6
BYLAYER
 10
1.1851100000000001
 20
0.316949
 30
0.0
 11
1.0486899999999999
 21
0.39274
 31
0.0
  0
LINE
  5
8A
100
AcDbEntity
100
AcDbLine
  8
0
 62
0
370
-1
 48
1.0
  6
BYLAYER
 10
1.0486899999999999
 20
0.39274
 30
0.0
 11
0.9177729999999999
 21
0.480935
 31
0.0
  0
LINE
  5
8B
100
AcDbEntity
100
AcDbLine
  8
0
 62
0
370
-1
 48
1.0
  6
BYLAYER
 10
0.9177729999999999
 20
0.480935
 30
0.0
 11
0.795129
 21
0.578778
 31
0.0
  0
LINE
  5
8C
100
AcDbEntity
100
AcDbLine
  8
0
 62
0
370
-1
 48
1.0
  6
BYLAYER
 10
0.795129
 20
0.578778
 30
0.0
 11
0.679372
 21
0.684886
 31
0.0
  0
LINE
  5
8D
100
AcDbEntity
100
AcDbLine
  8
0
 62
0
370
-1
 48
1.0
  6
BYLAYER
 10
0.679372
 20
0.684886
 30
0.0
 11
0.573264
 21
0.80064
 31
0.0
  0
LINE
  5
8E
100
AcDbEntity
100
AcDbLine
  8
0
 62
0
370
-1
 48
1.0
  6
BYLAYER
 10
0.573264
 20
0.80064
 30
0.0
 11
0.475424
 21
0.9232860000000001
 31
0.0
  0
LINE
  5
8F
100
AcDbEntity
100
AcDbLine
  8
0
 62
0
370
-1
 48
1.0
  6
BYLAYER
 10
0.475424
 20
0.9232860000000001
 30
0.0
 11
0.38723
 21
1.0542
 31
0.0
  0
LINE
  5
90
100
AcDbEntity
100
AcDbLine
  8
0
 62
0
370
-1
 48
1.0
  6
BYLAYER
 10
0.38723
 20
1.0542
 30
0.0
 11
0.311437
 21
1.1933800000000001
 31
0.0
  0
LINE
  5
91
100
AcDbEntity
100
AcDbLine
  8
0
 62
0
370
-1
 48
1.0
  6
BYLAYER
 10
0.311437
 20
1.1933800000000001
 30
0.0
 11
0.245291
 21
1.3339399999999999
 31
0.0
  0
LINE
  5
92
100
AcDbEntity
100
AcDbLine
  8
0
 62
0
370
-1
 48
1.0
  6
BYLAYER
 10
0.245291
 20
1.3339399999999999
 30
0.0
 11
0.190169
 21
1.48001
 31
0.0
  0
LINE
  5
93
100
AcDbEntity
100
AcDbLine
  8
0
 62
0
370
-1
 48
1.0
  6
BYLAYER
 10
0.190169
 20
1.48001
 30
0.0
 11
0.148828
 21
1.63435
 31
0.0
  0
LINE
  5
94
100
AcDbEntity
100
AcDbLine
  8
0
 62
0
370
-1
 48
1.0
  6
BYLAYER
 10
0.148828
 20
1.63435
 30
0.0
 11
0.117133
 21
1.7859400000000001
 31
0.0
  0
LINE
  5
95
100
AcDbEntity
100
AcDbLine
  8
0
 62
0
370
-1
 48
1.0
  6
BYLAYER
 10
0.117133
 20
1.7859400000000001
 30
0.0
 11
0.0992188
 21
1.94303
 31
0.0
  0
LINE
  5
96
100
AcDbEntity
100
AcDbLine
  8
0
 62
0
370
-1
 48
1.0
  6
BYLAYER
 10
0.0992188
 20
1.94303
 30
0.0
 11
0.0923286
 21
2.0987499999999999
 31
0.0
  0
LINE
  5
97
100
AcDbEntity
100
AcDbLine
  8
0
 62
0
370
-1
 48
1.0
  6
BYLAYER
 10
0.0923286
 20
2.0987499999999999
 30
0.0
 11
0.0937066
 21
105.5
 31
0.0
  0
LINE
  5
98
100
AcDbEntity
100
AcDbLine
  8
0
 62
0
370
-1
 48
1.0
  6
BYLAYER
 10
0.0937066
 20
105.5
 30
0.0
 11
0.0992188
 21
105.6580000000000013
 31
0.0
  0
LINE
  5
99
100
AcDbEntity
100
AcDbLine
  8
0
 62
0
370
-1
 48
1.0
  6
BYLAYER
 10
0.0992188
 20
105.6580000000000013
 30
0.0
 11
0.117133
 21
105.8130000000000024
 31
0.0
  0
LINE
  5
9A
100
AcDbEntity
100
AcDbLine
  8
0
 62
0
370
-1
 48
1.0
  6
BYLAYER
 10
0.117133
 20
105.8130000000000024
 30
0.0
 11
0.148828
 21
105.9680000000000035
 31
0.0
  0
LINE
  5
9B
100
AcDbEntity
100
AcDbLine
  8
0
 62
0
370
-1
 48
1.0
  6
BYLAYER
 10
0.148828
 20
105.9680000000000035
 30
0.0
 11
0.190169
 21
106.1189999999999998
 31
0.0
  0
LINE
  5
9C
100
AcDbEntity
100
AcDbLine
  8
0
 62
0
370
-1
 48
1.0
  6
BYLAYER
 10
0.190169
 20
106.1189999999999998
 30
0.0
 11
0.245291
 21
106.2650000000000006
 31
0.0
  0
LINE
  5
9D
100
AcDbEntity
100
AcDbLine
  8
0
 62
0
370
-1
 48
1.0
  6
BYLAYER
 10
0.245291
 20
106.2650000000000006
 30
0.0
 11
0.311437
 21
106.409000000000006
 31
0.0
  0
LINE
  5
9E
100
AcDbEntity
100
AcDbLine
  8
0
 62
0
370
-1
 48
1.0
  6
BYLAYER
 10
0.311437
 20
106.409000000000006
 30
0.0
 11
0.38723
 21
106.5450000000000017
 31
0.0
  0
LINE
  5
9F
100
AcDbEntity
100
AcDbLine
  8
0
 62
0
370
-1
 48
1.0
  6
BYLAYER
 10
0.38723
 20
106.5450000000000017
 30
0.0
 11
0.475424
 21
106.6749999999999972
 31
0.0
  0
LINE
  5
A0
100
AcDbEntity
100
AcDbLine
  8
0
 62
0
370
-1
 48
1.0
  6
BYLAYER
 10
0.475424
 20
106.6749999999999972
 30
0.0
 11
0.573264
 21
106.7980000000000018
 31
0.0
  0
LINE
  5
A1
100
AcDbEntity
100
AcDbLine
  8
0
 62
0
370
-1
 48
1.0
  6
BYLAYER
 10
0.573264
 20
106.7980000000000018
 30
0.0
 11
0.679372
 21
106.9140000000000015
 31
0.0
  0
LINE
  5
A2
100
AcDbEntity
100
AcDbLine
  8
0
 62
0
370
-1
 48
1.0
  6
BYLAYER
 10
0.679372
 20
106.9140000000000015
 30
0.0
 11
0.795129
 21
107.019999999999996
 31
0.0
  0
LINE
  5
A3
100
AcDbEntity
100
AcDbLine
  8
0
 62
0
370
-1
 48
1.0
  6
BYLAYER
 10
0.795129
 20
107.019999999999996
 30
0.0
 11
0.9177729999999999
 21
107.117999999999995
 31
0.0
  0
LINE
  5
A4
100
AcDbEntity
100
AcDbLine
  8
0
 62
0
370
-1
 48
1.0
  6
BYLAYER
 10
0.9177729999999999
 20
107.117999999999995
 30
0.0
 11
1.0486899999999999
 21
107.2060000000000031
 31
0.0
  0
LINE
  5
A5
100
AcDbEntity
100
AcDbLine
  8
0
 62
0
370
-1
 48
1.0
  6
BYLAYER
 10
1.0486899999999999
 20
107.2060000000000031
 30
0.0
 11
1.1851100000000001
 21
107.2810000000000059
 31
0.0
  0
LINE
  5
A6
100
AcDbEntity
100
AcDbLine
  8
0
 62
0
370
-1
 48
1.0
  6
BYLAYER
 10
1.1851100000000001
 20
107.2810000000000059
 30
0.0
 11
1.32843
 21
107.3490000000000038
 31
0.0
  0
LINE
  5
A7
100
AcDbEntity
100
AcDbLine
  8
0
 62
0
370
-1
 48
1.0
  6
BYLAYER
 10
1.32843
 20
107.3490000000000038
 30
0.0
 11
1.4744999999999999
 21
107.4030000000000058
 31
0.0
  0
LINE
  5
A8
100
AcDbEntity
100
AcDbLine
  8
0
 62
0
370
-1
 48
1.0
  6
BYLAYER
 10
1.4744999999999999
 20
107.4030000000000058
 30
0.0
 11
1.62609
 21
107.4440000000000026
 31
0.0
  0
LINE
  5
A9
100
AcDbEntity
100
AcDbLine
  8
0
 62
0
370
-1
 48
1.0
  6
BYLAYER
 10
1.62609
 20
107.4440000000000026
 30
0.0
 11
1.78043
 21
107.4759999999999991
 31
0.0
  0
LINE
  5
AA
100
AcDbEntity
100
AcDbLine
  8
0
 62
0
370
-1
 48
1.0
  6
BYLAYER
 10
1.78043
 20
107.4759999999999991
 30
0.0
 11
1.93614
 21
107.4950000000000045
 31
0.0
  0
LINE
  5
AB
100
AcDbEntity
100
AcDbLine
  8
0
 62
0
370
-1
 48
1.0
  6
BYLAYER
 10
1.93614
 20
107.4950000000000045
 30
0.0
 11
2.0932400000000002
 21
107.5010000000000048
 31
0.0
  0
LINE
  5
AC
100
AcDbEntity
100
AcDbLine
  8
0
 62
0
370
-1
 48
1.0
  6
BYLAYER
 10
2.0932400000000002
 20
107.5010000000000048
 30
0.0
 11
295.9940000000000282
 21
107.5
 31
0.0
  0
LINE
  5
AD
100
AcDbEntity
100
AcDbLine
  8
0
 62
0
370
-1
 48
1.0
  6
BYLAYER
 10
294.4479999999999791
 20
4.6246999999999998
 30
0.0
 11
294.0219999999999914
 21
4.4069700000000003
 31
0.0
  0
LINE
  5
AE
100
AcDbEntity
100
AcDbLine
  8
0
 62
0
370
-1
 48
1.0
  6
BYLAYER
 10
294.0219999999999914
 20
4.4069700000000003
 30
0.0
 11
293.6859999999999786
 21
4.0721100000000003
 31
0.0
  0
LINE
  5
AF
100
AcDbEntity
100
AcDbLine
  8
0
 62
0
370
-1
 48
1.0
  6
BYLAYER
 10
293.6859999999999786
 20
4.0721100000000003
 30
0.0
 11
293.4680000000000177
 21
3.64628
 31
0.0
  0
LINE
  5
B0
100
AcDbEntity
100
AcDbLine
  8
0
 62
0
370
-1
 48
1.0
  6
BYLAYER
 10
293.4680000000000177
 20
3.64628
 30
0.0
 11
293.3949999999999818
 21
3.17638
 31
0.0
  0
LINE
  5
B1
100
AcDbEntity
100
AcDbLine
  8
0
 62
0
370
-1
 48
1.0
  6
BYLAYER
 10
293.3949999999999818
 20
3.17638
 30
0.0
 11
293.4680000000000177
 21
2.7023299999999999
 31
0.0
  0
LINE
  5
B2
100
AcDbEntity
100
AcDbLine
  8
0
 62
0
370
-1
 48
1.0
  6
BYLAYER
 10
293.4680000000000177
 20
2.7023299999999999
 30
0.0
 11
293.6859999999999786
 21
2.27928
 31
0.0
  0
LINE
  5
B3
100
AcDbEntity
100
AcDbLine
  8
0
 62
0
370
-1
 48
1.0
  6
BYLAYER
 10
293.6859999999999786
 20
2.27928
 30
0.0
 11
294.0219999999999914
 21
1.9416599999999999
 31
0.0
  0
LINE
  5
B4
100
AcDbEntity
100
AcDbLine
  8
0
 62
0
370
-1
 48
1.0
  6
BYLAYER
 10
294.0219999999999914
 20
1.9416599999999999
 30
0.0
 11
294.4479999999999791
 21
1.72393
 31
0.0
  0
LINE
  5
B5
100
AcDbEntity
100
AcDbLine
  8
0
 62
0
370
-1
 48
1.0
  6
BYLAYER
 10
294.4479999999999791
 20
1.72393
 30
0.0
 11
294.9189999999999827
 21
1.64951
 31
0.0
  0
LINE
  5
B6
100
AcDbEntity
100
AcDbLine
  8
0
 62
0
370
-1
 48
1.0
  6
BYLAYER
 10
294.9189999999999827
 20
1.64951
 30
0.0
 11
295.3910000000000196
 21
1.72393
 31
0.0
  0
LINE
  5
B7
100
AcDbEntity
100
AcDbLine
  8
0
 62
0
370
-1
 48
1.0
  6
BYLAYER
 10
295.3910000000000196
 20
1.72393
 30
0.0
 11
295.8149999999999977
 21
1.9416599999999999
 31
0.0
  0
LINE
  5
B8
100
AcDbEntity
100
AcDbLine
  8
0
 62
0
370
-1
 48
1.0
  6
BYLAYER
 10
295.8149999999999977
 20
1.9416599999999999
 30
0.0
 11
296.15300000000002
 21
2.27928
 31
0.0
  0
LINE
  5
B9
100
AcDbEntity
100
AcDbLine
  8
0
 62
0
370
-1
 48
1.0
  6
BYLAYER
 10
296.15300000000002
 20
2.27928
 30
0.0
 11
296.3690000000000282
 21
2.7023299999999999
 31
0.0
  0
LINE
  5
BA
100
AcDbEntity
100
AcDbLine
  8
0
 62
0
370
-1
 48
1.0
  6
BYLAYER
 10
296.3690000000000282
 20
2.7023299999999999
 30
0.0
 11
296.4449999999999932
 21
3.17638
 31
0.0
  0
LINE
  5
BB
100
AcDbEntity
100
AcDbLine
  8
0
 62
0
370
-1
 48
1.0
  6
BYLAYER
 10
296.4449999999999932
 20
3.17638
 30
0.0
 11
296.3690000000000282
 21
3.64628
 31
0.0
  0
LINE
  5
BC
100
AcDbEntity
100
AcDbLine
  8
0
 62
0
370
-1
 48
1.0
  6
BYLAYER
 10
296.3690000000000282
 20
3.64628
 30
0.0
 11
296.15300000000002
 21
4.0721100000000003
 31
0.0
  0
LINE
  5
BD
100
AcDbEntity
100
AcDbLine
  8
0
 62
0
370
-1
 48
1.0
  6
BYLAYER
 10
296.15300000000002
 20
4.0721100000000003
 30
0.0
 11
295.8149999999999977
 21
4.4069700000000003
 31
0.0
  0
LINE
  5
BE
100
AcDbEntity
100
AcDbLine
  8
0
 62
0
370
-1
 48
1.0
  6
BYLAYER
 10
295.8149999999999977
 20
4.4069700000000003
 30
0.0
 11
295.3910000000000196
 21
4.6246999999999998
 31
0.0
  0
LINE
  5
BF
100
AcDbEntity
100
AcDbLine
  8
0
 62
0
370
-1
 48
1.0
  6
BYLAYER
 10
295.3910000000000196
 20
4.6246999999999998
 30
0.0
 11
294.9189999999999827
 21
4.6991100000000001
 31
0.0
  0
LINE
  5
C0
100
AcDbEntity
100
AcDbLine
  8
0
 62
0
370
-1
 48
1.0
  6
BYLAYER
 10
294.9189999999999827
 20
4.6991100000000001
 30
0.0
 11
294.4479999999999791
 21
4.6246999999999998
 31
0.0
  0
LINE
  5
C1
100
AcDbEntity
100
AcDbLine
  8
0
 62
0
370
-1
 48
1.0
  6
BYLAYER
 10
148.5730000000000075
 20
4.6246999999999998
 30
0.0
 11
148.1469999999999914
 21
4.4069700000000003
 31
0.0
  0
LINE
  5
C2
100
AcDbEntity
100
AcDbLine
  8
0
 62
0
370
-1
 48
1.0
  6
BYLAYER
 10
148.1469999999999914
 20
4.4069700000000003
 30
0.0
 11
147.8100000000000023
 21
4.0721100000000003
 31
0.0
  0
LINE
  5
C3
100
AcDbEntity
100
AcDbLine
  8
0
 62
0
370
-1
 48
1.0
  6
BYLAYER
 10
147.8100000000000023
 20
4.0721100000000003
 30
0.0
 11
147.5929999999999893
 21
3.64628
 31
0.0
  0
LINE
  5
C4
100
AcDbEntity
100
AcDbLine
  8
0
 62
0
370
-1
 48
1.0
  6
BYLAYER
 10
147.5929999999999893
 20
3.64628
 30
0.0
 11
147.5190000000000055
 21
3.17638
 31
0.0
  0
LINE
  5
C5
100
AcDbEntity
100
AcDbLine
  8
0
 62
0
370
-1
 48
1.0
  6
BYLAYER
 10
147.5190000000000055
 20
3.17638
 30
0.0
 11
147.5929999999999893
 21
2.7023299999999999
 31
0.0
  0
LINE
  5
C6
100
AcDbEntity
100
AcDbLine
  8
0
 62
0
370
-1
 48
1.0
  6
BYLAYER
 10
147.5929999999999893
 20
2.7023299999999999
 30
0.0
 11
147.8100000000000023
 21
2.27928
 31
0.0
  0
LINE
  5
C7
100
AcDbEntity
100
AcDbLine
  8
0
 62
0
370
-1
 48
1.0
  6
BYLAYER
 10
147.8100000000000023
 20
2.27928
 30
0.0
 11
148.1469999999999914
 21
1.9416599999999999
 31
0.0
  0
LINE
  5
C8
100
AcDbEntity
100
AcDbLine
  8
0
 62
0
370
-1
 48
1.0
  6
BYLAYER
 10
148.1469999999999914
 20
1.9416599999999999
 30
0.0
 11
148.5730000000000075
 21
1.72393
 31
0.0
  0
LINE
  5
C9
100
AcDbEntity
100
AcDbLine
  8
0
 62
0
370
-1
 48
1.0
  6
BYLAYER
 10
148.5730000000000075
 20
1.72393
 30
0.0
 11
149.0430000000000064
 21
1.64951
 31
0.0
  0
LINE
  5
CA
100
AcDbEntity
100
AcDbLine
  8
0
 62
0
370
-1
 48
1.0
  6
BYLAYER
 10
149.0430000000000064
 20
1.64951
 30
0.0
 11
149.51400000000001
 21
1.72393
 31
0.0
  0
LINE
  5
CB
100
AcDbEntity
100
AcDbLine
  8
0
 62
0
370
-1
 48
1.0
  6
BYLAYER
 10
149.51400000000001
 20
1.72393
 30
0.0
 11
149.9399999999999977
 21
1.9416599999999999
 31
0.0
  0
LINE
  5
CC
100
AcDbEntity
100
AcDbLine
  8
0
 62
0
370
-1
 48
1.0
  6
BYLAYER
 10
149.9399999999999977
 20
1.9416599999999999
 30
0.0
 11
150.2779999999999916
 21
2.27928
 31
0.0
  0
LINE
  5
CD
100
AcDbEntity
100
AcDbLine
  8
0
 62
0
370
-1
 48
1.0
  6
BYLAYER
 10
150.2779999999999916
 20
2.27928
 30
0.0
 11
150.4939999999999998
 21
2.7023299999999999
 31
0.0
  0
LINE
  5
CE
100
AcDbEntity
100
AcDbLine
  8
0
 62
0
370
-1
 48
1.0
  6
BYLAYER
 10
150.4939999999999998
 20
2.7023299999999999
 30
0.0
 11
150.5689999999999884
 21
3.17638
 31
0.0
  0
LINE
  5
CF
100
AcDbEntity
100
AcDbLine
  8
0
 62
0
370
-1
 48
1.0
  6
BYLAYER
 10
150.5689999999999884
 20
3.17638
 30
0.0
 11
150.4939999999999998
 21
3.64628
 31
0.0
  0
LINE
  5
D0
100
AcDbEntity
100
AcDbLine
  8
0
 62
0
370
-1
 48
1.0
  6
BYLAYER
 10
150.4939999999999998
 20
3.64628
 30
0.0
 11
150.2779999999999916
 21
4.0721100000000003
 31
0.0
  0
LINE
  5
D1
100
AcDbEntity
100
AcDbLine
  8
0
 62
0
370
-1
 48
1.0
  6
BYLAYER
 10
150.2779999999999916
 20
4.0721100000000003
 30
0.0
 11
149.9399999999999977
 21
4.4069700000000003
 31
0.0
  0
LINE
  5
D2
100
AcDbEntity
100
AcDbLine
  8
0
 62
0
370
-1
 48
1.0
  6
BYLAYER
 10
149.9399999999999977
 20
4.4069700000000003
 30
0.0
 11
149.51400000000001
 21
4.6246999999999998
 31
0.0
  0
LINE
  5
D3
100
AcDbEntity
100
AcDbLine
  8
0
 62
0
370
-1
 48
1.0
  6
BYLAYER
 10
149.51400000000001
 20
4.6246999999999998
 30
0.0
 11
149.0430000000000064
 21
4.6991100000000001
 31
0.0
  0
LINE
  5
D4
100
AcDbEntity
100
AcDbLine
  8
0
 62
0
370
-1
 48
1.0
  6
BYLAYER
 10
149.0430000000000064
 20
4.6991100000000001
 30
0.0
 11
148.5730000000000075
 21
4.6246999999999998
 31
0.0
  0
LINE
  5
D5
100
AcDbEntity
100
AcDbLine
  8
0
 62
0
370
-1
 48
1.0
  6
BYLAYER
 10
2.6968200000000002
 20
4.6246999999999998
 30
0.0
 11
2.2723900000000001
 21
4.4069700000000003
 31
0.0
  0
LINE
  5
D6
100
AcDbEntity
100
AcDbLine
  8
0
 62
0
370
-1
 48
1.0
  6
BYLAYER
 10
2.2723900000000001
 20
4.4069700000000003
 30
0.0
 11
1.9347700000000001
 21
4.0721100000000003
 31
0.0
  0
LINE
  5
D7
100
AcDbEntity
100
AcDbLine
  8
0
 62
0
370
-1
 48
1.0
  6
BYLAYER
 10
1.9347700000000001
 20
4.0721100000000003
 30
0.0
 11
1.71841
 21
3.64628
 31
0.0
  0
LINE
  5
D8
100
AcDbEntity
100
AcDbLine
  8
0
 62
0
370
-1
 48
1.0
  6
BYLAYER
 10
1.71841
 20
3.64628
 30
0.0
 11
1.64262
 21
3.17638
 31
0.0
  0
LINE
  5
D9
100
AcDbEntity
100
AcDbLine
  8
0
 62
0
370
-1
 48
1.0
  6
BYLAYER
 10
1.64262
 20
3.17638
 30
0.0
 11
1.71841
 21
2.7023299999999999
 31
0.0
  0
LINE
  5
DA
100
AcDbEntity
100
AcDbLine
  8
0
 62
0
370
-1
 48
1.0
  6
BYLAYER
 10
1.71841
 20
2.7023299999999999
 30
0.0
 11
1.9347700000000001
 21
2.27928
 31
0.0
  0
LINE
  5
DB
100
AcDbEntity
100
AcDbLine
  8
0
 62
0
370
-1
 48
1.0
  6
BYLAYER
 10
1.9347700000000001
 20
2.27928
 30
0.0
 11
2.2723900000000001
 21
1.9416599999999999
 31
0.0
  0
LINE
  5
DC
100
AcDbEntity
100
AcDbLine
  8
0
 62
0
370
-1
 48
1.0
  6
BYLAYER
 10
2.2723900000000001
 20
1.9416599999999999
 30
0.0
 11
2.6968200000000002
 21
1.72393
 31
0.0
  0
LINE
  5
DD
100
AcDbEntity
100
AcDbLine
  8
0
 62
0
370
-1
 48
1.0
  6
BYLAYER
 10
2.6968200000000002
 20
1.72393
 30
0.0
 11
3.16811
 21
1.64951
 31
0.0
  0
LINE
  5
DE
100
AcDbEntity
100
AcDbLine
  8
0
 62
0
370
-1
 48
1.0
  6
BYLAYER
 10
3.16811
 20
1.64951
 30
0.0
 11
3.6394000000000002
 21
1.72393
 31
0.0
  0
LINE
  5
DF
100
AcDbEntity
100
AcDbLine
  8
0
 62
0
370
-1
 48
1.0
  6
BYLAYER
 10
3.6394000000000002
 20
1.72393
 30
0.0
 11
4.0651999999999999
 21
1.9416599999999999
 31
0.0
  0
LINE
  5
E0
100
AcDbEntity
100
AcDbLine
  8
0
 62
0
370
-1
 48
1.0
  6
BYLAYER
 10
4.0651999999999999
 20
1.9416599999999999
 30
0.0
 11
4.4014699999999998
 21
2.27928
 31
0.0
  0
LINE
  5
E1
100
AcDbEntity
100
AcDbLine
  8
0
 62
0
370
-1
 48
1.0
  6
BYLAYER
 10
4.4014699999999998
 20
2.27928
 30
0.0
 11
4.6192000000000002
 21
2.7023299999999999
 31
0.0
  0
LINE
  5
E2
100
AcDbEntity
100
AcDbLine
  8
0
 62
0
370
-1
 48
1.0
  6
BYLAYER
 10
4.6192000000000002
 20
2.7023299999999999
 30
0.0
 11
4.6922300000000003
 21
3.17638
 31
0.0
  0
LINE
  5
E3
100
AcDbEntity
100
AcDbLine
  8
0
 62
0
370
-1
 48
1.0
  6
BYLAYER
 10
4.6922300000000003
 20
3.17638
 30
0.0
 11
4.6192000000000002
 21
3.64628
 31
0.0
  0
LINE
  5
E4
100
AcDbEntity
100
AcDbLine
  8
0
 62
0
370
-1
 48
1.0
  6
BYLAYER
 10
4.6192000000000002
 20
3.64628
 30
0.0
 11
4.4014699999999998
 21
4.0721100000000003
 31
0.0
  0
LINE
  5
E5
100
AcDbEntity
100
AcDbLine
  8
0
 62
0
370
-1
 48
1.0
  6
BYLAYER
 10
4.4014699999999998
 20
4.0721100000000003
 30
0.0
 11
4.0651999999999999
 21
4.4069700000000003
 31
0.0
  0
LINE
  5
E6
100
AcDbEntity
100
AcDbLine
  8
0
 62
0
370
-1
 48
1.0
  6
BYLAYER
 10
4.0651999999999999
 20
4.4069700000000003
 30
0.0
 11
3.6394000000000002
 21
4.6246999999999998
 31
0.0
  0
LINE
  5
E7
100
AcDbEntity
100
AcDbLine
  8
0
 62
0
370
-1
 48
1.0
  6
BYLAYER
 10
3.6394000000000002
 20
4.6246999999999998
 30
0.0
 11
3.16811
 21
4.6991100000000001
 31
0.0
  0
LINE
  5
E8
100
AcDbEntity
100
AcDbLine
  8
0
 62
0
370
-1
 48
1.0
  6
BYLAYER
 10
3.16811
 20
4.6991100000000001
 30
0.0
 11
2.6968200000000002
 21
4.6246999999999998
 31
0.0
  0
LINE
  5
E9
100
AcDbEntity
100
AcDbLine
  8
0
 62
0
370
-1
 48
1.0
  6
BYLAYER
 10
6.1681100000000004
 20
101.4260000000000019
 30
0.0
 11
6.1681100000000004
 21
44.2764000000000024
 31
0.0
  0
LINE
  5
EA
100
AcDbEntity
100
AcDbLine
  8
0
 62
0
370
-1
 48
1.0
  6
BYLAYER
 10
6.1681100000000004
 20
44.2764000000000024
 30
0.0
 11
6.1667300000000003
 21
44.2764000000000024
 31
0.0
  0
LINE
  5
EB
100
AcDbEntity
100
AcDbLine
  8
0
 62
0
370
-1
 48
1.0
  6
BYLAYER
 10
6.1667300000000003
 20
44.2764000000000024
 30
0.0
 11
6.1667300000000003
 21
25.2250000000000014
 31
0.0
  0
LINE
  5
EC
100
AcDbEntity
100
AcDbLine
  8
0
 62
0
370
-1
 48
1.0
  6
BYLAYER
 10
39.5041000000000011
 20
6.1749900000000002
 30
0.0
 11
277.632000000000005
 21
6.1749900000000002
 31
0.0
  0
LINE
  5
ED
100
AcDbEntity
100
AcDbLine
  8
0
 62
0
370
-1
 48
1.0
  6
BYLAYER
 10
291.9189999999999827
 20
25.2250000000000014
 30
0.0
 11
291.9189999999999827
 21
101.4260000000000019
 31
0.0
  0
LINE
  5
EE
100
AcDbEntity
100
AcDbLine
  8
0
 62
0
370
-1
 48
1.0
  6
BYLAYER
 10
291.9189999999999827
 20
101.4260000000000019
 30
0.0
 11
6.1681100000000004
 21
101.4260000000000019
 31
0.0
  0
LINE
  5
EF
100
AcDbEntity
100
AcDbLine
  8
0
 62
0
370
-1
 48
1.0
  6
BYLAYER
 10
148.5730000000000075
 20
105.875
 30
0.0
 11
148.1469999999999914
 21
105.6599999999999966
 31
0.0
  0
LINE
  5
F0
100
AcDbEntity
100
AcDbLine
  8
0
 62
0
370
-1
 48
1.0
  6
BYLAYER
 10
148.1469999999999914
 20
105.6599999999999966
 30
0.0
 11
147.8100000000000023
 21
105.3220000000000027
 31
0.0
  0
LINE
  5
F1
100
AcDbEntity
100
AcDbLine
  8
0
 62
0
370
-1
 48
1.0
  6
BYLAYER
 10
147.8100000000000023
 20
105.3220000000000027
 30
0.0
 11
147.5929999999999893
 21
104.8960000000000008
 31
0.0
  0
LINE
  5
F2
100
AcDbEntity
100
AcDbLine
  8
0
 62
0
370
-1
 48
1.0
  6
BYLAYER
 10
147.5929999999999893
 20
104.8960000000000008
 30
0.0
 11
147.5190000000000055
 21
104.4260000000000019
 31
0.0
  0
LINE
  5
F3
100
AcDbEntity
100
AcDbLine
  8
0
 62
0
370
-1
 48
1.0
  6
BYLAYER
 10
147.5190000000000055
 20
104.4260000000000019
 30
0.0
 11
147.5929999999999893
 21
103.9549999999999983
 31
0.0
  0
LINE
  5
F4
100
AcDbEntity
100
AcDbLine
  8
0
 62
0
370
-1
 48
1.0
  6
BYLAYER
 10
147.5929999999999893
 20
103.9549999999999983
 30
0.0
 11
147.8100000000000023
 21
103.5289999999999964
 31
0.0
  0
LINE
  5
F5
100
AcDbEntity
100
AcDbLine
  8
0
 62
0
370
-1
 48
1.0
  6
BYLAYER
 10
147.8100000000000023
 20
103.5289999999999964
 30
0.0
 11
148.1469999999999914
 21
103.1919999999999931
 31
0.0
  0
LINE
  5
F6
100
AcDbEntity
100
AcDbLine
  8
0
 62
0
370
-1
 48
1.0
  6
BYLAYER
 10
148.1469999999999914
 20
103.1919999999999931
 30
0.0
 11
148.5730000000000075
 21
102.9740000000000038
 31
0.0
  0
LINE
  5
F7
100
AcDbEntity
100
AcDbLine
  8
0
 62
0
370
-1
 48
1.0
  6
BYLAYER
 10
148.5730000000000075
 20
102.9740000000000038
 30
0.0
 11
149.0430000000000064
 21
102.9000000000000057
 31
0.0
  0
LINE
  5
F8
100
AcDbEntity
100
AcDbLine
  8
0
 62
0
370
-1
 48
1.0
  6
BYLAYER
 10
149.0430000000000064
 20
102.9000000000000057
 30
0.0
 11
149.51400000000001
 21
102.9740000000000038
 31
0.0
  0
LINE
  5
F9
100
AcDbEntity
100
AcDbLine
  8
0
 62
0
370
-1
 48
1.0
  6
BYLAYER
 10
149.51400000000001
 20
102.9740000000000038
 30
0.0
 11
149.9399999999999977
 21
103.1919999999999931
 31
0.0
  0
LINE
  5
FA
100
AcDbEntity
100
AcDbLine
  8
0
 62
0
370
-1
 48
1.0
  6
BYLAYER
 10
149.9399999999999977
 20
103.1919999999999931
 30
0.0
 11
150.2779999999999916
 21
103.5289999999999964
 31
0.0
  0
LINE
  5
FB
100
AcDbEntity
100
AcDbLine
  8
0
 62
0
370
-1
 48
1.0
  6
BYLAYER
 10
150.2779999999999916
 20
103.5289999999999964
 30
0.0
 11
150.4939999999999998
 21
103.9549999999999983
 31
0.0
  0
LINE
  5
FC
100
AcDbEntity
100
AcDbLine
  8
0
 62
0
370
-1
 48
1.0
  6
BYLAYER
 10
150.4939999999999998
 20
103.9549999999999983
 30
0.0
 11
150.5689999999999884
 21
104.4260000000000019
 31
0.0
  0
LINE
  5
FD
100
AcDbEntity
100
AcDbLine
  8
0
 62
0
370
-1
 48
1.0
  6
BYLAYER
 10
150.5689999999999884
 20
104.4260000000000019
 30
0.0
 11
150.4939999999999998
 21
104.8960000000000008
 31
0.0
  0
LINE
  5
FE
100
AcDbEntity
100
AcDbLine
  8
0
 62
0
370
-1
 48
1.0
  6
BYLAYER
 10
150.4939999999999998
 20
104.8960000000000008
 30
0.0
 11
150.2779999999999916
 21
105.3220000000000027
 31
0.0
  0
LINE
  5
FF
100
AcDbEntity
100
AcDbLine
  8
0
 62
0
370
-1
 48
1.0
  6
BYLAYER
 10
150.2779999999999916
 20
105.3220000000000027
 30
0.0
 11
149.9399999999999977
 21
105.6599999999999966
 31
0.0
  0
LINE
  5
100
100
AcDbEntity
100
AcDbLine
  8
0
 62
0
370
-1
 48
1.0
  6
BYLAYER
 10
149.9399999999999977
 20
105.6599999999999966
 30
0.0
 11
149.51400000000001
 21
105.875
 31
0.0
  0
LINE
  5
101
100
AcDbEntity
100
AcDbLine
  8
0
 62
0
370
-1
 48
1.0
  6
BYLAYER
 10
149.51400000000001
 20
105.875
 30
0.0
 11
149.0430000000000064
 21
105.9519999999999982
 31
0.0
  0
LINE
  5
102
100
AcDbEntity
100
AcDbLine
  8
0
 62
0
370
-1
 48
1.0
  6
BYLAYER
 10
149.0430000000000064
 20
105.9519999999999982
 30
0.0
 11
148.5730000000000075
 21
105.875
 31
0.0
  0
LINE
  5
103
100
AcDbEntity
100
AcDbLine
  8
0
 62
0
370
-1
 48
1.0
  6
BYLAYER
 10
294.4479999999999791
 20
105.875
 30
0.0
 11
294.0219999999999914
 21
105.6599999999999966
 31
0.0
  0
LINE
  5
104
100
AcDbEntity
100
AcDbLine
  8
0
 62
0
370
-1
 48
1.0
  6
BYLAYER
 10
294.0219999999999914
 20
105.6599999999999966
 30
0.0
 11
293.6859999999999786
 21
105.3220000000000027
 31
0.0
  0
LINE
  5
105
100
AcDbEntity
100
AcDbLine
  8
0
 62
0
370
-1
 48
1.0
  6
BYLAYER
 10
293.6859999999999786
 20
105.3220000000000027
 30
0.0
 11
293.4680000000000177
 21
104.8960000000000008
 31
0.0
  0
LINE
  5
106
100
AcDbEntity
100
AcDbLine
  8
0
 62
0
370
-1
 48
1.0
  6
BYLAYER
 10
293.4680000000000177
 20
104.8960000000000008
 30
0.0
 11
293.3949999999999818
 21
104.4260000000000019
 31
0.0
  0
LINE
  5
107
100
AcDbEntity
100
AcDbLine
  8
0
 62
0
370
-1
 48
1.0
  6
BYLAYER
 10
293.3949999999999818
 20
104.4260000000000019
 30
0.0
 11
293.4680000000000177
 21
103.9549999999999983
 31
0.0
  0
LINE
  5
108
100
AcDbEntity
100
AcDbLine
  8
0
 62
0
370
-1
 48
1.0
  6
BYLAYER
 10
293.4680000000000177
 20
103.9549999999999983
 30
0.0
 11
293.6859999999999786
 21
103.5289999999999964
 31
0.0
  0
LINE
  5
109
100
AcDbEntity
100
AcDbLine
  8
0
 62
0
370
-1
 48
1.0
  6
BYLAYER
 10
293.6859999999999786
 20
103.5289999999999964
 30
0.0
 11
294.0219999999999914
 21
103.1919999999999931
 31
0.0
  0
LINE
  5
10A
100
AcDbEntity
100
AcDbLine
  8
0
 62
0
370
-1
 48
1.0
  6
BYLAYER
 10
294.0219999999999914
 20
103.1919999999999931
 30
0.0
 11
294.4479999999999791
 21
102.9740000000000038
 31
0.0
  0
LINE
  5
10B
100
AcDbEntity
100
AcDbLine
  8
0
 62
0
370
-1
 48
1.0
  6
BYLAYER
 10
294.4479999999999791
 20
102.9740000000000038
 30
0.0
 11
294.9189999999999827
 21
102.9000000000000057
 31
0.0
  0
LINE
  5
10C
100
AcDbEntity
100
AcDbLine
  8
0
 62
0
370
-1
 48
1.0
  6
BYLAYER
 10
294.9189999999999827
 20
102.9000000000000057
 30
0.0
 11
295.3910000000000196
 21
102.9740000000000038
 31
0.0
  0
LINE
  5
10D
100
AcDbEntity
100
AcDbLine
  8
0
 62
0
370
-1
 48
1.0
  6
BYLAYER
 10
295.3910000000000196
 20
102.9740000000000038
 30
0.0
 11
295.8149999999999977
 21
103.1919999999999931
 31
0.0
  0
LINE
  5
10E
100
AcDbEntity
100
AcDbLine
  8
0
 62
0
370
-1
 48
1.0
  6
BYLAYER
 10
295.8149999999999977
 20
103.1919999999999931
 30
0.0
 11
296.15300000000002
 21
103.5289999999999964
 31
0.0
  0
LINE
  5
10F
100
AcDbEntity
100
AcDbLine
  8
0
 62
0
370
-1
 48
1.0
  6
BYLAYER
 10
296.15300000000002
 20
103.5289999999999964
 30
0.0
 11
296.3690000000000282
 21
103.9549999999999983
 31
0.0
  0
LINE
  5
110
100
AcDbEntity
100
AcDbLine
  8
0
 62
0
370
-1
 48
1.0
  6
BYLAYER
 10
296.3690000000000282
 20
103.9549999999999983
 30
0.0
 11
296.4449999999999932
 21
104.4260000000000019
 31
0.0
  0
LINE
  5
111
100
AcDbEntity
100
AcDbLine
  8
0
 62
0
370
-1
 48
1.0
  6
BYLAYER
 10
296.4449999999999932
 20
104.4260000000000019
 30
0.0
 11
296.3690000000000282
 21
104.8960000000000008
 31
0.0
  0
LINE
  5
112
100
AcDbEntity
100
AcDbLine
  8
0
 62
0
370
-1
 48
1.0
  6
BYLAYER
 10
296.3690000000000282
 20
104.8960000000000008
 30
0.0
 11
296.15300000000002
 21
105.3220000000000027
 31
0.0
  0
LINE
  5
113
100
AcDbEntity
100
AcDbLine
  8
0
 62
0
370
-1
 48
1.0
  6
BYLAYER
 10
296.15300000000002
 20
105.3220000000000027
 30
0.0
 11
295.8149999999999977
 21
105.6599999999999966
 31
0.0
  0
LINE
  5
114
100
AcDbEntity
100
AcDbLine
  8
0
 62
0
370
-1
 48
1.0
  6
BYLAYER
 10
295.8149999999999977
 20
105.6599999999999966
 30
0.0
 11
295.3910000000000196
 21
105.875
 31
0.0
  0
LINE
  5
115
100
AcDbEntity
100
AcDbLine
  8
0
 62
0
370
-1
 48
1.0
  6
BYLAYER
 10
295.3910000000000196
 20
105.875
 30
0.0
 11
294.9189999999999827
 21
105.9519999999999982
 31
0.0
  0
LINE
  5
116
100
AcDbEntity
100
AcDbLine
  8
0
 62
0
370
-1
 48
1.0
  6
BYLAYER
 10
294.9189999999999827
 20
105.9519999999999982
 30
0.0
 11
294.4479999999999791
 21
105.875
 31
0.0
  0
LINE
  5
117
100
AcDbEntity
100
AcDbLine
  8
0
 62
0
370
-1
 48
1.0
  6
BYLAYER
 10
2.6968200000000002
 20
105.875
 30
0.0
 11
2.2723900000000001
 21
105.6599999999999966
 31
0.0
  0
LINE
  5
118
100
AcDbEntity
100
AcDbLine
  8
0
 62
0
370
-1
 48
1.0
  6
BYLAYER
 10
2.2723900000000001
 20
105.6599999999999966
 30
0.0
 11
1.9347700000000001
 21
105.3220000000000027
 31
0.0
  0
LINE
  5
119
100
AcDbEntity
100
AcDbLine
  8
0
 62
0
370
-1
 48
1.0
  6
BYLAYER
 10
1.9347700000000001
 20
105.3220000000000027
 30
0.0
 11
1.71841
 21
104.8960000000000008
 31
0.0
  0
LINE
  5
11A
100
AcDbEntity
100
AcDbLine
  8
0
 62
0
370
-1
 48
1.0
  6
BYLAYER
 10
1.71841
 20
104.8960000000000008
 30
0.0
 11
1.64262
 21
104.4260000000000019
 31
0.0
  0
LINE
  5
11B
100
AcDbEntity
100
AcDbLine
  8
0
 62
0
370
-1
 48
1.0
  6
BYLAYER
 10
1.64262
 20
104.4260000000000019
 30
0.0
 11
1.71841
 21
103.9549999999999983
 31
0.0
  0
LINE
  5
11C
100
AcDbEntity
100
AcDbLine
  8
0
 62
0
370
-1
 48
1.0
  6
BYLAYER
 10
1.71841
 20
103.9549999999999983
 30
0.0
 11
1.9347700000000001
 21
103.5289999999999964
 31
0.0
  0
LINE
  5
11D
100
AcDbEntity
100
AcDbLine
  8
0
 62
0
370
-1
 48
1.0
  6
BYLAYER
 10
1.9347700000000001
 20
103.5289999999999964
 30
0.0
 11
2.2723900000000001
 21
103.1919999999999931
 31
0.0
  0
LINE
  5
11E
100
AcDbEntity
100
AcDbLine
  8
0
 62
0
370
-1
 48
1.0
  6
BYLAYER
 10
2.2723900000000001
 20
103.1919999999999931
 30
0.0
 11
2.6968200000000002
 21
102.9740000000000038
 31
0.0
  0
LINE
  5
11F
100
AcDbEntity
100
AcDbLine
  8
0
 62
0
370
-1
 48
1.0
  6
BYLAYER
 10
2.6968200000000002
 20
102.9740000000000038
 30
0.0
 11
3.16811
 21
102.9000000000000057
 31
0.0
  0
LINE
  5
120
100
AcDbEntity
100
AcDbLine
  8
0
 62
0
370
-1
 48
1.0
  6
BYLAYER
 10
3.16811
 20
102.9000000000000057
 30
0.0
 11
3.6394000000000002
 21
102.9740000000000038
 31
0.0
  0
LINE
  5
121
100
AcDbEntity
100
AcDbLine
  8
0
 62
0
370
-1
 48
1.0
  6
BYLAYER
 10
3.6394000000000002
 20
102.9740000000000038
 30
0.0
 11
4.0651999999999999
 21
103.1919999999999931
 31
0.0
  0
LINE
  5
122
100
AcDbEntity
100
AcDbLine
  8
0
 62
0
370
-1
 48
1.0
  6
BYLAYER
 10
4.0651999999999999
 20
103.1919999999999931
 30
0.0
 11
4.4014699999999998
 21
103.5289999999999964
 31
0.0
  0
LINE
  5
123
100
AcDbEntity
100
AcDbLine
  8
0
 62
0
370
-1
 48
1.0
  6
BYLAYER
 10
4.4014699999999998
 20
103.5289999999999964
 30
0.0
 11
4.6192000000000002
 21
103.9549999999999983
 31
0.0
  0
LINE
  5
124
100
AcDbEntity
100
AcDbLine
  8
0
 62
0
370
-1
 48
1.0
  6
BYLAYER
 10
4.6192000000000002
 20
103.9549999999999983
 30
0.0
 11
4.6922300000000003
 21
104.4260000000000019
 31
0.0
  0
LINE
  5
125
100
AcDbEntity
100
AcDbLine
  8
0
 62
0
370
-1
 48
1.0
  6
BYLAYER
 10
4.6922300000000003
 20
104.4260000000000019
 30
0.0
 11
4.6192000000000002
 21
104.8960000000000008
 31
0.0
  0
LINE
  5
126
100
AcDbEntity
100
AcDbLine
  8
0
 62
0
370
-1
 48
1.0
  6
BYLAYER
 10
4.6192000000000002
 20
104.8960000000000008
 30
0.0
 11
4.4014699999999998
 21
105.3220000000000027
 31
0.0
  0
LINE
  5
127
100
AcDbEntity
100
AcDbLine
  8
0
 62
0
370
-1
 48
1.0
  6
BYLAYER
 10
4.4014699999999998
 20
105.3220000000000027
 30
0.0
 11
4.0651999999999999
 21
105.6599999999999966
 31
0.0
  0
LINE
  5
128
100
AcDbEntity
100
AcDbLine
  8
0
 62
0
370
-1
 48
1.0
  6
BYLAYER
 10
4.0651999999999999
 20
105.6599999999999966
 30
0.0
 11
3.6394000000000002
 21
105.875
 31
0.0
  0
LINE
  5
129
100
AcDbEntity
100
AcDbLine
  8
0
 62
0
370
-1
 48
1.0
  6
BYLAYER
 10
3.6394000000000002
 20
105.875
 30
0.0
 11
3.16811
 21
105.9500000000000028
 31
0.0
  0
LINE
  5
12A
100
AcDbEntity
100
AcDbLine
  8
0
 62
0
370
-1
 48
1.0
  6
BYLAYER
 10
3.16811
 20
105.9500000000000028
 30
0.0
 11
2.6968200000000002
 21
105.875
 31
0.0
  0
LINE
  5
12B
100
AcDbEntity
100
AcDbLine
  8
0
 62
256
370
-1
 48
1.0
  6
BYLAYER
 10
6.1667299999999994
 20
25.2250000000000014
 30
0.0
 11
6.1667299999999994
 21
6.1749900000000002
 31
0.0
  0
LINE
  5
12C
100
AcDbEntity
100
AcDbLine
  8
0
 62
256
370
-1
 48
1.0
  6
BYLAYER
 10
6.1667299999999994
 20
25.225000000000005
 30
0.0
 11
6.1667299999999994
 21
25.225000000000005
 31
0.0
  0
LINE
  5
12D
100
AcDbEntity
100
AcDbLine
  8
0
 62
256
370
-1
 48
1.0
  6
BYLAYER
 10
6.1667299999999994
 20
25.225000000000005
 30
0.0
 11
6.1667299999999994
 21
25.225000000000005
 31
0.0
  0
LINE
  5
12E
100
AcDbEntity
100
AcDbLine
  8
0
 62
256
370
-1
 48
1.0
  6
BYLAYER
 10
291.9189999999999827
 20
25.225000000000005
 30
0.0
 11
291.9189999999999827
 21
6.1749900000000002
 31
0.0
  0
LINE
  5
12F
100
AcDbEntity
100
AcDbLine
  8
0
 62
256
370
-1
 48
1.0
  6
BYLAYER
 10
277.632000000000005
 20
6.1749900000000002
 30
0.0
 11
291.9189999999999827
 21
6.1749900000000002
 31
0.0
  0
LINE
  5
130
100
AcDbEntity
100
AcDbLine
  8
0
 62
256
370
-1
 48
1.0
  6
BYLAYER
 10
6.1667299999999994
 20
6.1749900000000002
 30
0.0
 11
39.5041000000000011
 21
6.1749900000000002
 31
0.0
  0
ENDSEC
  0
SECTION
  2
OBJECTS
  0
DICTIONARY
  5
C
100
AcDbDictionary
280
0
281
1
  3
ACAD_GROUP
350
D
  3
ACAD_LAYOUT
350
1A
  3
ACAD_MLINESTYLE
350
17
  3
ACAD_PLOTSETTINGS
350
19
  3
ACAD_PLOTSTYLENAME
350
E
  3
AcDbVariableDictionary
350
131
  3
QCAD_OBJECTS
350
132
  0
DICTIONARY
  5
D
100
AcDbDictionary
280
0
281
1
  0
ACDBDICTIONARYWDFLT
  5
E
100
AcDbDictionary
281
1
  3
Normal
350
F
100
AcDbDictionaryWithDefault
340
F
  0
ACDBPLACEHOLDER
  5
F
  0
DICTIONARY
  5
17
100
AcDbDictionary
280
0
281
1
  3
Standard
350
18
  0
MLINESTYLE
  5
18
100
AcDbMlineStyle
  2
STANDARD
 70
0
  3

 62
256
 51
90.0
 52
90.0
 71
2
 49
0.5
 62
256
  6
BYLAYER
 49
-0.5
 62
256
  6
BYLAYER
  0
DICTIONARY
  5
19
100
AcDbDictionary
280
0
281
1
  0
DICTIONARY
  5
1A
100
AcDbDictionary
281
1
  3
Layout1
350
1E
  3
Layout2
350
26
  3
Model
350
22
  0
LAYOUT
  5
1E
100
AcDbPlotSettings
  1

  2
none_device
  4

  6

 40
0.0
 41
0.0
 42
0.0
 43
0.0
 44
0.0
 45
0.0
 46
0.0
 47
0.0
 48
0.0
 49
0.0
140
0.0
141
0.0
142
1.0
143
1.0
 70
688
 72
0
 73
0
 74
5
  7

 75
16
147
1.0
148
0.0
149
0.0
100
AcDbLayout
  1
Layout1
 70
1
 71
1
 10
0.0
 20
0.0
 11
420.0
 21
297.0
 12
0.0
 22
0.0
 32
0.0
 14
100000000000000000000.0
 24
100000000000000000000.0
 34
100000000000000000000.0
 15
-100000000000000000000.0
 25
-100000000000000000000.0
 35
-100000000000000000000.0
146
0.0
 13
0.0
 23
0.0
 33
0.0
 16
1.0
 26
0.0
 36
0.0
 17
0.0
 27
1.0
 37
0.0
 76
0
330
1B
  0
LAYOUT
  5
22
100
AcDbPlotSettings
  1

  2
none_device
  4

  6

 40
0.0
 41
0.0
 42
0.0
 43
0.0
 44
0.0
 45
0.0
 46
0.0
 47
0.0
 48
0.0
 49
0.0
140
0.0
141
0.0
142
1.0
143
1.0
 70
1712
 72
0
 73
0
 74
0
  7

 75
0
147
1.0
148
0.0
149
0.0
100
AcDbLayout
  1
Model
 70
1
 71
0
 10
0.0
 20
0.0
 11
12.0
 21
9.0
 12
0.0
 22
0.0
 32
0.0
 14
0.0
 24
0.0
 34
0.0
 15
0.0
 25
0.0
 35
0.0
146
0.0
 13
0.0
 23
0.0
 33
0.0
 16
1.0
 26
0.0
 36
0.0
 17
0.0
 27
1.0
 37
0.0
 76
0
330
1F
  0
LAYOUT
  5
26
100
AcDbPlotSettings
  1

  2
none_device
  4

  6

 40
0.0
 41
0.0
 42
0.0
 43
0.0
 44
0.0
 45
0.0
 46
0.0
 47
0.0
 48
0.0
 49
0.0
140
0.0
141
0.0
142
1.0
143
1.0
 70
688
 72
0
 73
0
 74
5
  7

 75
16
147
1.0
148
0.0
149
0.0
100
AcDbLayout
  1
Layout2
 70
1
 71
2
 10
0.0
 20
0.0
 11
12.0
 21
9.0
 12
0.0
 22
0.0
 32
0.0
 14
0.0
 24
0.0
 34
0.0
 15
0.0
 25
0.0
 35
0.0
146
0.0
 13
0.0
 23
0.0
 33
0.0
 16
1.0
 26
0.0
 36
0.0
 17
0.0
 27
1.0
 37
0.0
 76
0
330
23
  0
DICTIONARY
  5
131
100
AcDbDictionary
281
1
  3
DIMASSOC
350
134
  3
HIDETEXT
350
133
  0
DICTIONARYVAR
  5
133
100
DictionaryVariables
280
0
  1
2
  0
DICTIONARYVAR
  5
134
100
DictionaryVariables
280
0
  1
1
  0
DICTIONARY
  5
132
100
AcDbDictionary
281
1
  3
ColorSettings/BackgroundColor
350
135
  3
ColorSettings/ColorMode
350
136
  3
Grid/DisplayGrid00
350
137
  3
Grid/DisplayGrid01
350
138
  3
Grid/DisplayGrid02
350
139
  3
Grid/DisplayGrid03
350
13A
  3
Grid/GridSpacingX00
350
13B
  3
Grid/GridSpacingX01
350
13C
  3
Grid/GridSpacingX02
350
13D
  3
Grid/GridSpacingX03
350
13E
  3
Grid/GridSpacingY00
350
13F
  3
Grid/GridSpacingY01
350
140
  3
Grid/GridSpacingY02
350
141
  3
Grid/GridSpacingY03
350
142
  3
Grid/IsometricGrid00
350
143
  3
Grid/IsometricGrid01
350
144
  3
Grid/IsometricGrid02
350
145
  3
Grid/IsometricGrid03
350
146
  3
Grid/IsometricProjection00
350
147
  3
Grid/IsometricProjection01
350
148
  3
Grid/IsometricProjection02
350
149
  3
Grid/IsometricProjection03
350
14A
  3
Grid/MetaGridSpacingX00
350
14B
  3
Grid/MetaGridSpacingX01
350
14C
  3
Grid/MetaGridSpacingX02
350
14D
  3
Grid/MetaGridSpacingX03
350
14E
  3
Grid/MetaGridSpacingY00
350
14F
  3
Grid/MetaGridSpacingY01
350
150
  3
Grid/MetaGridSpacingY02
350
151
  3
Grid/MetaGridSpacingY03
350
152
  3
MultiPageSettings/Columns
350
153
  3
MultiPageSettings/GlueMarginsBottom
350
154
  3
MultiPageSettings/GlueMarginsLeft
350
155
  3
MultiPageSettings/GlueMarginsRight
350
156
  3
MultiPageSettings/GlueMarginsTop
350
157
  3
MultiPageSettings/PrintCropMarks
350
158
  3
MultiPageSettings/Rows
350
159
  3
PageSettings/OffsetX
350
15A
  3
PageSettings/OffsetY
350
15B
  3
PageSettings/PageOrientation
350
15C
  3
PageSettings/PaperHeight
350
15D
  3
PageSettings/PaperWidth
350
15E
  3
PageSettings/Scale
350
15F
  3
PageSettings/ShowPaperBorders
350
160
  3
QCADVersion
350
161
  3
UnitSettings/PaperUnit
350
162
  3
ViewportCenter
350
163
  3
ViewportHeight
350
164
  3
ViewportWidth
350
165
  0
XRECORD
  5
135
330
132
100
AcDbXrecord
280
1
1000
Blanc
  0
XRECORD
  5
136
330
132
100
AcDbXrecord
280
1
1000
FullColor
  0
XRECORD
  5
137
330
132
100
AcDbXrecord
280
1
290
1
  0
XRECORD
  5
138
330
132
100
AcDbXrecord
280
1
290
1
  0
XRECORD
  5
139
330
132
100
AcDbXrecord
280
1
290
1
  0
XRECORD
  5
13A
330
132
100
AcDbXrecord
280
1
290
1
  0
XRECORD
  5
13B
330
132
100
AcDbXrecord
280
1
1000
auto
  0
XRECORD
  5
13C
330
132
100
AcDbXrecord
280
1
1000
auto
  0
XRECORD
  5
13D
330
132
100
AcDbXrecord
280
1
1000
auto
  0
XRECORD
  5
13E
330
132
100
AcDbXrecord
280
1
1000
auto
  0
XRECORD
  5
13F
330
132
100
AcDbXrecord
280
1
1000
auto
  0
XRECORD
  5
140
330
132
100
AcDbXrecord
280
1
1000
auto
  0
XRECORD
  5
141
330
132
100
AcDbXrecord
280
1
1000
auto
  0
XRECORD
  5
142
330
132
100
AcDbXrecord
280
1
1000
auto
  0
XRECORD
  5
143
330
132
100
AcDbXrecord
280
1
290
0
  0
XRECORD
  5
144
330
132
100
AcDbXrecord
280
1
290
0
  0
XRECORD
  5
145
330
132
100
AcDbXrecord
280
1
290
0
  0
XRECORD
  5
146
330
132
100
AcDbXrecord
280
1
290
0
  0
XRECORD
  5
147
330
132
100
AcDbXrecord
280
1
 90
0
  0
XRECORD
  5
148
330
132
100
AcDbXrecord
280
1
 90
0
  0
XRECORD
  5
149
330
132
100
AcDbXrecord
280
1
 90
0
  0
XRECORD
  5
14A
330
132
100
AcDbXrecord
280
1
 90
0
  0
XRECORD
  5
14B
330
132
100
AcDbXrecord
280
1
1000
auto
  0
XRECORD
  5
14C
330
132
100
AcDbXrecord
280
1
1000
auto
  0
XRECORD
  5
14D
330
132
100
AcDbXrecord
280
1
1000
auto
  0
XRECORD
  5
14E
330
132
100
AcDbXrecord
280
1
1000
auto
  0
XRECORD
  5
14F
330
132
100
AcDbXrecord
280
1
1000
auto
  0
XRECORD
  5
150
330
132
100
AcDbXrecord
280
1
1000
auto
  0
XRECORD
  5
151
330
132
100
AcDbXrecord
280
1
1000
auto
  0
XRECORD
  5
152
330
132
100
AcDbXrecord
280
1
1000
auto
  0
XRECORD
  5
153
330
132
100
AcDbXrecord
280
1
 90
1
  0
XRECORD
  5
154
330
132
100
AcDbXrecord
280
1
 40
10.0
  0
XRECORD
  5
155
330
132
100
AcDbXrecord
280
1
 40
10.0
  0
XRECORD
  5
156
330
132
100
AcDbXrecord
280
1
 40
10.0
  0
XRECORD
  5
157
330
132
100
AcDbXrecord
280
1
 40
10.0
  0
XRECORD
  5
158
330
132
100
AcDbXrecord
280
1
290
0
  0
XRECORD
  5
159
330
132
100
AcDbXrecord
280
1
 90
1
  0
XRECORD
  5
15A
330
132
100
AcDbXrecord
280
1
 40
0.0
  0
XRECORD
  5
15B
330
132
100
AcDbXrecord
280
1
 40
0.0
  0
XRECORD
  5
15C
330
132
100
AcDbXrecord
280
1
1000
Portrait
  0
XRECORD
  5
15D
330
132
100
AcDbXrecord
280
1
 40
297.0
  0
XRECORD
  5
15E
330
132
100
AcDbXrecord
280
1
 40
210.0
  0
XRECORD
  5
15F
330
132
100
AcDbXrecord
280
1
1000
1:1
  0
XRECORD
  5
160
330
132
100
AcDbXrecord
280
1
290
1
  0
XRECORD
  5
161
330
132
100
AcDbXrecord
280
1
1000
3.15.5.3
  0
XRECORD
  5
162
330
132
100
AcDbXrecord
280
1
 90
4
  0
XRECORD
  5
164
330
132
100
AcDbXrecord
280
1
 40
119.4725282380313303
  0
XRECORD
  5
165
330
132
100
AcDbXrecord
280
1
 40
531.256111480984373
  0
ENDSEC
  0
EOF
