  0
SECTION
  2
HEADER
  9
$ACADVER
  1
AC1009
  9
$EXTMIN
 10
0.0
 20
0.0
 30
0.0
  9
$EXTMAX
 10
1000.0
 20
1000.0
 30
0.0
  9
$FILLMODE
 70
 0
  9
$SPLFRAME
 70
 1
  0
ENDSEC
  0
SECTION
  2
TABLES
  0
TABLE
  2
LAYER
 70
1
  0
LAYER
  2
0
 70
     0
 62
     7
  6
CONTINUOUS
  0
ENDTAB
  0
ENDSEC
  0
SECTION
  2
ENTITIES
  0
LINE
  8
0
 62
     0
 10
295.994
 20
107.5
 30
0.0
 11
296.151
 21
107.495
 31
0.0
  0
LINE
  8
0
 62
     0
 10
296.151
 20
107.495
 30
0.0
 11
296.307
 21
107.476
 31
0.0
  0
LINE
  8
0
 62
     0
 10
296.307
 20
107.476
 30
0.0
 11
296.46
 21
107.444
 31
0.0
  0
LINE
  8
0
 62
     0
 10
296.46
 20
107.444
 30
0.0
 11
296.613
 21
107.403
 31
0.0
  0
LINE
  8
0
 62
     0
 10
296.613
 20
107.403
 30
0.0
 11
296.759
 21
107.349
 31
0.0
  0
LINE
  8
0
 62
     0
 10
296.759
 20
107.349
 30
0.0
 11
296.901
 21
107.281
 31
0.0
  0
LINE
  8
0
 62
     0
 10
296.901
 20
107.281
 30
0.0
 11
297.039
 21
107.206
 31
0.0
  0
LINE
  8
0
 62
     0
 10
297.039
 20
107.206
 30
0.0
 11
297.17
 21
107.118
 31
0.0
  0
LINE
  8
0
 62
     0
 10
297.17
 20
107.118
 30
0.0
 11
297.293
 21
107.02
 31
0.0
  0
LINE
  8
0
 62
     0
 10
297.293
 20
107.02
 30
0.0
 11
297.408
 21
106.914
 31
0.0
  0
LINE
  8
0
 62
     0
 10
297.408
 20
106.914
 30
0.0
 11
297.514
 21
106.798
 31
0.0
  0
LINE
  8
0
 62
     0
 10
297.514
 20
106.798
 30
0.0
 11
297.612
 21
106.675
 31
0.0
  0
LINE
  8
0
 62
     0
 10
297.612
 20
106.675
 30
0.0
 11
297.7
 21
106.545
 31
0.0
  0
LINE
  8
0
 62
     0
 10
297.7
 20
106.545
 30
0.0
 11
297.776
 21
106.409
 31
0.0
  0
LINE
  8
0
 62
     0
 10
297.776
 20
106.409
 30
0.0
 11
297.842
 21
106.265
 31
0.0
  0
LINE
  8
0
 62
     0
 10
297.842
 20
106.265
 30
0.0
 11
297.898
 21
106.119
 31
0.0
  0
LINE
  8
0
 62
     0
 10
297.898
 20
106.119
 30
0.0
 11
297.939
 21
105.968
 31
0.0
  0
LINE
  8
0
 62
     0
 10
297.939
 20
105.968
 30
0.0
 11
297.969
 21
105.813
 31
0.0
  0
LINE
  8
0
 62
     0
 10
297.969
 20
105.813
 30
0.0
 11
297.988
 21
105.658
 31
0.0
  0
LINE
  8
0
 62
     0
 10
297.988
 20
105.658
 30
0.0
 11
297.995
 21
105.5
 31
0.0
  0
LINE
  8
0
 62
     0
 10
297.995
 20
105.5
 30
0.0
 11
297.995
 21
2.09875
 31
0.0
  0
LINE
  8
0
 62
     0
 10
297.995
 20
2.09875
 30
0.0
 11
297.988
 21
1.94303
 31
0.0
  0
LINE
  8
0
 62
     0
 10
297.988
 20
1.94303
 30
0.0
 11
297.969
 21
1.78594
 31
0.0
  0
LINE
  8
0
 62
     0
 10
297.969
 20
1.78594
 30
0.0
 11
297.939
 21
1.63435
 31
0.0
  0
LINE
  8
0
 62
     0
 10
297.939
 20
1.63435
 30
0.0
 11
297.898
 21
1.48001
 31
0.0
  0
LINE
  8
0
 62
     0
 10
297.898
 20
1.48001
 30
0.0
 11
297.842
 21
1.33394
 31
0.0
  0
LINE
  8
0
 62
     0
 10
297.842
 20
1.33394
 30
0.0
 11
297.776
 21
1.19338
 31
0.0
  0
LINE
  8
0
 62
     0
 10
297.776
 20
1.19338
 30
0.0
 11
297.7
 21
1.0542
 31
0.0
  0
LINE
  8
0
 62
     0
 10
297.7
 20
1.0542
 30
0.0
 11
297.612
 21
0.923286
 31
0.0
  0
LINE
  8
0
 62
     0
 10
297.612
 20
0.923286
 30
0.0
 11
297.514
 21
0.80064
 31
0.0
  0
LINE
  8
0
 62
     0
 10
297.514
 20
0.80064
 30
0.0
 11
297.408
 21
0.684886
 31
0.0
  0
LINE
  8
0
 62
     0
 10
297.408
 20
0.684886
 30
0.0
 11
297.293
 21
0.578778
 31
0.0
  0
LINE
  8
0
 62
     0
 10
297.293
 20
0.578778
 30
0.0
 11
297.17
 21
0.480935
 31
0.0
  0
LINE
  8
0
 62
     0
 10
297.17
 20
0.480935
 30
0.0
 11
297.039
 21
0.39274
 31
0.0
  0
LINE
  8
0
 62
     0
 10
297.039
 20
0.39274
 30
0.0
 11
296.901
 21
0.316949
 31
0.0
  0
LINE
  8
0
 62
     0
 10
296.901
 20
0.316949
 30
0.0
 11
296.759
 21
0.252181
 31
0.0
  0
LINE
  8
0
 62
     0
 10
296.759
 20
0.252181
 30
0.0
 11
296.613
 21
0.195682
 31
0.0
  0
LINE
  8
0
 62
     0
 10
296.613
 20
0.195682
 30
0.0
 11
296.46
 21
0.15434
 31
0.0
  0
LINE
  8
0
 62
     0
 10
296.46
 20
0.15434
 30
0.0
 11
296.307
 21
0.124024
 31
0.0
  0
LINE
  8
0
 62
     0
 10
296.307
 20
0.124024
 30
0.0
 11
296.151
 21
0.106109
 31
0.0
  0
LINE
  8
0
 62
     0
 10
296.151
 20
0.106109
 30
0.0
 11
295.994
 21
0.0992188
 31
0.0
  0
LINE
  8
0
 62
     0
 10
295.994
 20
0.0992188
 30
0.0
 11
2.09324
 21
0.0978408
 31
0.0
  0
LINE
  8
0
 62
     0
 10
2.09324
 20
0.0978408
 30
0.0
 11
1.93614
 21
0.106109
 31
0.0
  0
LINE
  8
0
 62
     0
 10
1.93614
 20
0.106109
 30
0.0
 11
1.78043
 21
0.124024
 31
0.0
  0
LINE
  8
0
 62
     0
 10
1.78043
 20
0.124024
 30
0.0
 11
1.62609
 21
0.15434
 31
0.0
  0
LINE
  8
0
 62
     0
 10
1.62609
 20
0.15434
 30
0.0
 11
1.4745
 21
0.195682
 31
0.0
  0
LINE
  8
0
 62
     0
 10
1.4745
 20
0.195682
 30
0.0
 11
1.32843
 21
0.252181
 31
0.0
  0
LINE
  8
0
 62
     0
 10
1.32843
 20
0.252181
 30
0.0
 11
1.18511
 21
0.316949
 31
0.0
  0
LINE
  8
0
 62
     0
 10
1.18511
 20
0.316949
 30
0.0
 11
1.04869
 21
0.39274
 31
0.0
  0
LINE
  8
0
 62
     0
 10
1.04869
 20
0.39274
 30
0.0
 11
0.917773
 21
0.480935
 31
0.0
  0
LINE
  8
0
 62
     0
 10
0.917773
 20
0.480935
 30
0.0
 11
0.795129
 21
0.578778
 31
0.0
  0
LINE
  8
0
 62
     0
 10
0.795129
 20
0.578778
 30
0.0
 11
0.679372
 21
0.684886
 31
0.0
  0
LINE
  8
0
 62
     0
 10
0.679372
 20
0.684886
 30
0.0
 11
0.573264
 21
0.80064
 31
0.0
  0
LINE
  8
0
 62
     0
 10
0.573264
 20
0.80064
 30
0.0
 11
0.475424
 21
0.923286
 31
0.0
  0
LINE
  8
0
 62
     0
 10
0.475424
 20
0.923286
 30
0.0
 11
0.38723
 21
1.0542
 31
0.0
  0
LINE
  8
0
 62
     0
 10
0.38723
 20
1.0542
 30
0.0
 11
0.311437
 21
1.19338
 31
0.0
  0
LINE
  8
0
 62
     0
 10
0.311437
 20
1.19338
 30
0.0
 11
0.245291
 21
1.33394
 31
0.0
  0
LINE
  8
0
 62
     0
 10
0.245291
 20
1.33394
 30
0.0
 11
0.190169
 21
1.48001
 31
0.0
  0
LINE
  8
0
 62
     0
 10
0.190169
 20
1.48001
 30
0.0
 11
0.148828
 21
1.63435
 31
0.0
  0
LINE
  8
0
 62
     0
 10
0.148828
 20
1.63435
 30
0.0
 11
0.117133
 21
1.78594
 31
0.0
  0
LINE
  8
0
 62
     0
 10
0.117133
 20
1.78594
 30
0.0
 11
0.0992188
 21
1.94303
 31
0.0
  0
LINE
  8
0
 62
     0
 10
0.0992188
 20
1.94303
 30
0.0
 11
0.0923286
 21
2.09875
 31
0.0
  0
LINE
  8
0
 62
     0
 10
0.0923286
 20
2.09875
 30
0.0
 11
0.0937066
 21
105.5
 31
0.0
  0
LINE
  8
0
 62
     0
 10
0.0937066
 20
105.5
 30
0.0
 11
0.0992188
 21
105.658
 31
0.0
  0
LINE
  8
0
 62
     0
 10
0.0992188
 20
105.658
 30
0.0
 11
0.117133
 21
105.813
 31
0.0
  0
LINE
  8
0
 62
     0
 10
0.117133
 20
105.813
 30
0.0
 11
0.148828
 21
105.968
 31
0.0
  0
LINE
  8
0
 62
     0
 10
0.148828
 20
105.968
 30
0.0
 11
0.190169
 21
106.119
 31
0.0
  0
LINE
  8
0
 62
     0
 10
0.190169
 20
106.119
 30
0.0
 11
0.245291
 21
106.265
 31
0.0
  0
LINE
  8
0
 62
     0
 10
0.245291
 20
106.265
 30
0.0
 11
0.311437
 21
106.409
 31
0.0
  0
LINE
  8
0
 62
     0
 10
0.311437
 20
106.409
 30
0.0
 11
0.38723
 21
106.545
 31
0.0
  0
LINE
  8
0
 62
     0
 10
0.38723
 20
106.545
 30
0.0
 11
0.475424
 21
106.675
 31
0.0
  0
LINE
  8
0
 62
     0
 10
0.475424
 20
106.675
 30
0.0
 11
0.573264
 21
106.798
 31
0.0
  0
LINE
  8
0
 62
     0
 10
0.573264
 20
106.798
 30
0.0
 11
0.679372
 21
106.914
 31
0.0
  0
LINE
  8
0
 62
     0
 10
0.679372
 20
106.914
 30
0.0
 11
0.795129
 21
107.02
 31
0.0
  0
LINE
  8
0
 62
     0
 10
0.795129
 20
107.02
 30
0.0
 11
0.917773
 21
107.118
 31
0.0
  0
LINE
  8
0
 62
     0
 10
0.917773
 20
107.118
 30
0.0
 11
1.04869
 21
107.206
 31
0.0
  0
LINE
  8
0
 62
     0
 10
1.04869
 20
107.206
 30
0.0
 11
1.18511
 21
107.281
 31
0.0
  0
LINE
  8
0
 62
     0
 10
1.18511
 20
107.281
 30
0.0
 11
1.32843
 21
107.349
 31
0.0
  0
LINE
  8
0
 62
     0
 10
1.32843
 20
107.349
 30
0.0
 11
1.4745
 21
107.403
 31
0.0
  0
LINE
  8
0
 62
     0
 10
1.4745
 20
107.403
 30
0.0
 11
1.62609
 21
107.444
 31
0.0
  0
LINE
  8
0
 62
     0
 10
1.62609
 20
107.444
 30
0.0
 11
1.78043
 21
107.476
 31
0.0
  0
LINE
  8
0
 62
     0
 10
1.78043
 20
107.476
 30
0.0
 11
1.93614
 21
107.495
 31
0.0
  0
LINE
  8
0
 62
     0
 10
1.93614
 20
107.495
 30
0.0
 11
2.09324
 21
107.501
 31
0.0
  0
LINE
  8
0
 62
     0
 10
2.09324
 20
107.501
 30
0.0
 11
295.994
 21
107.5
 31
0.0
  0
LINE
  8
0
 62
     0
 10
294.448
 20
4.6247
 30
0.0
 11
294.022
 21
4.40697
 31
0.0
  0
LINE
  8
0
 62
     0
 10
294.022
 20
4.40697
 30
0.0
 11
293.686
 21
4.07211
 31
0.0
  0
LINE
  8
0
 62
     0
 10
293.686
 20
4.07211
 30
0.0
 11
293.468
 21
3.64628
 31
0.0
  0
LINE
  8
0
 62
     0
 10
293.468
 20
3.64628
 30
0.0
 11
293.395
 21
3.17638
 31
0.0
  0
LINE
  8
0
 62
     0
 10
293.395
 20
3.17638
 30
0.0
 11
293.468
 21
2.70233
 31
0.0
  0
LINE
  8
0
 62
     0
 10
293.468
 20
2.70233
 30
0.0
 11
293.686
 21
2.27928
 31
0.0
  0
LINE
  8
0
 62
     0
 10
293.686
 20
2.27928
 30
0.0
 11
294.022
 21
1.94166
 31
0.0
  0
LINE
  8
0
 62
     0
 10
294.022
 20
1.94166
 30
0.0
 11
294.448
 21
1.72393
 31
0.0
  0
LINE
  8
0
 62
     0
 10
294.448
 20
1.72393
 30
0.0
 11
294.919
 21
1.64951
 31
0.0
  0
LINE
  8
0
 62
     0
 10
294.919
 20
1.64951
 30
0.0
 11
295.391
 21
1.72393
 31
0.0
  0
LINE
  8
0
 62
     0
 10
295.391
 20
1.72393
 30
0.0
 11
295.815
 21
1.94166
 31
0.0
  0
LINE
  8
0
 62
     0
 10
295.815
 20
1.94166
 30
0.0
 11
296.153
 21
2.27928
 31
0.0
  0
LINE
  8
0
 62
     0
 10
296.153
 20
2.27928
 30
0.0
 11
296.369
 21
2.70233
 31
0.0
  0
LINE
  8
0
 62
     0
 10
296.369
 20
2.70233
 30
0.0
 11
296.445
 21
3.17638
 31
0.0
  0
LINE
  8
0
 62
     0
 10
296.445
 20
3.17638
 30
0.0
 11
296.369
 21
3.64628
 31
0.0
  0
LINE
  8
0
 62
     0
 10
296.369
 20
3.64628
 30
0.0
 11
296.153
 21
4.07211
 31
0.0
  0
LINE
  8
0
 62
     0
 10
296.153
 20
4.07211
 30
0.0
 11
295.815
 21
4.40697
 31
0.0
  0
LINE
  8
0
 62
     0
 10
295.815
 20
4.40697
 30
0.0
 11
295.391
 21
4.6247
 31
0.0
  0
LINE
  8
0
 62
     0
 10
295.391
 20
4.6247
 30
0.0
 11
294.919
 21
4.69911
 31
0.0
  0
LINE
  8
0
 62
     0
 10
294.919
 20
4.69911
 30
0.0
 11
294.448
 21
4.6247
 31
0.0
  0
LINE
  8
0
 62
     0
 10
148.573
 20
4.6247
 30
0.0
 11
148.147
 21
4.40697
 31
0.0
  0
LINE
  8
0
 62
     0
 10
148.147
 20
4.40697
 30
0.0
 11
147.81
 21
4.07211
 31
0.0
  0
LINE
  8
0
 62
     0
 10
147.81
 20
4.07211
 30
0.0
 11
147.593
 21
3.64628
 31
0.0
  0
LINE
  8
0
 62
     0
 10
147.593
 20
3.64628
 30
0.0
 11
147.519
 21
3.17638
 31
0.0
  0
LINE
  8
0
 62
     0
 10
147.519
 20
3.17638
 30
0.0
 11
147.593
 21
2.70233
 31
0.0
  0
LINE
  8
0
 62
     0
 10
147.593
 20
2.70233
 30
0.0
 11
147.81
 21
2.27928
 31
0.0
  0
LINE
  8
0
 62
     0
 10
147.81
 20
2.27928
 30
0.0
 11
148.147
 21
1.94166
 31
0.0
  0
LINE
  8
0
 62
     0
 10
148.147
 20
1.94166
 30
0.0
 11
148.573
 21
1.72393
 31
0.0
  0
LINE
  8
0
 62
     0
 10
148.573
 20
1.72393
 30
0.0
 11
149.043
 21
1.64951
 31
0.0
  0
LINE
  8
0
 62
     0
 10
149.043
 20
1.64951
 30
0.0
 11
149.514
 21
1.72393
 31
0.0
  0
LINE
  8
0
 62
     0
 10
149.514
 20
1.72393
 30
0.0
 11
149.94
 21
1.94166
 31
0.0
  0
LINE
  8
0
 62
     0
 10
149.94
 20
1.94166
 30
0.0
 11
150.278
 21
2.27928
 31
0.0
  0
LINE
  8
0
 62
     0
 10
150.278
 20
2.27928
 30
0.0
 11
150.494
 21
2.70233
 31
0.0
  0
LINE
  8
0
 62
     0
 10
150.494
 20
2.70233
 30
0.0
 11
150.569
 21
3.17638
 31
0.0
  0
LINE
  8
0
 62
     0
 10
150.569
 20
3.17638
 30
0.0
 11
150.494
 21
3.64628
 31
0.0
  0
LINE
  8
0
 62
     0
 10
150.494
 20
3.64628
 30
0.0
 11
150.278
 21
4.07211
 31
0.0
  0
LINE
  8
0
 62
     0
 10
150.278
 20
4.07211
 30
0.0
 11
149.94
 21
4.40697
 31
0.0
  0
LINE
  8
0
 62
     0
 10
149.94
 20
4.40697
 30
0.0
 11
149.514
 21
4.6247
 31
0.0
  0
LINE
  8
0
 62
     0
 10
149.514
 20
4.6247
 30
0.0
 11
149.043
 21
4.69911
 31
0.0
  0
LINE
  8
0
 62
     0
 10
149.043
 20
4.69911
 30
0.0
 11
148.573
 21
4.6247
 31
0.0
  0
LINE
  8
0
 62
     0
 10
2.69682
 20
4.6247
 30
0.0
 11
2.27239
 21
4.40697
 31
0.0
  0
LINE
  8
0
 62
     0
 10
2.27239
 20
4.40697
 30
0.0
 11
1.93477
 21
4.07211
 31
0.0
  0
LINE
  8
0
 62
     0
 10
1.93477
 20
4.07211
 30
0.0
 11
1.71841
 21
3.64628
 31
0.0
  0
LINE
  8
0
 62
     0
 10
1.71841
 20
3.64628
 30
0.0
 11
1.64262
 21
3.17638
 31
0.0
  0
LINE
  8
0
 62
     0
 10
1.64262
 20
3.17638
 30
0.0
 11
1.71841
 21
2.70233
 31
0.0
  0
LINE
  8
0
 62
     0
 10
1.71841
 20
2.70233
 30
0.0
 11
1.93477
 21
2.27928
 31
0.0
  0
LINE
  8
0
 62
     0
 10
1.93477
 20
2.27928
 30
0.0
 11
2.27239
 21
1.94166
 31
0.0
  0
LINE
  8
0
 62
     0
 10
2.27239
 20
1.94166
 30
0.0
 11
2.69682
 21
1.72393
 31
0.0
  0
LINE
  8
0
 62
     0
 10
2.69682
 20
1.72393
 30
0.0
 11
3.16811
 21
1.64951
 31
0.0
  0
LINE
  8
0
 62
     0
 10
3.16811
 20
1.64951
 30
0.0
 11
3.6394
 21
1.72393
 31
0.0
  0
LINE
  8
0
 62
     0
 10
3.6394
 20
1.72393
 30
0.0
 11
4.0652
 21
1.94166
 31
0.0
  0
LINE
  8
0
 62
     0
 10
4.0652
 20
1.94166
 30
0.0
 11
4.40147
 21
2.27928
 31
0.0
  0
LINE
  8
0
 62
     0
 10
4.40147
 20
2.27928
 30
0.0
 11
4.6192
 21
2.70233
 31
0.0
  0
LINE
  8
0
 62
     0
 10
4.6192
 20
2.70233
 30
0.0
 11
4.69223
 21
3.17638
 31
0.0
  0
LINE
  8
0
 62
     0
 10
4.69223
 20
3.17638
 30
0.0
 11
4.6192
 21
3.64628
 31
0.0
  0
LINE
  8
0
 62
     0
 10
4.6192
 20
3.64628
 30
0.0
 11
4.40147
 21
4.07211
 31
0.0
  0
LINE
  8
0
 62
     0
 10
4.40147
 20
4.07211
 30
0.0
 11
4.0652
 21
4.40697
 31
0.0
  0
LINE
  8
0
 62
     0
 10
4.0652
 20
4.40697
 30
0.0
 11
3.6394
 21
4.6247
 31
0.0
  0
LINE
  8
0
 62
     0
 10
3.6394
 20
4.6247
 30
0.0
 11
3.16811
 21
4.69911
 31
0.0
  0
LINE
  8
0
 62
     0
 10
3.16811
 20
4.69911
 30
0.0
 11
2.69682
 21
4.6247
 31
0.0
  0
LINE
  8
0
 62
     0
 10
90.4434
 20
22.0748
 30
0.0
 11
93.5937
 21
22.0748
 31
0.0
  0
LINE
  8
0
 62
     0
 10
93.5937
 20
22.0748
 30
0.0
 11
93.5937
 21
8.02569
 31
0.0
  0
LINE
  8
0
 62
     0
 10
93.5937
 20
8.02569
 30
0.0
 11
90.4434
 21
8.02569
 31
0.0
  0
LINE
  8
0
 62
     0
 10
90.4434
 20
8.02569
 30
0.0
 11
90.4434
 21
22.0748
 31
0.0
  0
LINE
  8
0
 62
     0
 10
185.444
 20
22.0748
 30
0.0
 11
188.594
 21
22.0748
 31
0.0
  0
LINE
  8
0
 62
     0
 10
188.594
 20
22.0748
 30
0.0
 11
188.594
 21
8.02569
 31
0.0
  0
LINE
  8
0
 62
     0
 10
188.594
 20
8.02569
 30
0.0
 11
185.444
 21
8.02569
 31
0.0
  0
LINE
  8
0
 62
     0
 10
185.444
 20
8.02569
 30
0.0
 11
185.444
 21
22.0748
 31
0.0
  0
LINE
  8
0
 62
     0
 10
42.1058
 20
22.626
 30
0.0
 11
42.1058
 21
21.6256
 31
0.0
  0
LINE
  8
0
 62
     0
 10
42.1058
 20
21.6256
 30
0.0
 11
41.3053
 21
21.6256
 31
0.0
  0
LINE
  8
0
 62
     0
 10
41.3053
 20
21.6256
 30
0.0
 11
41.3053
 21
18.6738
 31
0.0
  0
LINE
  8
0
 62
     0
 10
41.3053
 20
18.6738
 30
0.0
 11
42.1058
 21
18.6738
 31
0.0
  0
LINE
  8
0
 62
     0
 10
42.1058
 20
18.6738
 30
0.0
 11
42.1058
 21
12.7248
 31
0.0
  0
LINE
  8
0
 62
     0
 10
42.1058
 20
12.7248
 30
0.0
 11
41.3053
 21
12.7248
 31
0.0
  0
LINE
  8
0
 62
     0
 10
41.3053
 20
12.7248
 30
0.0
 11
41.3053
 21
9.77579
 31
0.0
  0
LINE
  8
0
 62
     0
 10
41.3053
 20
9.77579
 30
0.0
 11
42.1058
 21
9.77579
 31
0.0
  0
LINE
  8
0
 62
     0
 10
42.1058
 20
9.77579
 30
0.0
 11
42.1058
 21
8.77535
 31
0.0
  0
LINE
  8
0
 62
     0
 10
42.1058
 20
8.77535
 30
0.0
 11
55.9551
 21
8.77535
 31
0.0
  0
LINE
  8
0
 62
     0
 10
55.9551
 20
8.77535
 30
0.0
 11
55.9551
 21
9.77579
 31
0.0
  0
LINE
  8
0
 62
     0
 10
55.9551
 20
9.77579
 30
0.0
 11
56.7559
 21
9.77579
 31
0.0
  0
LINE
  8
0
 62
     0
 10
56.7559
 20
9.77579
 30
0.0
 11
56.7559
 21
12.7248
 31
0.0
  0
LINE
  8
0
 62
     0
 10
56.7559
 20
12.7248
 30
0.0
 11
55.9551
 21
12.7248
 31
0.0
  0
LINE
  8
0
 62
     0
 10
55.9551
 20
12.7248
 30
0.0
 11
55.9551
 21
18.6738
 31
0.0
  0
LINE
  8
0
 62
     0
 10
55.9551
 20
18.6738
 30
0.0
 11
56.7559
 21
18.6738
 31
0.0
  0
LINE
  8
0
 62
     0
 10
56.7559
 20
18.6738
 30
0.0
 11
56.7559
 21
21.6256
 31
0.0
  0
LINE
  8
0
 62
     0
 10
56.7559
 20
21.6256
 30
0.0
 11
55.9551
 21
21.6256
 31
0.0
  0
LINE
  8
0
 62
     0
 10
55.9551
 20
21.6256
 30
0.0
 11
55.9551
 21
22.626
 31
0.0
  0
LINE
  8
0
 62
     0
 10
55.9551
 20
22.626
 30
0.0
 11
42.1058
 21
22.626
 31
0.0
  0
LINE
  8
0
 62
     0
 10
63.537
 20
22.626
 30
0.0
 11
63.537
 21
21.6256
 31
0.0
  0
LINE
  8
0
 62
     0
 10
63.537
 20
21.6256
 30
0.0
 11
62.7366
 21
21.6256
 31
0.0
  0
LINE
  8
0
 62
     0
 10
62.7366
 20
21.6256
 30
0.0
 11
62.7366
 21
18.6738
 31
0.0
  0
LINE
  8
0
 62
     0
 10
62.7366
 20
18.6738
 30
0.0
 11
63.537
 21
18.6738
 31
0.0
  0
LINE
  8
0
 62
     0
 10
63.537
 20
18.6738
 30
0.0
 11
63.537
 21
12.7248
 31
0.0
  0
LINE
  8
0
 62
     0
 10
63.537
 20
12.7248
 30
0.0
 11
62.7366
 21
12.7248
 31
0.0
  0
LINE
  8
0
 62
     0
 10
62.7366
 20
12.7248
 30
0.0
 11
62.7366
 21
9.77579
 31
0.0
  0
LINE
  8
0
 62
     0
 10
62.7366
 20
9.77579
 30
0.0
 11
63.537
 21
9.77579
 31
0.0
  0
LINE
  8
0
 62
     0
 10
63.537
 20
9.77579
 30
0.0
 11
63.537
 21
8.77535
 31
0.0
  0
LINE
  8
0
 62
     0
 10
63.537
 20
8.77535
 30
0.0
 11
77.3864
 21
8.77535
 31
0.0
  0
LINE
  8
0
 62
     0
 10
77.3864
 20
8.77535
 30
0.0
 11
77.3864
 21
9.77579
 31
0.0
  0
LINE
  8
0
 62
     0
 10
77.3864
 20
9.77579
 30
0.0
 11
78.1872
 21
9.77579
 31
0.0
  0
LINE
  8
0
 62
     0
 10
78.1872
 20
9.77579
 30
0.0
 11
78.1872
 21
12.7248
 31
0.0
  0
LINE
  8
0
 62
     0
 10
78.1872
 20
12.7248
 30
0.0
 11
77.3864
 21
12.7248
 31
0.0
  0
LINE
  8
0
 62
     0
 10
77.3864
 20
12.7248
 30
0.0
 11
77.3864
 21
18.6738
 31
0.0
  0
LINE
  8
0
 62
     0
 10
77.3864
 20
18.6738
 30
0.0
 11
78.1872
 21
18.6738
 31
0.0
  0
LINE
  8
0
 62
     0
 10
78.1872
 20
18.6738
 30
0.0
 11
78.1872
 21
21.6256
 31
0.0
  0
LINE
  8
0
 62
     0
 10
78.1872
 20
21.6256
 30
0.0
 11
77.3864
 21
21.6256
 31
0.0
  0
LINE
  8
0
 62
     0
 10
77.3864
 20
21.6256
 30
0.0
 11
77.3864
 21
22.626
 31
0.0
  0
LINE
  8
0
 62
     0
 10
77.3864
 20
22.626
 30
0.0
 11
63.537
 21
22.626
 31
0.0
  0
LINE
  8
0
 62
     0
 10
142.118
 20
22.626
 30
0.0
 11
142.118
 21
21.6256
 31
0.0
  0
LINE
  8
0
 62
     0
 10
142.118
 20
21.6256
 30
0.0
 11
141.319
 21
21.6256
 31
0.0
  0
LINE
  8
0
 62
     0
 10
141.319
 20
21.6256
 30
0.0
 11
141.319
 21
18.6738
 31
0.0
  0
LINE
  8
0
 62
     0
 10
141.319
 20
18.6738
 30
0.0
 11
142.118
 21
18.6738
 31
0.0
  0
LINE
  8
0
 62
     0
 10
142.118
 20
18.6738
 30
0.0
 11
142.118
 21
12.7248
 31
0.0
  0
LINE
  8
0
 62
     0
 10
142.118
 20
12.7248
 30
0.0
 11
141.319
 21
12.7248
 31
0.0
  0
LINE
  8
0
 62
     0
 10
141.319
 20
12.7248
 30
0.0
 11
141.319
 21
9.77579
 31
0.0
  0
LINE
  8
0
 62
     0
 10
141.319
 20
9.77579
 30
0.0
 11
142.118
 21
9.77579
 31
0.0
  0
LINE
  8
0
 62
     0
 10
142.118
 20
9.77579
 30
0.0
 11
142.118
 21
8.77535
 31
0.0
  0
LINE
  8
0
 62
     0
 10
142.118
 20
8.77535
 30
0.0
 11
155.969
 21
8.77535
 31
0.0
  0
LINE
  8
0
 62
     0
 10
155.969
 20
8.77535
 30
0.0
 11
155.969
 21
9.77579
 31
0.0
  0
LINE
  8
0
 62
     0
 10
155.969
 20
9.77579
 30
0.0
 11
156.768
 21
9.77579
 31
0.0
  0
LINE
  8
0
 62
     0
 10
156.768
 20
9.77579
 30
0.0
 11
156.768
 21
12.7248
 31
0.0
  0
LINE
  8
0
 62
     0
 10
156.768
 20
12.7248
 30
0.0
 11
155.969
 21
12.7248
 31
0.0
  0
LINE
  8
0
 62
     0
 10
155.969
 20
12.7248
 30
0.0
 11
155.969
 21
18.6738
 31
0.0
  0
LINE
  8
0
 62
     0
 10
155.969
 20
18.6738
 30
0.0
 11
156.768
 21
18.6738
 31
0.0
  0
LINE
  8
0
 62
     0
 10
156.768
 20
18.6738
 30
0.0
 11
156.768
 21
21.6256
 31
0.0
  0
LINE
  8
0
 62
     0
 10
156.768
 20
21.6256
 30
0.0
 11
155.969
 21
21.6256
 31
0.0
  0
LINE
  8
0
 62
     0
 10
155.969
 20
21.6256
 30
0.0
 11
155.969
 21
22.626
 31
0.0
  0
LINE
  8
0
 62
     0
 10
155.969
 20
22.626
 30
0.0
 11
142.118
 21
22.626
 31
0.0
  0
LINE
  8
0
 62
     0
 10
201.65
 20
22.626
 30
0.0
 11
201.65
 21
21.6256
 31
0.0
  0
LINE
  8
0
 62
     0
 10
201.65
 20
21.6256
 30
0.0
 11
200.849
 21
21.6256
 31
0.0
  0
LINE
  8
0
 62
     0
 10
200.849
 20
21.6256
 30
0.0
 11
200.849
 21
18.6738
 31
0.0
  0
LINE
  8
0
 62
     0
 10
200.849
 20
18.6738
 30
0.0
 11
201.65
 21
18.6738
 31
0.0
  0
LINE
  8
0
 62
     0
 10
201.65
 20
18.6738
 30
0.0
 11
201.65
 21
12.7248
 31
0.0
  0
LINE
  8
0
 62
     0
 10
201.65
 20
12.7248
 30
0.0
 11
200.849
 21
12.7248
 31
0.0
  0
LINE
  8
0
 62
     0
 10
200.849
 20
12.7248
 30
0.0
 11
200.849
 21
9.77579
 31
0.0
  0
LINE
  8
0
 62
     0
 10
200.849
 20
9.77579
 30
0.0
 11
201.65
 21
9.77579
 31
0.0
  0
LINE
  8
0
 62
     0
 10
201.65
 20
9.77579
 30
0.0
 11
201.65
 21
8.77535
 31
0.0
  0
LINE
  8
0
 62
     0
 10
201.65
 20
8.77535
 30
0.0
 11
215.5
 21
8.77535
 31
0.0
  0
LINE
  8
0
 62
     0
 10
215.5
 20
8.77535
 30
0.0
 11
215.5
 21
9.77579
 31
0.0
  0
LINE
  8
0
 62
     0
 10
215.5
 20
9.77579
 30
0.0
 11
216.3
 21
9.77579
 31
0.0
  0
LINE
  8
0
 62
     0
 10
216.3
 20
9.77579
 30
0.0
 11
216.3
 21
12.7248
 31
0.0
  0
LINE
  8
0
 62
     0
 10
216.3
 20
12.7248
 30
0.0
 11
215.5
 21
12.7248
 31
0.0
  0
LINE
  8
0
 62
     0
 10
215.5
 20
12.7248
 30
0.0
 11
215.5
 21
18.6738
 31
0.0
  0
LINE
  8
0
 62
     0
 10
215.5
 20
18.6738
 30
0.0
 11
216.3
 21
18.6738
 31
0.0
  0
LINE
  8
0
 62
     0
 10
216.3
 20
18.6738
 30
0.0
 11
216.3
 21
21.6256
 31
0.0
  0
LINE
  8
0
 62
     0
 10
216.3
 20
21.6256
 30
0.0
 11
215.5
 21
21.6256
 31
0.0
  0
LINE
  8
0
 62
     0
 10
215.5
 20
21.6256
 30
0.0
 11
215.5
 21
22.626
 31
0.0
  0
LINE
  8
0
 62
     0
 10
215.5
 20
22.626
 30
0.0
 11
201.65
 21
22.626
 31
0.0
  0
LINE
  8
0
 62
     0
 10
223.081
 20
22.626
 30
0.0
 11
223.081
 21
21.6256
 31
0.0
  0
LINE
  8
0
 62
     0
 10
223.081
 20
21.6256
 30
0.0
 11
222.28
 21
21.6256
 31
0.0
  0
LINE
  8
0
 62
     0
 10
222.28
 20
21.6256
 30
0.0
 11
222.28
 21
18.6738
 31
0.0
  0
LINE
  8
0
 62
     0
 10
222.28
 20
18.6738
 30
0.0
 11
223.081
 21
18.6738
 31
0.0
  0
LINE
  8
0
 62
     0
 10
223.081
 20
18.6738
 30
0.0
 11
223.081
 21
12.7248
 31
0.0
  0
LINE
  8
0
 62
     0
 10
223.081
 20
12.7248
 30
0.0
 11
222.28
 21
12.7248
 31
0.0
  0
LINE
  8
0
 62
     0
 10
222.28
 20
12.7248
 30
0.0
 11
222.28
 21
9.77579
 31
0.0
  0
LINE
  8
0
 62
     0
 10
222.28
 20
9.77579
 30
0.0
 11
223.081
 21
9.77579
 31
0.0
  0
LINE
  8
0
 62
     0
 10
223.081
 20
9.77579
 30
0.0
 11
223.081
 21
8.77535
 31
0.0
  0
LINE
  8
0
 62
     0
 10
223.081
 20
8.77535
 30
0.0
 11
236.93
 21
8.77535
 31
0.0
  0
LINE
  8
0
 62
     0
 10
236.93
 20
8.77535
 30
0.0
 11
236.93
 21
9.77579
 31
0.0
  0
LINE
  8
0
 62
     0
 10
236.93
 20
9.77579
 30
0.0
 11
237.731
 21
9.77579
 31
0.0
  0
LINE
  8
0
 62
     0
 10
237.731
 20
9.77579
 30
0.0
 11
237.731
 21
12.7248
 31
0.0
  0
LINE
  8
0
 62
     0
 10
237.731
 20
12.7248
 30
0.0
 11
236.93
 21
12.7248
 31
0.0
  0
LINE
  8
0
 62
     0
 10
236.93
 20
12.7248
 30
0.0
 11
236.93
 21
18.6738
 31
0.0
  0
LINE
  8
0
 62
     0
 10
236.93
 20
18.6738
 30
0.0
 11
237.731
 21
18.6738
 31
0.0
  0
LINE
  8
0
 62
     0
 10
237.731
 20
18.6738
 30
0.0
 11
237.731
 21
21.6256
 31
0.0
  0
LINE
  8
0
 62
     0
 10
237.731
 20
21.6256
 30
0.0
 11
236.93
 21
21.6256
 31
0.0
  0
LINE
  8
0
 62
     0
 10
236.93
 20
21.6256
 30
0.0
 11
236.93
 21
22.626
 31
0.0
  0
LINE
  8
0
 62
     0
 10
236.93
 20
22.626
 30
0.0
 11
223.081
 21
22.626
 31
0.0
  0
LINE
  8
0
 62
     0
 10
242.131
 20
22.626
 30
0.0
 11
242.131
 21
21.6256
 31
0.0
  0
LINE
  8
0
 62
     0
 10
242.131
 20
21.6256
 30
0.0
 11
241.33
 21
21.6256
 31
0.0
  0
LINE
  8
0
 62
     0
 10
241.33
 20
21.6256
 30
0.0
 11
241.33
 21
18.6738
 31
0.0
  0
LINE
  8
0
 62
     0
 10
241.33
 20
18.6738
 30
0.0
 11
242.131
 21
18.6738
 31
0.0
  0
LINE
  8
0
 62
     0
 10
242.131
 20
18.6738
 30
0.0
 11
242.131
 21
12.7248
 31
0.0
  0
LINE
  8
0
 62
     0
 10
242.131
 20
12.7248
 30
0.0
 11
241.33
 21
12.7248
 31
0.0
  0
LINE
  8
0
 62
     0
 10
241.33
 20
12.7248
 30
0.0
 11
241.33
 21
9.77579
 31
0.0
  0
LINE
  8
0
 62
     0
 10
241.33
 20
9.77579
 30
0.0
 11
242.131
 21
9.77579
 31
0.0
  0
LINE
  8
0
 62
     0
 10
242.131
 20
9.77579
 30
0.0
 11
242.131
 21
8.77535
 31
0.0
  0
LINE
  8
0
 62
     0
 10
242.131
 20
8.77535
 30
0.0
 11
255.98
 21
8.77535
 31
0.0
  0
LINE
  8
0
 62
     0
 10
255.98
 20
8.77535
 30
0.0
 11
255.98
 21
9.77579
 31
0.0
  0
LINE
  8
0
 62
     0
 10
255.98
 20
9.77579
 30
0.0
 11
256.781
 21
9.77579
 31
0.0
  0
LINE
  8
0
 62
     0
 10
256.781
 20
9.77579
 30
0.0
 11
256.781
 21
12.7248
 31
0.0
  0
LINE
  8
0
 62
     0
 10
256.781
 20
12.7248
 30
0.0
 11
255.98
 21
12.7248
 31
0.0
  0
LINE
  8
0
 62
     0
 10
255.98
 20
12.7248
 30
0.0
 11
255.98
 21
18.6738
 31
0.0
  0
LINE
  8
0
 62
     0
 10
255.98
 20
18.6738
 30
0.0
 11
256.781
 21
18.6738
 31
0.0
  0
LINE
  8
0
 62
     0
 10
256.781
 20
18.6738
 30
0.0
 11
256.781
 21
21.6256
 31
0.0
  0
LINE
  8
0
 62
     0
 10
256.781
 20
21.6256
 30
0.0
 11
255.98
 21
21.6256
 31
0.0
  0
LINE
  8
0
 62
     0
 10
255.98
 20
21.6256
 30
0.0
 11
255.98
 21
22.626
 31
0.0
  0
LINE
  8
0
 62
     0
 10
255.98
 20
22.626
 30
0.0
 11
242.131
 21
22.626
 31
0.0
  0
LINE
  8
0
 62
     0
 10
261.181
 20
22.626
 30
0.0
 11
261.181
 21
21.6256
 31
0.0
  0
LINE
  8
0
 62
     0
 10
261.181
 20
21.6256
 30
0.0
 11
260.38
 21
21.6256
 31
0.0
  0
LINE
  8
0
 62
     0
 10
260.38
 20
21.6256
 30
0.0
 11
260.38
 21
18.6738
 31
0.0
  0
LINE
  8
0
 62
     0
 10
260.38
 20
18.6738
 30
0.0
 11
261.181
 21
18.6738
 31
0.0
  0
LINE
  8
0
 62
     0
 10
261.181
 20
18.6738
 30
0.0
 11
261.181
 21
12.7248
 31
0.0
  0
LINE
  8
0
 62
     0
 10
261.181
 20
12.7248
 30
0.0
 11
260.38
 21
12.7248
 31
0.0
  0
LINE
  8
0
 62
     0
 10
260.38
 20
12.7248
 30
0.0
 11
260.38
 21
9.77579
 31
0.0
  0
LINE
  8
0
 62
     0
 10
260.38
 20
9.77579
 30
0.0
 11
261.181
 21
9.77579
 31
0.0
  0
LINE
  8
0
 62
     0
 10
261.181
 20
9.77579
 30
0.0
 11
261.181
 21
8.77535
 31
0.0
  0
LINE
  8
0
 62
     0
 10
261.181
 20
8.77535
 30
0.0
 11
275.03
 21
8.77535
 31
0.0
  0
LINE
  8
0
 62
     0
 10
275.03
 20
8.77535
 30
0.0
 11
275.03
 21
9.77579
 31
0.0
  0
LINE
  8
0
 62
     0
 10
275.03
 20
9.77579
 30
0.0
 11
275.831
 21
9.77579
 31
0.0
  0
LINE
  8
0
 62
     0
 10
275.831
 20
9.77579
 30
0.0
 11
275.831
 21
12.7248
 31
0.0
  0
LINE
  8
0
 62
     0
 10
275.831
 20
12.7248
 30
0.0
 11
275.03
 21
12.7248
 31
0.0
  0
LINE
  8
0
 62
     0
 10
275.03
 20
12.7248
 30
0.0
 11
275.03
 21
18.6738
 31
0.0
  0
LINE
  8
0
 62
     0
 10
275.03
 20
18.6738
 30
0.0
 11
275.831
 21
18.6738
 31
0.0
  0
LINE
  8
0
 62
     0
 10
275.831
 20
18.6738
 30
0.0
 11
275.831
 21
21.6256
 31
0.0
  0
LINE
  8
0
 62
     0
 10
275.831
 20
21.6256
 30
0.0
 11
275.03
 21
21.6256
 31
0.0
  0
LINE
  8
0
 62
     0
 10
275.03
 20
21.6256
 30
0.0
 11
275.03
 21
22.626
 31
0.0
  0
LINE
  8
0
 62
     0
 10
275.03
 20
22.626
 30
0.0
 11
261.181
 21
22.626
 31
0.0
  0
LINE
  8
0
 62
     0
 10
14.1249
 20
41.1247
 30
0.0
 11
17.2751
 21
41.1247
 31
0.0
  0
LINE
  8
0
 62
     0
 10
17.2751
 20
41.1247
 30
0.0
 11
17.2751
 21
27.0757
 31
0.0
  0
LINE
  8
0
 62
     0
 10
17.2751
 20
27.0757
 30
0.0
 11
14.1249
 21
27.0757
 31
0.0
  0
LINE
  8
0
 62
     0
 10
14.1249
 20
27.0757
 30
0.0
 11
14.1249
 21
41.1247
 31
0.0
  0
LINE
  8
0
 62
     0
 10
37.925
 20
41.1247
 30
0.0
 11
41.0753
 21
41.1247
 31
0.0
  0
LINE
  8
0
 62
     0
 10
41.0753
 20
41.1247
 30
0.0
 11
41.0753
 21
27.0757
 31
0.0
  0
LINE
  8
0
 62
     0
 10
41.0753
 20
27.0757
 30
0.0
 11
37.925
 21
27.0757
 31
0.0
  0
LINE
  8
0
 62
     0
 10
37.925
 20
27.0757
 30
0.0
 11
37.925
 21
41.1247
 31
0.0
  0
LINE
  8
0
 62
     0
 10
20.6747
 20
41.6761
 30
0.0
 11
20.6747
 21
40.6756
 31
0.0
  0
LINE
  8
0
 62
     0
 10
20.6747
 20
40.6756
 30
0.0
 11
19.8741
 21
40.6756
 31
0.0
  0
LINE
  8
0
 62
     0
 10
19.8741
 20
40.6756
 30
0.0
 11
19.8741
 21
37.7239
 31
0.0
  0
LINE
  8
0
 62
     0
 10
19.8741
 20
37.7239
 30
0.0
 11
20.6747
 21
37.7239
 31
0.0
  0
LINE
  8
0
 62
     0
 10
20.6747
 20
37.7239
 30
0.0
 11
20.6747
 21
31.7748
 31
0.0
  0
LINE
  8
0
 62
     0
 10
20.6747
 20
31.7748
 30
0.0
 11
19.8741
 21
31.7748
 31
0.0
  0
LINE
  8
0
 62
     0
 10
19.8741
 20
31.7748
 30
0.0
 11
19.8741
 21
28.8258
 31
0.0
  0
LINE
  8
0
 62
     0
 10
19.8741
 20
28.8258
 30
0.0
 11
20.6747
 21
28.8258
 31
0.0
  0
LINE
  8
0
 62
     0
 10
20.6747
 20
28.8258
 30
0.0
 11
20.6747
 21
27.8253
 31
0.0
  0
LINE
  8
0
 62
     0
 10
20.6747
 20
27.8253
 30
0.0
 11
34.5254
 21
27.8253
 31
0.0
  0
LINE
  8
0
 62
     0
 10
34.5254
 20
27.8253
 30
0.0
 11
34.5254
 21
28.8258
 31
0.0
  0
LINE
  8
0
 62
     0
 10
34.5254
 20
28.8258
 30
0.0
 11
35.3247
 21
28.8258
 31
0.0
  0
LINE
  8
0
 62
     0
 10
35.3247
 20
28.8258
 30
0.0
 11
35.3247
 21
31.7748
 31
0.0
  0
LINE
  8
0
 62
     0
 10
35.3247
 20
31.7748
 30
0.0
 11
34.5254
 21
31.7748
 31
0.0
  0
LINE
  8
0
 62
     0
 10
34.5254
 20
31.7748
 30
0.0
 11
34.5254
 21
37.7239
 31
0.0
  0
LINE
  8
0
 62
     0
 10
34.5254
 20
37.7239
 30
0.0
 11
35.3247
 21
37.7239
 31
0.0
  0
LINE
  8
0
 62
     0
 10
35.3247
 20
37.7239
 30
0.0
 11
35.3247
 21
40.6756
 31
0.0
  0
LINE
  8
0
 62
     0
 10
35.3247
 20
40.6756
 30
0.0
 11
34.5254
 21
40.6756
 31
0.0
  0
LINE
  8
0
 62
     0
 10
34.5254
 20
40.6756
 30
0.0
 11
34.5254
 21
41.6761
 31
0.0
  0
LINE
  8
0
 62
     0
 10
34.5254
 20
41.6761
 30
0.0
 11
20.6747
 21
41.6761
 31
0.0
  0
LINE
  8
0
 62
     0
 10
51.6308
 20
41.6761
 30
0.0
 11
51.6308
 21
40.6756
 31
0.0
  0
LINE
  8
0
 62
     0
 10
51.6308
 20
40.6756
 30
0.0
 11
50.8303
 21
40.6756
 31
0.0
  0
LINE
  8
0
 62
     0
 10
50.8303
 20
40.6756
 30
0.0
 11
50.8303
 21
37.7239
 31
0.0
  0
LINE
  8
0
 62
     0
 10
50.8303
 20
37.7239
 30
0.0
 11
51.6308
 21
37.7239
 31
0.0
  0
LINE
  8
0
 62
     0
 10
51.6308
 20
37.7239
 30
0.0
 11
51.6308
 21
31.7748
 31
0.0
  0
LINE
  8
0
 62
     0
 10
51.6308
 20
31.7748
 30
0.0
 11
50.8303
 21
31.7748
 31
0.0
  0
LINE
  8
0
 62
     0
 10
50.8303
 20
31.7748
 30
0.0
 11
50.8303
 21
28.8258
 31
0.0
  0
LINE
  8
0
 62
     0
 10
50.8303
 20
28.8258
 30
0.0
 11
51.6308
 21
28.8258
 31
0.0
  0
LINE
  8
0
 62
     0
 10
51.6308
 20
28.8258
 30
0.0
 11
51.6308
 21
27.8253
 31
0.0
  0
LINE
  8
0
 62
     0
 10
51.6308
 20
27.8253
 30
0.0
 11
65.4801
 21
27.8253
 31
0.0
  0
LINE
  8
0
 62
     0
 10
65.4801
 20
27.8253
 30
0.0
 11
65.4801
 21
28.8258
 31
0.0
  0
LINE
  8
0
 62
     0
 10
65.4801
 20
28.8258
 30
0.0
 11
66.2809
 21
28.8258
 31
0.0
  0
LINE
  8
0
 62
     0
 10
66.2809
 20
28.8258
 30
0.0
 11
66.2809
 21
31.7748
 31
0.0
  0
LINE
  8
0
 62
     0
 10
66.2809
 20
31.7748
 30
0.0
 11
65.4801
 21
31.7748
 31
0.0
  0
LINE
  8
0
 62
     0
 10
65.4801
 20
31.7748
 30
0.0
 11
65.4801
 21
37.7239
 31
0.0
  0
LINE
  8
0
 62
     0
 10
65.4801
 20
37.7239
 30
0.0
 11
66.2809
 21
37.7239
 31
0.0
  0
LINE
  8
0
 62
     0
 10
66.2809
 20
37.7239
 30
0.0
 11
66.2809
 21
40.6756
 31
0.0
  0
LINE
  8
0
 62
     0
 10
66.2809
 20
40.6756
 30
0.0
 11
65.4801
 21
40.6756
 31
0.0
  0
LINE
  8
0
 62
     0
 10
65.4801
 20
40.6756
 30
0.0
 11
65.4801
 21
41.6761
 31
0.0
  0
LINE
  8
0
 62
     0
 10
65.4801
 20
41.6761
 30
0.0
 11
51.6308
 21
41.6761
 31
0.0
  0
LINE
  8
0
 62
     0
 10
70.6808
 20
41.6761
 30
0.0
 11
70.6808
 21
40.6756
 31
0.0
  0
LINE
  8
0
 62
     0
 10
70.6808
 20
40.6756
 30
0.0
 11
69.8803
 21
40.6756
 31
0.0
  0
LINE
  8
0
 62
     0
 10
69.8803
 20
40.6756
 30
0.0
 11
69.8803
 21
37.7239
 31
0.0
  0
LINE
  8
0
 62
     0
 10
69.8803
 20
37.7239
 30
0.0
 11
70.6808
 21
37.7239
 31
0.0
  0
LINE
  8
0
 62
     0
 10
70.6808
 20
37.7239
 30
0.0
 11
70.6808
 21
31.7748
 31
0.0
  0
LINE
  8
0
 62
     0
 10
70.6808
 20
31.7748
 30
0.0
 11
69.8803
 21
31.7748
 31
0.0
  0
LINE
  8
0
 62
     0
 10
69.8803
 20
31.7748
 30
0.0
 11
69.8803
 21
28.8258
 31
0.0
  0
LINE
  8
0
 62
     0
 10
69.8803
 20
28.8258
 30
0.0
 11
70.6808
 21
28.8258
 31
0.0
  0
LINE
  8
0
 62
     0
 10
70.6808
 20
28.8258
 30
0.0
 11
70.6808
 21
27.8253
 31
0.0
  0
LINE
  8
0
 62
     0
 10
70.6808
 20
27.8253
 30
0.0
 11
84.5301
 21
27.8253
 31
0.0
  0
LINE
  8
0
 62
     0
 10
84.5301
 20
27.8253
 30
0.0
 11
84.5301
 21
28.8258
 31
0.0
  0
LINE
  8
0
 62
     0
 10
84.5301
 20
28.8258
 30
0.0
 11
85.3309
 21
28.8258
 31
0.0
  0
LINE
  8
0
 62
     0
 10
85.3309
 20
28.8258
 30
0.0
 11
85.3309
 21
31.7748
 31
0.0
  0
LINE
  8
0
 62
     0
 10
85.3309
 20
31.7748
 30
0.0
 11
84.5301
 21
31.7748
 31
0.0
  0
LINE
  8
0
 62
     0
 10
84.5301
 20
31.7748
 30
0.0
 11
84.5301
 21
37.7239
 31
0.0
  0
LINE
  8
0
 62
     0
 10
84.5301
 20
37.7239
 30
0.0
 11
85.3309
 21
37.7239
 31
0.0
  0
LINE
  8
0
 62
     0
 10
85.3309
 20
37.7239
 30
0.0
 11
85.3309
 21
40.6756
 31
0.0
  0
LINE
  8
0
 62
     0
 10
85.3309
 20
40.6756
 30
0.0
 11
84.5301
 21
40.6756
 31
0.0
  0
LINE
  8
0
 62
     0
 10
84.5301
 20
40.6756
 30
0.0
 11
84.5301
 21
41.6761
 31
0.0
  0
LINE
  8
0
 62
     0
 10
84.5301
 20
41.6761
 30
0.0
 11
70.6808
 21
41.6761
 31
0.0
  0
LINE
  8
0
 62
     0
 10
89.7308
 20
41.6761
 30
0.0
 11
89.7308
 21
40.6756
 31
0.0
  0
LINE
  8
0
 62
     0
 10
89.7308
 20
40.6756
 30
0.0
 11
88.9303
 21
40.6756
 31
0.0
  0
LINE
  8
0
 62
     0
 10
88.9303
 20
40.6756
 30
0.0
 11
88.9303
 21
37.7239
 31
0.0
  0
LINE
  8
0
 62
     0
 10
88.9303
 20
37.7239
 30
0.0
 11
89.7308
 21
37.7239
 31
0.0
  0
LINE
  8
0
 62
     0
 10
89.7308
 20
37.7239
 30
0.0
 11
89.7308
 21
31.7748
 31
0.0
  0
LINE
  8
0
 62
     0
 10
89.7308
 20
31.7748
 30
0.0
 11
88.9303
 21
31.7748
 31
0.0
  0
LINE
  8
0
 62
     0
 10
88.9303
 20
31.7748
 30
0.0
 11
88.9303
 21
28.8258
 31
0.0
  0
LINE
  8
0
 62
     0
 10
88.9303
 20
28.8258
 30
0.0
 11
89.7308
 21
28.8258
 31
0.0
  0
LINE
  8
0
 62
     0
 10
89.7308
 20
28.8258
 30
0.0
 11
89.7308
 21
27.8253
 31
0.0
  0
LINE
  8
0
 62
     0
 10
89.7308
 20
27.8253
 30
0.0
 11
103.58
 21
27.8253
 31
0.0
  0
LINE
  8
0
 62
     0
 10
103.58
 20
27.8253
 30
0.0
 11
103.58
 21
28.8258
 31
0.0
  0
LINE
  8
0
 62
     0
 10
103.58
 20
28.8258
 30
0.0
 11
104.381
 21
28.8258
 31
0.0
  0
LINE
  8
0
 62
     0
 10
104.381
 20
28.8258
 30
0.0
 11
104.381
 21
31.7748
 31
0.0
  0
LINE
  8
0
 62
     0
 10
104.381
 20
31.7748
 30
0.0
 11
103.58
 21
31.7748
 31
0.0
  0
LINE
  8
0
 62
     0
 10
103.58
 20
31.7748
 30
0.0
 11
103.58
 21
37.7239
 31
0.0
  0
LINE
  8
0
 62
     0
 10
103.58
 20
37.7239
 30
0.0
 11
104.381
 21
37.7239
 31
0.0
  0
LINE
  8
0
 62
     0
 10
104.381
 20
37.7239
 30
0.0
 11
104.381
 21
40.6756
 31
0.0
  0
LINE
  8
0
 62
     0
 10
104.381
 20
40.6756
 30
0.0
 11
103.58
 21
40.6756
 31
0.0
  0
LINE
  8
0
 62
     0
 10
103.58
 20
40.6756
 30
0.0
 11
103.58
 21
41.6761
 31
0.0
  0
LINE
  8
0
 62
     0
 10
103.58
 20
41.6761
 30
0.0
 11
89.7308
 21
41.6761
 31
0.0
  0
LINE
  8
0
 62
     0
 10
108.781
 20
41.6761
 30
0.0
 11
108.781
 21
40.6756
 31
0.0
  0
LINE
  8
0
 62
     0
 10
108.781
 20
40.6756
 30
0.0
 11
107.98
 21
40.6756
 31
0.0
  0
LINE
  8
0
 62
     0
 10
107.98
 20
40.6756
 30
0.0
 11
107.98
 21
37.7239
 31
0.0
  0
LINE
  8
0
 62
     0
 10
107.98
 20
37.7239
 30
0.0
 11
108.781
 21
37.7239
 31
0.0
  0
LINE
  8
0
 62
     0
 10
108.781
 20
37.7239
 30
0.0
 11
108.781
 21
31.7748
 31
0.0
  0
LINE
  8
0
 62
     0
 10
108.781
 20
31.7748
 30
0.0
 11
107.98
 21
31.7748
 31
0.0
  0
LINE
  8
0
 62
     0
 10
107.98
 20
31.7748
 30
0.0
 11
107.98
 21
28.8258
 31
0.0
  0
LINE
  8
0
 62
     0
 10
107.98
 20
28.8258
 30
0.0
 11
108.781
 21
28.8258
 31
0.0
  0
LINE
  8
0
 62
     0
 10
108.781
 20
28.8258
 30
0.0
 11
108.781
 21
27.8253
 31
0.0
  0
LINE
  8
0
 62
     0
 10
108.781
 20
27.8253
 30
0.0
 11
122.63
 21
27.8253
 31
0.0
  0
LINE
  8
0
 62
     0
 10
122.63
 20
27.8253
 30
0.0
 11
122.63
 21
28.8258
 31
0.0
  0
LINE
  8
0
 62
     0
 10
122.63
 20
28.8258
 30
0.0
 11
123.43
 21
28.8258
 31
0.0
  0
LINE
  8
0
 62
     0
 10
123.43
 20
28.8258
 30
0.0
 11
123.43
 21
31.7748
 31
0.0
  0
LINE
  8
0
 62
     0
 10
123.43
 20
31.7748
 30
0.0
 11
122.63
 21
31.7748
 31
0.0
  0
LINE
  8
0
 62
     0
 10
122.63
 20
31.7748
 30
0.0
 11
122.63
 21
37.7239
 31
0.0
  0
LINE
  8
0
 62
     0
 10
122.63
 20
37.7239
 30
0.0
 11
123.43
 21
37.7239
 31
0.0
  0
LINE
  8
0
 62
     0
 10
123.43
 20
37.7239
 30
0.0
 11
123.43
 21
40.6756
 31
0.0
  0
LINE
  8
0
 62
     0
 10
123.43
 20
40.6756
 30
0.0
 11
122.63
 21
40.6756
 31
0.0
  0
LINE
  8
0
 62
     0
 10
122.63
 20
40.6756
 30
0.0
 11
122.63
 21
41.6761
 31
0.0
  0
LINE
  8
0
 62
     0
 10
122.63
 20
41.6761
 30
0.0
 11
108.781
 21
41.6761
 31
0.0
  0
LINE
  8
0
 62
     0
 10
127.831
 20
41.6761
 30
0.0
 11
127.831
 21
40.6756
 31
0.0
  0
LINE
  8
0
 62
     0
 10
127.831
 20
40.6756
 30
0.0
 11
127.03
 21
40.6756
 31
0.0
  0
LINE
  8
0
 62
     0
 10
127.03
 20
40.6756
 30
0.0
 11
127.03
 21
37.7239
 31
0.0
  0
LINE
  8
0
 62
     0
 10
127.03
 20
37.7239
 30
0.0
 11
127.831
 21
37.7239
 31
0.0
  0
LINE
  8
0
 62
     0
 10
127.831
 20
37.7239
 30
0.0
 11
127.831
 21
31.7748
 31
0.0
  0
LINE
  8
0
 62
     0
 10
127.831
 20
31.7748
 30
0.0
 11
127.03
 21
31.7748
 31
0.0
  0
LINE
  8
0
 62
     0
 10
127.03
 20
31.7748
 30
0.0
 11
127.03
 21
28.8258
 31
0.0
  0
LINE
  8
0
 62
     0
 10
127.03
 20
28.8258
 30
0.0
 11
127.831
 21
28.8258
 31
0.0
  0
LINE
  8
0
 62
     0
 10
127.831
 20
28.8258
 30
0.0
 11
127.831
 21
27.8253
 31
0.0
  0
LINE
  8
0
 62
     0
 10
127.831
 20
27.8253
 30
0.0
 11
141.68
 21
27.8253
 31
0.0
  0
LINE
  8
0
 62
     0
 10
141.68
 20
27.8253
 30
0.0
 11
141.68
 21
28.8258
 31
0.0
  0
LINE
  8
0
 62
     0
 10
141.68
 20
28.8258
 30
0.0
 11
142.481
 21
28.8258
 31
0.0
  0
LINE
  8
0
 62
     0
 10
142.481
 20
28.8258
 30
0.0
 11
142.481
 21
31.7748
 31
0.0
  0
LINE
  8
0
 62
     0
 10
142.481
 20
31.7748
 30
0.0
 11
141.68
 21
31.7748
 31
0.0
  0
LINE
  8
0
 62
     0
 10
141.68
 20
31.7748
 30
0.0
 11
141.68
 21
37.7239
 31
0.0
  0
LINE
  8
0
 62
     0
 10
141.68
 20
37.7239
 30
0.0
 11
142.481
 21
37.7239
 31
0.0
  0
LINE
  8
0
 62
     0
 10
142.481
 20
37.7239
 30
0.0
 11
142.481
 21
40.6756
 31
0.0
  0
LINE
  8
0
 62
     0
 10
142.481
 20
40.6756
 30
0.0
 11
141.68
 21
40.6756
 31
0.0
  0
LINE
  8
0
 62
     0
 10
141.68
 20
40.6756
 30
0.0
 11
141.68
 21
41.6761
 31
0.0
  0
LINE
  8
0
 62
     0
 10
141.68
 20
41.6761
 30
0.0
 11
127.831
 21
41.6761
 31
0.0
  0
LINE
  8
0
 62
     0
 10
146.881
 20
41.6761
 30
0.0
 11
146.881
 21
40.6756
 31
0.0
  0
LINE
  8
0
 62
     0
 10
146.881
 20
40.6756
 30
0.0
 11
146.08
 21
40.6756
 31
0.0
  0
LINE
  8
0
 62
     0
 10
146.08
 20
40.6756
 30
0.0
 11
146.08
 21
37.7239
 31
0.0
  0
LINE
  8
0
 62
     0
 10
146.08
 20
37.7239
 30
0.0
 11
146.881
 21
37.7239
 31
0.0
  0
LINE
  8
0
 62
     0
 10
146.881
 20
37.7239
 30
0.0
 11
146.881
 21
31.7748
 31
0.0
  0
LINE
  8
0
 62
     0
 10
146.881
 20
31.7748
 30
0.0
 11
146.08
 21
31.7748
 31
0.0
  0
LINE
  8
0
 62
     0
 10
146.08
 20
31.7748
 30
0.0
 11
146.08
 21
28.8258
 31
0.0
  0
LINE
  8
0
 62
     0
 10
146.08
 20
28.8258
 30
0.0
 11
146.881
 21
28.8258
 31
0.0
  0
LINE
  8
0
 62
     0
 10
146.881
 20
28.8258
 30
0.0
 11
146.881
 21
27.8253
 31
0.0
  0
LINE
  8
0
 62
     0
 10
146.881
 20
27.8253
 30
0.0
 11
160.73
 21
27.8253
 31
0.0
  0
LINE
  8
0
 62
     0
 10
160.73
 20
27.8253
 30
0.0
 11
160.73
 21
28.8258
 31
0.0
  0
LINE
  8
0
 62
     0
 10
160.73
 20
28.8258
 30
0.0
 11
161.531
 21
28.8258
 31
0.0
  0
LINE
  8
0
 62
     0
 10
161.531
 20
28.8258
 30
0.0
 11
161.531
 21
31.7748
 31
0.0
  0
LINE
  8
0
 62
     0
 10
161.531
 20
31.7748
 30
0.0
 11
160.73
 21
31.7748
 31
0.0
  0
LINE
  8
0
 62
     0
 10
160.73
 20
31.7748
 30
0.0
 11
160.73
 21
37.7239
 31
0.0
  0
LINE
  8
0
 62
     0
 10
160.73
 20
37.7239
 30
0.0
 11
161.531
 21
37.7239
 31
0.0
  0
LINE
  8
0
 62
     0
 10
161.531
 20
37.7239
 30
0.0
 11
161.531
 21
40.6756
 31
0.0
  0
LINE
  8
0
 62
     0
 10
161.531
 20
40.6756
 30
0.0
 11
160.73
 21
40.6756
 31
0.0
  0
LINE
  8
0
 62
     0
 10
160.73
 20
40.6756
 30
0.0
 11
160.73
 21
41.6761
 31
0.0
  0
LINE
  8
0
 62
     0
 10
160.73
 20
41.6761
 30
0.0
 11
146.881
 21
41.6761
 31
0.0
  0
LINE
  8
0
 62
     0
 10
165.931
 20
41.6761
 30
0.0
 11
165.931
 21
40.6756
 31
0.0
  0
LINE
  8
0
 62
     0
 10
165.931
 20
40.6756
 30
0.0
 11
165.13
 21
40.6756
 31
0.0
  0
LINE
  8
0
 62
     0
 10
165.13
 20
40.6756
 30
0.0
 11
165.13
 21
37.7239
 31
0.0
  0
LINE
  8
0
 62
     0
 10
165.13
 20
37.7239
 30
0.0
 11
165.931
 21
37.7239
 31
0.0
  0
LINE
  8
0
 62
     0
 10
165.931
 20
37.7239
 30
0.0
 11
165.931
 21
31.7748
 31
0.0
  0
LINE
  8
0
 62
     0
 10
165.931
 20
31.7748
 30
0.0
 11
165.13
 21
31.7748
 31
0.0
  0
LINE
  8
0
 62
     0
 10
165.13
 20
31.7748
 30
0.0
 11
165.13
 21
28.8258
 31
0.0
  0
LINE
  8
0
 62
     0
 10
165.13
 20
28.8258
 30
0.0
 11
165.931
 21
28.8258
 31
0.0
  0
LINE
  8
0
 62
     0
 10
165.931
 20
28.8258
 30
0.0
 11
165.931
 21
27.8253
 31
0.0
  0
LINE
  8
0
 62
     0
 10
165.931
 20
27.8253
 30
0.0
 11
179.78
 21
27.8253
 31
0.0
  0
LINE
  8
0
 62
     0
 10
179.78
 20
27.8253
 30
0.0
 11
179.78
 21
28.8258
 31
0.0
  0
LINE
  8
0
 62
     0
 10
179.78
 20
28.8258
 30
0.0
 11
180.581
 21
28.8258
 31
0.0
  0
LINE
  8
0
 62
     0
 10
180.581
 20
28.8258
 30
0.0
 11
180.581
 21
31.7748
 31
0.0
  0
LINE
  8
0
 62
     0
 10
180.581
 20
31.7748
 30
0.0
 11
179.78
 21
31.7748
 31
0.0
  0
LINE
  8
0
 62
     0
 10
179.78
 20
31.7748
 30
0.0
 11
179.78
 21
37.7239
 31
0.0
  0
LINE
  8
0
 62
     0
 10
179.78
 20
37.7239
 30
0.0
 11
180.581
 21
37.7239
 31
0.0
  0
LINE
  8
0
 62
     0
 10
180.581
 20
37.7239
 30
0.0
 11
180.581
 21
40.6756
 31
0.0
  0
LINE
  8
0
 62
     0
 10
180.581
 20
40.6756
 30
0.0
 11
179.78
 21
40.6756
 31
0.0
  0
LINE
  8
0
 62
     0
 10
179.78
 20
40.6756
 30
0.0
 11
179.78
 21
41.6761
 31
0.0
  0
LINE
  8
0
 62
     0
 10
179.78
 20
41.6761
 30
0.0
 11
165.931
 21
41.6761
 31
0.0
  0
LINE
  8
0
 62
     0
 10
184.981
 20
41.6761
 30
0.0
 11
184.981
 21
40.6756
 31
0.0
  0
LINE
  8
0
 62
     0
 10
184.981
 20
40.6756
 30
0.0
 11
184.18
 21
40.6756
 31
0.0
  0
LINE
  8
0
 62
     0
 10
184.18
 20
40.6756
 30
0.0
 11
184.18
 21
37.7239
 31
0.0
  0
LINE
  8
0
 62
     0
 10
184.18
 20
37.7239
 30
0.0
 11
184.981
 21
37.7239
 31
0.0
  0
LINE
  8
0
 62
     0
 10
184.981
 20
37.7239
 30
0.0
 11
184.981
 21
31.7748
 31
0.0
  0
LINE
  8
0
 62
     0
 10
184.981
 20
31.7748
 30
0.0
 11
184.18
 21
31.7748
 31
0.0
  0
LINE
  8
0
 62
     0
 10
184.18
 20
31.7748
 30
0.0
 11
184.18
 21
28.8258
 31
0.0
  0
LINE
  8
0
 62
     0
 10
184.18
 20
28.8258
 30
0.0
 11
184.981
 21
28.8258
 31
0.0
  0
LINE
  8
0
 62
     0
 10
184.981
 20
28.8258
 30
0.0
 11
184.981
 21
27.8253
 31
0.0
  0
LINE
  8
0
 62
     0
 10
184.981
 20
27.8253
 30
0.0
 11
198.83
 21
27.8253
 31
0.0
  0
LINE
  8
0
 62
     0
 10
198.83
 20
27.8253
 30
0.0
 11
198.83
 21
28.8258
 31
0.0
  0
LINE
  8
0
 62
     0
 10
198.83
 20
28.8258
 30
0.0
 11
199.631
 21
28.8258
 31
0.0
  0
LINE
  8
0
 62
     0
 10
199.631
 20
28.8258
 30
0.0
 11
199.631
 21
31.7748
 31
0.0
  0
LINE
  8
0
 62
     0
 10
199.631
 20
31.7748
 30
0.0
 11
198.83
 21
31.7748
 31
0.0
  0
LINE
  8
0
 62
     0
 10
198.83
 20
31.7748
 30
0.0
 11
198.83
 21
37.7239
 31
0.0
  0
LINE
  8
0
 62
     0
 10
198.83
 20
37.7239
 30
0.0
 11
199.631
 21
37.7239
 31
0.0
  0
LINE
  8
0
 62
     0
 10
199.631
 20
37.7239
 30
0.0
 11
199.631
 21
40.6756
 31
0.0
  0
LINE
  8
0
 62
     0
 10
199.631
 20
40.6756
 30
0.0
 11
198.83
 21
40.6756
 31
0.0
  0
LINE
  8
0
 62
     0
 10
198.83
 20
40.6756
 30
0.0
 11
198.83
 21
41.6761
 31
0.0
  0
LINE
  8
0
 62
     0
 10
198.83
 20
41.6761
 30
0.0
 11
184.981
 21
41.6761
 31
0.0
  0
LINE
  8
0
 62
     0
 10
204.031
 20
41.6761
 30
0.0
 11
204.031
 21
40.6756
 31
0.0
  0
LINE
  8
0
 62
     0
 10
204.031
 20
40.6756
 30
0.0
 11
203.23
 21
40.6756
 31
0.0
  0
LINE
  8
0
 62
     0
 10
203.23
 20
40.6756
 30
0.0
 11
203.23
 21
37.7239
 31
0.0
  0
LINE
  8
0
 62
     0
 10
203.23
 20
37.7239
 30
0.0
 11
204.031
 21
37.7239
 31
0.0
  0
LINE
  8
0
 62
     0
 10
204.031
 20
37.7239
 30
0.0
 11
204.031
 21
31.7748
 31
0.0
  0
LINE
  8
0
 62
     0
 10
204.031
 20
31.7748
 30
0.0
 11
203.23
 21
31.7748
 31
0.0
  0
LINE
  8
0
 62
     0
 10
203.23
 20
31.7748
 30
0.0
 11
203.23
 21
28.8258
 31
0.0
  0
LINE
  8
0
 62
     0
 10
203.23
 20
28.8258
 30
0.0
 11
204.031
 21
28.8258
 31
0.0
  0
LINE
  8
0
 62
     0
 10
204.031
 20
28.8258
 30
0.0
 11
204.031
 21
27.8253
 31
0.0
  0
LINE
  8
0
 62
     0
 10
204.031
 20
27.8253
 30
0.0
 11
217.88
 21
27.8253
 31
0.0
  0
LINE
  8
0
 62
     0
 10
217.88
 20
27.8253
 30
0.0
 11
217.88
 21
28.8258
 31
0.0
  0
LINE
  8
0
 62
     0
 10
217.88
 20
28.8258
 30
0.0
 11
218.681
 21
28.8258
 31
0.0
  0
LINE
  8
0
 62
     0
 10
218.681
 20
28.8258
 30
0.0
 11
218.681
 21
31.7748
 31
0.0
  0
LINE
  8
0
 62
     0
 10
218.681
 20
31.7748
 30
0.0
 11
217.88
 21
31.7748
 31
0.0
  0
LINE
  8
0
 62
     0
 10
217.88
 20
31.7748
 30
0.0
 11
217.88
 21
37.7239
 31
0.0
  0
LINE
  8
0
 62
     0
 10
217.88
 20
37.7239
 30
0.0
 11
218.681
 21
37.7239
 31
0.0
  0
LINE
  8
0
 62
     0
 10
218.681
 20
37.7239
 30
0.0
 11
218.681
 21
40.6756
 31
0.0
  0
LINE
  8
0
 62
     0
 10
218.681
 20
40.6756
 30
0.0
 11
217.88
 21
40.6756
 31
0.0
  0
LINE
  8
0
 62
     0
 10
217.88
 20
40.6756
 30
0.0
 11
217.88
 21
41.6761
 31
0.0
  0
LINE
  8
0
 62
     0
 10
217.88
 20
41.6761
 30
0.0
 11
204.031
 21
41.6761
 31
0.0
  0
LINE
  8
0
 62
     0
 10
223.081
 20
41.6761
 30
0.0
 11
223.081
 21
40.6756
 31
0.0
  0
LINE
  8
0
 62
     0
 10
223.081
 20
40.6756
 30
0.0
 11
222.28
 21
40.6756
 31
0.0
  0
LINE
  8
0
 62
     0
 10
222.28
 20
40.6756
 30
0.0
 11
222.28
 21
37.7239
 31
0.0
  0
LINE
  8
0
 62
     0
 10
222.28
 20
37.7239
 30
0.0
 11
223.081
 21
37.7239
 31
0.0
  0
LINE
  8
0
 62
     0
 10
223.081
 20
37.7239
 30
0.0
 11
223.081
 21
31.7748
 31
0.0
  0
LINE
  8
0
 62
     0
 10
223.081
 20
31.7748
 30
0.0
 11
222.28
 21
31.7748
 31
0.0
  0
LINE
  8
0
 62
     0
 10
222.28
 20
31.7748
 30
0.0
 11
222.28
 21
28.8258
 31
0.0
  0
LINE
  8
0
 62
     0
 10
222.28
 20
28.8258
 30
0.0
 11
223.081
 21
28.8258
 31
0.0
  0
LINE
  8
0
 62
     0
 10
223.081
 20
28.8258
 30
0.0
 11
223.081
 21
27.8253
 31
0.0
  0
LINE
  8
0
 62
     0
 10
223.081
 20
27.8253
 30
0.0
 11
236.93
 21
27.8253
 31
0.0
  0
LINE
  8
0
 62
     0
 10
236.93
 20
27.8253
 30
0.0
 11
236.93
 21
28.8258
 31
0.0
  0
LINE
  8
0
 62
     0
 10
236.93
 20
28.8258
 30
0.0
 11
237.731
 21
28.8258
 31
0.0
  0
LINE
  8
0
 62
     0
 10
237.731
 20
28.8258
 30
0.0
 11
237.731
 21
31.7748
 31
0.0
  0
LINE
  8
0
 62
     0
 10
237.731
 20
31.7748
 30
0.0
 11
236.93
 21
31.7748
 31
0.0
  0
LINE
  8
0
 62
     0
 10
236.93
 20
31.7748
 30
0.0
 11
236.93
 21
37.7239
 31
0.0
  0
LINE
  8
0
 62
     0
 10
236.93
 20
37.7239
 30
0.0
 11
237.731
 21
37.7239
 31
0.0
  0
LINE
  8
0
 62
     0
 10
237.731
 20
37.7239
 30
0.0
 11
237.731
 21
40.6756
 31
0.0
  0
LINE
  8
0
 62
     0
 10
237.731
 20
40.6756
 30
0.0
 11
236.93
 21
40.6756
 31
0.0
  0
LINE
  8
0
 62
     0
 10
236.93
 20
40.6756
 30
0.0
 11
236.93
 21
41.6761
 31
0.0
  0
LINE
  8
0
 62
     0
 10
236.93
 20
41.6761
 30
0.0
 11
223.081
 21
41.6761
 31
0.0
  0
LINE
  8
0
 62
     0
 10
242.131
 20
41.6761
 30
0.0
 11
242.131
 21
40.6756
 31
0.0
  0
LINE
  8
0
 62
     0
 10
242.131
 20
40.6756
 30
0.0
 11
241.33
 21
40.6756
 31
0.0
  0
LINE
  8
0
 62
     0
 10
241.33
 20
40.6756
 30
0.0
 11
241.33
 21
37.7239
 31
0.0
  0
LINE
  8
0
 62
     0
 10
241.33
 20
37.7239
 30
0.0
 11
242.131
 21
37.7239
 31
0.0
  0
LINE
  8
0
 62
     0
 10
242.131
 20
37.7239
 30
0.0
 11
242.131
 21
31.7748
 31
0.0
  0
LINE
  8
0
 62
     0
 10
242.131
 20
31.7748
 30
0.0
 11
241.33
 21
31.7748
 31
0.0
  0
LINE
  8
0
 62
     0
 10
241.33
 20
31.7748
 30
0.0
 11
241.33
 21
28.8258
 31
0.0
  0
LINE
  8
0
 62
     0
 10
241.33
 20
28.8258
 30
0.0
 11
242.131
 21
28.8258
 31
0.0
  0
LINE
  8
0
 62
     0
 10
242.131
 20
28.8258
 30
0.0
 11
242.131
 21
27.8253
 31
0.0
  0
LINE
  8
0
 62
     0
 10
242.131
 20
27.8253
 30
0.0
 11
255.98
 21
27.8253
 31
0.0
  0
LINE
  8
0
 62
     0
 10
255.98
 20
27.8253
 30
0.0
 11
255.98
 21
28.8258
 31
0.0
  0
LINE
  8
0
 62
     0
 10
255.98
 20
28.8258
 30
0.0
 11
256.781
 21
28.8258
 31
0.0
  0
LINE
  8
0
 62
     0
 10
256.781
 20
28.8258
 30
0.0
 11
256.781
 21
31.7748
 31
0.0
  0
LINE
  8
0
 62
     0
 10
256.781
 20
31.7748
 30
0.0
 11
255.98
 21
31.7748
 31
0.0
  0
LINE
  8
0
 62
     0
 10
255.98
 20
31.7748
 30
0.0
 11
255.98
 21
37.7239
 31
0.0
  0
LINE
  8
0
 62
     0
 10
255.98
 20
37.7239
 30
0.0
 11
256.781
 21
37.7239
 31
0.0
  0
LINE
  8
0
 62
     0
 10
256.781
 20
37.7239
 30
0.0
 11
256.781
 21
40.6756
 31
0.0
  0
LINE
  8
0
 62
     0
 10
256.781
 20
40.6756
 30
0.0
 11
255.98
 21
40.6756
 31
0.0
  0
LINE
  8
0
 62
     0
 10
255.98
 20
40.6756
 30
0.0
 11
255.98
 21
41.6761
 31
0.0
  0
LINE
  8
0
 62
     0
 10
255.98
 20
41.6761
 30
0.0
 11
242.131
 21
41.6761
 31
0.0
  0
LINE
  8
0
 62
     0
 10
268.325
 20
41.6761
 30
0.0
 11
268.325
 21
40.6756
 31
0.0
  0
LINE
  8
0
 62
     0
 10
268.325
 20
40.6756
 30
0.0
 11
267.524
 21
40.6756
 31
0.0
  0
LINE
  8
0
 62
     0
 10
267.524
 20
40.6756
 30
0.0
 11
267.524
 21
37.7239
 31
0.0
  0
LINE
  8
0
 62
     0
 10
267.524
 20
37.7239
 30
0.0
 11
268.325
 21
37.7239
 31
0.0
  0
LINE
  8
0
 62
     0
 10
268.325
 20
37.7239
 30
0.0
 11
268.325
 21
31.7748
 31
0.0
  0
LINE
  8
0
 62
     0
 10
268.325
 20
31.7748
 30
0.0
 11
267.524
 21
31.7748
 31
0.0
  0
LINE
  8
0
 62
     0
 10
267.524
 20
31.7748
 30
0.0
 11
267.524
 21
28.8258
 31
0.0
  0
LINE
  8
0
 62
     0
 10
267.524
 20
28.8258
 30
0.0
 11
268.325
 21
28.8258
 31
0.0
  0
LINE
  8
0
 62
     0
 10
268.325
 20
28.8258
 30
0.0
 11
268.325
 21
27.8253
 31
0.0
  0
LINE
  8
0
 62
     0
 10
268.325
 20
27.8253
 30
0.0
 11
282.175
 21
27.8253
 31
0.0
  0
LINE
  8
0
 62
     0
 10
282.175
 20
27.8253
 30
0.0
 11
282.175
 21
28.8258
 31
0.0
  0
LINE
  8
0
 62
     0
 10
282.175
 20
28.8258
 30
0.0
 11
282.975
 21
28.8258
 31
0.0
  0
LINE
  8
0
 62
     0
 10
282.975
 20
28.8258
 30
0.0
 11
282.975
 21
31.7748
 31
0.0
  0
LINE
  8
0
 62
     0
 10
282.975
 20
31.7748
 30
0.0
 11
282.175
 21
31.7748
 31
0.0
  0
LINE
  8
0
 62
     0
 10
282.175
 20
31.7748
 30
0.0
 11
282.175
 21
37.7239
 31
0.0
  0
LINE
  8
0
 62
     0
 10
282.175
 20
37.7239
 30
0.0
 11
282.975
 21
37.7239
 31
0.0
  0
LINE
  8
0
 62
     0
 10
282.975
 20
37.7239
 30
0.0
 11
282.975
 21
40.6756
 31
0.0
  0
LINE
  8
0
 62
     0
 10
282.975
 20
40.6756
 30
0.0
 11
282.175
 21
40.6756
 31
0.0
  0
LINE
  8
0
 62
     0
 10
282.175
 20
40.6756
 30
0.0
 11
282.175
 21
41.6761
 31
0.0
  0
LINE
  8
0
 62
     0
 10
282.175
 20
41.6761
 30
0.0
 11
268.325
 21
41.6761
 31
0.0
  0
LINE
  8
0
 62
     0
 10
257.012
 20
60.1747
 30
0.0
 11
260.161
 21
60.1747
 31
0.0
  0
LINE
  8
0
 62
     0
 10
260.161
 20
60.1747
 30
0.0
 11
260.161
 21
46.1257
 31
0.0
  0
LINE
  8
0
 62
     0
 10
260.161
 20
46.1257
 30
0.0
 11
257.012
 21
46.1257
 31
0.0
  0
LINE
  8
0
 62
     0
 10
257.012
 20
46.1257
 30
0.0
 11
257.012
 21
60.1747
 31
0.0
  0
LINE
  8
0
 62
     0
 10
280.811
 20
60.1747
 30
0.0
 11
283.961
 21
60.1747
 31
0.0
  0
LINE
  8
0
 62
     0
 10
283.961
 20
60.1747
 30
0.0
 11
283.961
 21
46.1257
 31
0.0
  0
LINE
  8
0
 62
     0
 10
283.961
 20
46.1257
 30
0.0
 11
280.811
 21
46.1257
 31
0.0
  0
LINE
  8
0
 62
     0
 10
280.811
 20
46.1257
 30
0.0
 11
280.811
 21
60.1747
 31
0.0
  0
LINE
  8
0
 62
     0
 10
11.1497
 20
60.7261
 30
0.0
 11
11.1497
 21
59.7256
 31
0.0
  0
LINE
  8
0
 62
     0
 10
11.1497
 20
59.7256
 30
0.0
 11
10.3491
 21
59.7256
 31
0.0
  0
LINE
  8
0
 62
     0
 10
10.3491
 20
59.7256
 30
0.0
 11
10.3491
 21
56.7739
 31
0.0
  0
LINE
  8
0
 62
     0
 10
10.3491
 20
56.7739
 30
0.0
 11
11.1497
 21
56.7739
 31
0.0
  0
LINE
  8
0
 62
     0
 10
11.1497
 20
56.7739
 30
0.0
 11
11.1497
 21
50.8247
 31
0.0
  0
LINE
  8
0
 62
     0
 10
11.1497
 20
50.8247
 30
0.0
 11
10.3491
 21
50.8247
 31
0.0
  0
LINE
  8
0
 62
     0
 10
10.3491
 20
50.8247
 30
0.0
 11
10.3491
 21
47.8758
 31
0.0
  0
LINE
  8
0
 62
     0
 10
10.3491
 20
47.8758
 30
0.0
 11
11.1497
 21
47.8758
 31
0.0
  0
LINE
  8
0
 62
     0
 10
11.1497
 20
47.8758
 30
0.0
 11
11.1497
 21
46.8753
 31
0.0
  0
LINE
  8
0
 62
     0
 10
11.1497
 20
46.8753
 30
0.0
 11
25.0004
 21
46.8753
 31
0.0
  0
LINE
  8
0
 62
     0
 10
25.0004
 20
46.8753
 30
0.0
 11
25.0004
 21
47.8758
 31
0.0
  0
LINE
  8
0
 62
     0
 10
25.0004
 20
47.8758
 30
0.0
 11
25.7996
 21
47.8758
 31
0.0
  0
LINE
  8
0
 62
     0
 10
25.7996
 20
47.8758
 30
0.0
 11
25.7996
 21
50.8247
 31
0.0
  0
LINE
  8
0
 62
     0
 10
25.7996
 20
50.8247
 30
0.0
 11
25.0004
 21
50.8247
 31
0.0
  0
LINE
  8
0
 62
     0
 10
25.0004
 20
50.8247
 30
0.0
 11
25.0004
 21
56.7739
 31
0.0
  0
LINE
  8
0
 62
     0
 10
25.0004
 20
56.7739
 30
0.0
 11
25.7996
 21
56.7739
 31
0.0
  0
LINE
  8
0
 62
     0
 10
25.7996
 20
56.7739
 30
0.0
 11
25.7996
 21
59.7256
 31
0.0
  0
LINE
  8
0
 62
     0
 10
25.7996
 20
59.7256
 30
0.0
 11
25.0004
 21
59.7256
 31
0.0
  0
LINE
  8
0
 62
     0
 10
25.0004
 20
59.7256
 30
0.0
 11
25.0004
 21
60.7261
 31
0.0
  0
LINE
  8
0
 62
     0
 10
25.0004
 20
60.7261
 30
0.0
 11
11.1497
 21
60.7261
 31
0.0
  0
LINE
  8
0
 62
     0
 10
42.1058
 20
60.7261
 30
0.0
 11
42.1058
 21
59.7256
 31
0.0
  0
LINE
  8
0
 62
     0
 10
42.1058
 20
59.7256
 30
0.0
 11
41.3053
 21
59.7256
 31
0.0
  0
LINE
  8
0
 62
     0
 10
41.3053
 20
59.7256
 30
0.0
 11
41.3053
 21
56.7739
 31
0.0
  0
LINE
  8
0
 62
     0
 10
41.3053
 20
56.7739
 30
0.0
 11
42.1058
 21
56.7739
 31
0.0
  0
LINE
  8
0
 62
     0
 10
42.1058
 20
56.7739
 30
0.0
 11
42.1058
 21
50.8247
 31
0.0
  0
LINE
  8
0
 62
     0
 10
42.1058
 20
50.8247
 30
0.0
 11
41.3053
 21
50.8247
 31
0.0
  0
LINE
  8
0
 62
     0
 10
41.3053
 20
50.8247
 30
0.0
 11
41.3053
 21
47.8758
 31
0.0
  0
LINE
  8
0
 62
     0
 10
41.3053
 20
47.8758
 30
0.0
 11
42.1058
 21
47.8758
 31
0.0
  0
LINE
  8
0
 62
     0
 10
42.1058
 20
47.8758
 30
0.0
 11
42.1058
 21
46.8753
 31
0.0
  0
LINE
  8
0
 62
     0
 10
42.1058
 20
46.8753
 30
0.0
 11
55.9551
 21
46.8753
 31
0.0
  0
LINE
  8
0
 62
     0
 10
55.9551
 20
46.8753
 30
0.0
 11
55.9551
 21
47.8758
 31
0.0
  0
LINE
  8
0
 62
     0
 10
55.9551
 20
47.8758
 30
0.0
 11
56.7559
 21
47.8758
 31
0.0
  0
LINE
  8
0
 62
     0
 10
56.7559
 20
47.8758
 30
0.0
 11
56.7559
 21
50.8247
 31
0.0
  0
LINE
  8
0
 62
     0
 10
56.7559
 20
50.8247
 30
0.0
 11
55.9551
 21
50.8247
 31
0.0
  0
LINE
  8
0
 62
     0
 10
55.9551
 20
50.8247
 30
0.0
 11
55.9551
 21
56.7739
 31
0.0
  0
LINE
  8
0
 62
     0
 10
55.9551
 20
56.7739
 30
0.0
 11
56.7559
 21
56.7739
 31
0.0
  0
LINE
  8
0
 62
     0
 10
56.7559
 20
56.7739
 30
0.0
 11
56.7559
 21
59.7256
 31
0.0
  0
LINE
  8
0
 62
     0
 10
56.7559
 20
59.7256
 30
0.0
 11
55.9551
 21
59.7256
 31
0.0
  0
LINE
  8
0
 62
     0
 10
55.9551
 20
59.7256
 30
0.0
 11
55.9551
 21
60.7261
 31
0.0
  0
LINE
  8
0
 62
     0
 10
55.9551
 20
60.7261
 30
0.0
 11
42.1058
 21
60.7261
 31
0.0
  0
LINE
  8
0
 62
     0
 10
61.1558
 20
60.7261
 30
0.0
 11
61.1558
 21
59.7256
 31
0.0
  0
LINE
  8
0
 62
     0
 10
61.1558
 20
59.7256
 30
0.0
 11
60.3553
 21
59.7256
 31
0.0
  0
LINE
  8
0
 62
     0
 10
60.3553
 20
59.7256
 30
0.0
 11
60.3553
 21
56.7739
 31
0.0
  0
LINE
  8
0
 62
     0
 10
60.3553
 20
56.7739
 30
0.0
 11
61.1558
 21
56.7739
 31
0.0
  0
LINE
  8
0
 62
     0
 10
61.1558
 20
56.7739
 30
0.0
 11
61.1558
 21
50.8247
 31
0.0
  0
LINE
  8
0
 62
     0
 10
61.1558
 20
50.8247
 30
0.0
 11
60.3553
 21
50.8247
 31
0.0
  0
LINE
  8
0
 62
     0
 10
60.3553
 20
50.8247
 30
0.0
 11
60.3553
 21
47.8758
 31
0.0
  0
LINE
  8
0
 62
     0
 10
60.3553
 20
47.8758
 30
0.0
 11
61.1558
 21
47.8758
 31
0.0
  0
LINE
  8
0
 62
     0
 10
61.1558
 20
47.8758
 30
0.0
 11
61.1558
 21
46.8753
 31
0.0
  0
LINE
  8
0
 62
     0
 10
61.1558
 20
46.8753
 30
0.0
 11
75.0051
 21
46.8753
 31
0.0
  0
LINE
  8
0
 62
     0
 10
75.0051
 20
46.8753
 30
0.0
 11
75.0051
 21
47.8758
 31
0.0
  0
LINE
  8
0
 62
     0
 10
75.0051
 20
47.8758
 30
0.0
 11
75.8059
 21
47.8758
 31
0.0
  0
LINE
  8
0
 62
     0
 10
75.8059
 20
47.8758
 30
0.0
 11
75.8059
 21
50.8247
 31
0.0
  0
LINE
  8
0
 62
     0
 10
75.8059
 20
50.8247
 30
0.0
 11
75.0051
 21
50.8247
 31
0.0
  0
LINE
  8
0
 62
     0
 10
75.0051
 20
50.8247
 30
0.0
 11
75.0051
 21
56.7739
 31
0.0
  0
LINE
  8
0
 62
     0
 10
75.0051
 20
56.7739
 30
0.0
 11
75.8059
 21
56.7739
 31
0.0
  0
LINE
  8
0
 62
     0
 10
75.8059
 20
56.7739
 30
0.0
 11
75.8059
 21
59.7256
 31
0.0
  0
LINE
  8
0
 62
     0
 10
75.8059
 20
59.7256
 30
0.0
 11
75.0051
 21
59.7256
 31
0.0
  0
LINE
  8
0
 62
     0
 10
75.0051
 20
59.7256
 30
0.0
 11
75.0051
 21
60.7261
 31
0.0
  0
LINE
  8
0
 62
     0
 10
75.0051
 20
60.7261
 30
0.0
 11
61.1558
 21
60.7261
 31
0.0
  0
LINE
  8
0
 62
     0
 10
80.2058
 20
60.7261
 30
0.0
 11
80.2058
 21
59.7256
 31
0.0
  0
LINE
  8
0
 62
     0
 10
80.2058
 20
59.7256
 30
0.0
 11
79.4053
 21
59.7256
 31
0.0
  0
LINE
  8
0
 62
     0
 10
79.4053
 20
59.7256
 30
0.0
 11
79.4053
 21
56.7739
 31
0.0
  0
LINE
  8
0
 62
     0
 10
79.4053
 20
56.7739
 30
0.0
 11
80.2058
 21
56.7739
 31
0.0
  0
LINE
  8
0
 62
     0
 10
80.2058
 20
56.7739
 30
0.0
 11
80.2058
 21
50.8247
 31
0.0
  0
LINE
  8
0
 62
     0
 10
80.2058
 20
50.8247
 30
0.0
 11
79.4053
 21
50.8247
 31
0.0
  0
LINE
  8
0
 62
     0
 10
79.4053
 20
50.8247
 30
0.0
 11
79.4053
 21
47.8758
 31
0.0
  0
LINE
  8
0
 62
     0
 10
79.4053
 20
47.8758
 30
0.0
 11
80.2058
 21
47.8758
 31
0.0
  0
LINE
  8
0
 62
     0
 10
80.2058
 20
47.8758
 30
0.0
 11
80.2058
 21
46.8753
 31
0.0
  0
LINE
  8
0
 62
     0
 10
80.2058
 20
46.8753
 30
0.0
 11
94.0551
 21
46.8753
 31
0.0
  0
LINE
  8
0
 62
     0
 10
94.0551
 20
46.8753
 30
0.0
 11
94.0551
 21
47.8758
 31
0.0
  0
LINE
  8
0
 62
     0
 10
94.0551
 20
47.8758
 30
0.0
 11
94.8559
 21
47.8758
 31
0.0
  0
LINE
  8
0
 62
     0
 10
94.8559
 20
47.8758
 30
0.0
 11
94.8559
 21
50.8247
 31
0.0
  0
LINE
  8
0
 62
     0
 10
94.8559
 20
50.8247
 30
0.0
 11
94.0551
 21
50.8247
 31
0.0
  0
LINE
  8
0
 62
     0
 10
94.0551
 20
50.8247
 30
0.0
 11
94.0551
 21
56.7739
 31
0.0
  0
LINE
  8
0
 62
     0
 10
94.0551
 20
56.7739
 30
0.0
 11
94.8559
 21
56.7739
 31
0.0
  0
LINE
  8
0
 62
     0
 10
94.8559
 20
56.7739
 30
0.0
 11
94.8559
 21
59.7256
 31
0.0
  0
LINE
  8
0
 62
     0
 10
94.8559
 20
59.7256
 30
0.0
 11
94.0551
 21
59.7256
 31
0.0
  0
LINE
  8
0
 62
     0
 10
94.0551
 20
59.7256
 30
0.0
 11
94.0551
 21
60.7261
 31
0.0
  0
LINE
  8
0
 62
     0
 10
94.0551
 20
60.7261
 30
0.0
 11
80.2058
 21
60.7261
 31
0.0
  0
LINE
  8
0
 62
     0
 10
99.2558
 20
60.7261
 30
0.0
 11
99.2558
 21
59.7256
 31
0.0
  0
LINE
  8
0
 62
     0
 10
99.2558
 20
59.7256
 30
0.0
 11
98.4553
 21
59.7256
 31
0.0
  0
LINE
  8
0
 62
     0
 10
98.4553
 20
59.7256
 30
0.0
 11
98.4553
 21
56.7739
 31
0.0
  0
LINE
  8
0
 62
     0
 10
98.4553
 20
56.7739
 30
0.0
 11
99.2558
 21
56.7739
 31
0.0
  0
LINE
  8
0
 62
     0
 10
99.2558
 20
56.7739
 30
0.0
 11
99.2558
 21
50.8247
 31
0.0
  0
LINE
  8
0
 62
     0
 10
99.2558
 20
50.8247
 30
0.0
 11
98.4553
 21
50.8247
 31
0.0
  0
LINE
  8
0
 62
     0
 10
98.4553
 20
50.8247
 30
0.0
 11
98.4553
 21
47.8758
 31
0.0
  0
LINE
  8
0
 62
     0
 10
98.4553
 20
47.8758
 30
0.0
 11
99.2558
 21
47.8758
 31
0.0
  0
LINE
  8
0
 62
     0
 10
99.2558
 20
47.8758
 30
0.0
 11
99.2558
 21
46.8753
 31
0.0
  0
LINE
  8
0
 62
     0
 10
99.2558
 20
46.8753
 30
0.0
 11
113.105
 21
46.8753
 31
0.0
  0
LINE
  8
0
 62
     0
 10
113.105
 20
46.8753
 30
0.0
 11
113.105
 21
47.8758
 31
0.0
  0
LINE
  8
0
 62
     0
 10
113.105
 20
47.8758
 30
0.0
 11
113.906
 21
47.8758
 31
0.0
  0
LINE
  8
0
 62
     0
 10
113.906
 20
47.8758
 30
0.0
 11
113.906
 21
50.8247
 31
0.0
  0
LINE
  8
0
 62
     0
 10
113.906
 20
50.8247
 30
0.0
 11
113.105
 21
50.8247
 31
0.0
  0
LINE
  8
0
 62
     0
 10
113.105
 20
50.8247
 30
0.0
 11
113.105
 21
56.7739
 31
0.0
  0
LINE
  8
0
 62
     0
 10
113.105
 20
56.7739
 30
0.0
 11
113.906
 21
56.7739
 31
0.0
  0
LINE
  8
0
 62
     0
 10
113.906
 20
56.7739
 30
0.0
 11
113.906
 21
59.7256
 31
0.0
  0
LINE
  8
0
 62
     0
 10
113.906
 20
59.7256
 30
0.0
 11
113.105
 21
59.7256
 31
0.0
  0
LINE
  8
0
 62
     0
 10
113.105
 20
59.7256
 30
0.0
 11
113.105
 21
60.7261
 31
0.0
  0
LINE
  8
0
 62
     0
 10
113.105
 20
60.7261
 30
0.0
 11
99.2558
 21
60.7261
 31
0.0
  0
LINE
  8
0
 62
     0
 10
118.306
 20
60.7261
 30
0.0
 11
118.306
 21
59.7256
 31
0.0
  0
LINE
  8
0
 62
     0
 10
118.306
 20
59.7256
 30
0.0
 11
117.505
 21
59.7256
 31
0.0
  0
LINE
  8
0
 62
     0
 10
117.505
 20
59.7256
 30
0.0
 11
117.505
 21
56.7739
 31
0.0
  0
LINE
  8
0
 62
     0
 10
117.505
 20
56.7739
 30
0.0
 11
118.306
 21
56.7739
 31
0.0
  0
LINE
  8
0
 62
     0
 10
118.306
 20
56.7739
 30
0.0
 11
118.306
 21
50.8247
 31
0.0
  0
LINE
  8
0
 62
     0
 10
118.306
 20
50.8247
 30
0.0
 11
117.505
 21
50.8247
 31
0.0
  0
LINE
  8
0
 62
     0
 10
117.505
 20
50.8247
 30
0.0
 11
117.505
 21
47.8758
 31
0.0
  0
LINE
  8
0
 62
     0
 10
117.505
 20
47.8758
 30
0.0
 11
118.306
 21
47.8758
 31
0.0
  0
LINE
  8
0
 62
     0
 10
118.306
 20
47.8758
 30
0.0
 11
118.306
 21
46.8753
 31
0.0
  0
LINE
  8
0
 62
     0
 10
118.306
 20
46.8753
 30
0.0
 11
132.155
 21
46.8753
 31
0.0
  0
LINE
  8
0
 62
     0
 10
132.155
 20
46.8753
 30
0.0
 11
132.155
 21
47.8758
 31
0.0
  0
LINE
  8
0
 62
     0
 10
132.155
 20
47.8758
 30
0.0
 11
132.956
 21
47.8758
 31
0.0
  0
LINE
  8
0
 62
     0
 10
132.956
 20
47.8758
 30
0.0
 11
132.956
 21
50.8247
 31
0.0
  0
LINE
  8
0
 62
     0
 10
132.956
 20
50.8247
 30
0.0
 11
132.155
 21
50.8247
 31
0.0
  0
LINE
  8
0
 62
     0
 10
132.155
 20
50.8247
 30
0.0
 11
132.155
 21
56.7739
 31
0.0
  0
LINE
  8
0
 62
     0
 10
132.155
 20
56.7739
 30
0.0
 11
132.956
 21
56.7739
 31
0.0
  0
LINE
  8
0
 62
     0
 10
132.956
 20
56.7739
 30
0.0
 11
132.956
 21
59.7256
 31
0.0
  0
LINE
  8
0
 62
     0
 10
132.956
 20
59.7256
 30
0.0
 11
132.155
 21
59.7256
 31
0.0
  0
LINE
  8
0
 62
     0
 10
132.155
 20
59.7256
 30
0.0
 11
132.155
 21
60.7261
 31
0.0
  0
LINE
  8
0
 62
     0
 10
132.155
 20
60.7261
 30
0.0
 11
118.306
 21
60.7261
 31
0.0
  0
LINE
  8
0
 62
     0
 10
137.356
 20
60.7261
 30
0.0
 11
137.356
 21
59.7256
 31
0.0
  0
LINE
  8
0
 62
     0
 10
137.356
 20
59.7256
 30
0.0
 11
136.555
 21
59.7256
 31
0.0
  0
LINE
  8
0
 62
     0
 10
136.555
 20
59.7256
 30
0.0
 11
136.555
 21
56.7739
 31
0.0
  0
LINE
  8
0
 62
     0
 10
136.555
 20
56.7739
 30
0.0
 11
137.356
 21
56.7739
 31
0.0
  0
LINE
  8
0
 62
     0
 10
137.356
 20
56.7739
 30
0.0
 11
137.356
 21
50.8247
 31
0.0
  0
LINE
  8
0
 62
     0
 10
137.356
 20
50.8247
 30
0.0
 11
136.555
 21
50.8247
 31
0.0
  0
LINE
  8
0
 62
     0
 10
136.555
 20
50.8247
 30
0.0
 11
136.555
 21
47.8758
 31
0.0
  0
LINE
  8
0
 62
     0
 10
136.555
 20
47.8758
 30
0.0
 11
137.356
 21
47.8758
 31
0.0
  0
LINE
  8
0
 62
     0
 10
137.356
 20
47.8758
 30
0.0
 11
137.356
 21
46.8753
 31
0.0
  0
LINE
  8
0
 62
     0
 10
137.356
 20
46.8753
 30
0.0
 11
151.205
 21
46.8753
 31
0.0
  0
LINE
  8
0
 62
     0
 10
151.205
 20
46.8753
 30
0.0
 11
151.205
 21
47.8758
 31
0.0
  0
LINE
  8
0
 62
     0
 10
151.205
 20
47.8758
 30
0.0
 11
152.006
 21
47.8758
 31
0.0
  0
LINE
  8
0
 62
     0
 10
152.006
 20
47.8758
 30
0.0
 11
152.006
 21
50.8247
 31
0.0
  0
LINE
  8
0
 62
     0
 10
152.006
 20
50.8247
 30
0.0
 11
151.205
 21
50.8247
 31
0.0
  0
LINE
  8
0
 62
     0
 10
151.205
 20
50.8247
 30
0.0
 11
151.205
 21
56.7739
 31
0.0
  0
LINE
  8
0
 62
     0
 10
151.205
 20
56.7739
 30
0.0
 11
152.006
 21
56.7739
 31
0.0
  0
LINE
  8
0
 62
     0
 10
152.006
 20
56.7739
 30
0.0
 11
152.006
 21
59.7256
 31
0.0
  0
LINE
  8
0
 62
     0
 10
152.006
 20
59.7256
 30
0.0
 11
151.205
 21
59.7256
 31
0.0
  0
LINE
  8
0
 62
     0
 10
151.205
 20
59.7256
 30
0.0
 11
151.205
 21
60.7261
 31
0.0
  0
LINE
  8
0
 62
     0
 10
151.205
 20
60.7261
 30
0.0
 11
137.356
 21
60.7261
 31
0.0
  0
LINE
  8
0
 62
     0
 10
156.406
 20
60.7261
 30
0.0
 11
156.406
 21
59.7256
 31
0.0
  0
LINE
  8
0
 62
     0
 10
156.406
 20
59.7256
 30
0.0
 11
155.605
 21
59.7256
 31
0.0
  0
LINE
  8
0
 62
     0
 10
155.605
 20
59.7256
 30
0.0
 11
155.605
 21
56.7739
 31
0.0
  0
LINE
  8
0
 62
     0
 10
155.605
 20
56.7739
 30
0.0
 11
156.406
 21
56.7739
 31
0.0
  0
LINE
  8
0
 62
     0
 10
156.406
 20
56.7739
 30
0.0
 11
156.406
 21
50.8247
 31
0.0
  0
LINE
  8
0
 62
     0
 10
156.406
 20
50.8247
 30
0.0
 11
155.605
 21
50.8247
 31
0.0
  0
LINE
  8
0
 62
     0
 10
155.605
 20
50.8247
 30
0.0
 11
155.605
 21
47.8758
 31
0.0
  0
LINE
  8
0
 62
     0
 10
155.605
 20
47.8758
 30
0.0
 11
156.406
 21
47.8758
 31
0.0
  0
LINE
  8
0
 62
     0
 10
156.406
 20
47.8758
 30
0.0
 11
156.406
 21
46.8753
 31
0.0
  0
LINE
  8
0
 62
     0
 10
156.406
 20
46.8753
 30
0.0
 11
170.255
 21
46.8753
 31
0.0
  0
LINE
  8
0
 62
     0
 10
170.255
 20
46.8753
 30
0.0
 11
170.255
 21
47.8758
 31
0.0
  0
LINE
  8
0
 62
     0
 10
170.255
 20
47.8758
 30
0.0
 11
171.056
 21
47.8758
 31
0.0
  0
LINE
  8
0
 62
     0
 10
171.056
 20
47.8758
 30
0.0
 11
171.056
 21
50.8247
 31
0.0
  0
LINE
  8
0
 62
     0
 10
171.056
 20
50.8247
 30
0.0
 11
170.255
 21
50.8247
 31
0.0
  0
LINE
  8
0
 62
     0
 10
170.255
 20
50.8247
 30
0.0
 11
170.255
 21
56.7739
 31
0.0
  0
LINE
  8
0
 62
     0
 10
170.255
 20
56.7739
 30
0.0
 11
171.056
 21
56.7739
 31
0.0
  0
LINE
  8
0
 62
     0
 10
171.056
 20
56.7739
 30
0.0
 11
171.056
 21
59.7256
 31
0.0
  0
LINE
  8
0
 62
     0
 10
171.056
 20
59.7256
 30
0.0
 11
170.255
 21
59.7256
 31
0.0
  0
LINE
  8
0
 62
     0
 10
170.255
 20
59.7256
 30
0.0
 11
170.255
 21
60.7261
 31
0.0
  0
LINE
  8
0
 62
     0
 10
170.255
 20
60.7261
 30
0.0
 11
156.406
 21
60.7261
 31
0.0
  0
LINE
  8
0
 62
     0
 10
175.456
 20
60.7261
 30
0.0
 11
175.456
 21
59.7256
 31
0.0
  0
LINE
  8
0
 62
     0
 10
175.456
 20
59.7256
 30
0.0
 11
174.655
 21
59.7256
 31
0.0
  0
LINE
  8
0
 62
     0
 10
174.655
 20
59.7256
 30
0.0
 11
174.655
 21
56.7739
 31
0.0
  0
LINE
  8
0
 62
     0
 10
174.655
 20
56.7739
 30
0.0
 11
175.456
 21
56.7739
 31
0.0
  0
LINE
  8
0
 62
     0
 10
175.456
 20
56.7739
 30
0.0
 11
175.456
 21
50.8247
 31
0.0
  0
LINE
  8
0
 62
     0
 10
175.456
 20
50.8247
 30
0.0
 11
174.655
 21
50.8247
 31
0.0
  0
LINE
  8
0
 62
     0
 10
174.655
 20
50.8247
 30
0.0
 11
174.655
 21
47.8758
 31
0.0
  0
LINE
  8
0
 62
     0
 10
174.655
 20
47.8758
 30
0.0
 11
175.456
 21
47.8758
 31
0.0
  0
LINE
  8
0
 62
     0
 10
175.456
 20
47.8758
 30
0.0
 11
175.456
 21
46.8753
 31
0.0
  0
LINE
  8
0
 62
     0
 10
175.456
 20
46.8753
 30
0.0
 11
189.305
 21
46.8753
 31
0.0
  0
LINE
  8
0
 62
     0
 10
189.305
 20
46.8753
 30
0.0
 11
189.305
 21
47.8758
 31
0.0
  0
LINE
  8
0
 62
     0
 10
189.305
 20
47.8758
 30
0.0
 11
190.106
 21
47.8758
 31
0.0
  0
LINE
  8
0
 62
     0
 10
190.106
 20
47.8758
 30
0.0
 11
190.106
 21
50.8247
 31
0.0
  0
LINE
  8
0
 62
     0
 10
190.106
 20
50.8247
 30
0.0
 11
189.305
 21
50.8247
 31
0.0
  0
LINE
  8
0
 62
     0
 10
189.305
 20
50.8247
 30
0.0
 11
189.305
 21
56.7739
 31
0.0
  0
LINE
  8
0
 62
     0
 10
189.305
 20
56.7739
 30
0.0
 11
190.106
 21
56.7739
 31
0.0
  0
LINE
  8
0
 62
     0
 10
190.106
 20
56.7739
 30
0.0
 11
190.106
 21
59.7256
 31
0.0
  0
LINE
  8
0
 62
     0
 10
190.106
 20
59.7256
 30
0.0
 11
189.305
 21
59.7256
 31
0.0
  0
LINE
  8
0
 62
     0
 10
189.305
 20
59.7256
 30
0.0
 11
189.305
 21
60.7261
 31
0.0
  0
LINE
  8
0
 62
     0
 10
189.305
 20
60.7261
 30
0.0
 11
175.456
 21
60.7261
 31
0.0
  0
LINE
  8
0
 62
     0
 10
194.506
 20
60.7261
 30
0.0
 11
194.506
 21
59.7256
 31
0.0
  0
LINE
  8
0
 62
     0
 10
194.506
 20
59.7256
 30
0.0
 11
193.705
 21
59.7256
 31
0.0
  0
LINE
  8
0
 62
     0
 10
193.705
 20
59.7256
 30
0.0
 11
193.705
 21
56.7739
 31
0.0
  0
LINE
  8
0
 62
     0
 10
193.705
 20
56.7739
 30
0.0
 11
194.506
 21
56.7739
 31
0.0
  0
LINE
  8
0
 62
     0
 10
194.506
 20
56.7739
 30
0.0
 11
194.506
 21
50.8247
 31
0.0
  0
LINE
  8
0
 62
     0
 10
194.506
 20
50.8247
 30
0.0
 11
193.705
 21
50.8247
 31
0.0
  0
LINE
  8
0
 62
     0
 10
193.705
 20
50.8247
 30
0.0
 11
193.705
 21
47.8758
 31
0.0
  0
LINE
  8
0
 62
     0
 10
193.705
 20
47.8758
 30
0.0
 11
194.506
 21
47.8758
 31
0.0
  0
LINE
  8
0
 62
     0
 10
194.506
 20
47.8758
 30
0.0
 11
194.506
 21
46.8753
 31
0.0
  0
LINE
  8
0
 62
     0
 10
194.506
 20
46.8753
 30
0.0
 11
208.355
 21
46.8753
 31
0.0
  0
LINE
  8
0
 62
     0
 10
208.355
 20
46.8753
 30
0.0
 11
208.355
 21
47.8758
 31
0.0
  0
LINE
  8
0
 62
     0
 10
208.355
 20
47.8758
 30
0.0
 11
209.156
 21
47.8758
 31
0.0
  0
LINE
  8
0
 62
     0
 10
209.156
 20
47.8758
 30
0.0
 11
209.156
 21
50.8247
 31
0.0
  0
LINE
  8
0
 62
     0
 10
209.156
 20
50.8247
 30
0.0
 11
208.355
 21
50.8247
 31
0.0
  0
LINE
  8
0
 62
     0
 10
208.355
 20
50.8247
 30
0.0
 11
208.355
 21
56.7739
 31
0.0
  0
LINE
  8
0
 62
     0
 10
208.355
 20
56.7739
 30
0.0
 11
209.156
 21
56.7739
 31
0.0
  0
LINE
  8
0
 62
     0
 10
209.156
 20
56.7739
 30
0.0
 11
209.156
 21
59.7256
 31
0.0
  0
LINE
  8
0
 62
     0
 10
209.156
 20
59.7256
 30
0.0
 11
208.355
 21
59.7256
 31
0.0
  0
LINE
  8
0
 62
     0
 10
208.355
 20
59.7256
 30
0.0
 11
208.355
 21
60.7261
 31
0.0
  0
LINE
  8
0
 62
     0
 10
208.355
 20
60.7261
 30
0.0
 11
194.506
 21
60.7261
 31
0.0
  0
LINE
  8
0
 62
     0
 10
213.556
 20
60.7261
 30
0.0
 11
213.556
 21
59.7256
 31
0.0
  0
LINE
  8
0
 62
     0
 10
213.556
 20
59.7256
 30
0.0
 11
212.755
 21
59.7256
 31
0.0
  0
LINE
  8
0
 62
     0
 10
212.755
 20
59.7256
 30
0.0
 11
212.755
 21
56.7739
 31
0.0
  0
LINE
  8
0
 62
     0
 10
212.755
 20
56.7739
 30
0.0
 11
213.556
 21
56.7739
 31
0.0
  0
LINE
  8
0
 62
     0
 10
213.556
 20
56.7739
 30
0.0
 11
213.556
 21
50.8247
 31
0.0
  0
LINE
  8
0
 62
     0
 10
213.556
 20
50.8247
 30
0.0
 11
212.755
 21
50.8247
 31
0.0
  0
LINE
  8
0
 62
     0
 10
212.755
 20
50.8247
 30
0.0
 11
212.755
 21
47.8758
 31
0.0
  0
LINE
  8
0
 62
     0
 10
212.755
 20
47.8758
 30
0.0
 11
213.556
 21
47.8758
 31
0.0
  0
LINE
  8
0
 62
     0
 10
213.556
 20
47.8758
 30
0.0
 11
213.556
 21
46.8753
 31
0.0
  0
LINE
  8
0
 62
     0
 10
213.556
 20
46.8753
 30
0.0
 11
227.405
 21
46.8753
 31
0.0
  0
LINE
  8
0
 62
     0
 10
227.405
 20
46.8753
 30
0.0
 11
227.405
 21
47.8758
 31
0.0
  0
LINE
  8
0
 62
     0
 10
227.405
 20
47.8758
 30
0.0
 11
228.206
 21
47.8758
 31
0.0
  0
LINE
  8
0
 62
     0
 10
228.206
 20
47.8758
 30
0.0
 11
228.206
 21
50.8247
 31
0.0
  0
LINE
  8
0
 62
     0
 10
228.206
 20
50.8247
 30
0.0
 11
227.405
 21
50.8247
 31
0.0
  0
LINE
  8
0
 62
     0
 10
227.405
 20
50.8247
 30
0.0
 11
227.405
 21
56.7739
 31
0.0
  0
LINE
  8
0
 62
     0
 10
227.405
 20
56.7739
 30
0.0
 11
228.206
 21
56.7739
 31
0.0
  0
LINE
  8
0
 62
     0
 10
228.206
 20
56.7739
 30
0.0
 11
228.206
 21
59.7256
 31
0.0
  0
LINE
  8
0
 62
     0
 10
228.206
 20
59.7256
 30
0.0
 11
227.405
 21
59.7256
 31
0.0
  0
LINE
  8
0
 62
     0
 10
227.405
 20
59.7256
 30
0.0
 11
227.405
 21
60.7261
 31
0.0
  0
LINE
  8
0
 62
     0
 10
227.405
 20
60.7261
 30
0.0
 11
213.556
 21
60.7261
 31
0.0
  0
LINE
  8
0
 62
     0
 10
232.606
 20
60.7261
 30
0.0
 11
232.606
 21
59.7256
 31
0.0
  0
LINE
  8
0
 62
     0
 10
232.606
 20
59.7256
 30
0.0
 11
231.805
 21
59.7256
 31
0.0
  0
LINE
  8
0
 62
     0
 10
231.805
 20
59.7256
 30
0.0
 11
231.805
 21
56.7739
 31
0.0
  0
LINE
  8
0
 62
     0
 10
231.805
 20
56.7739
 30
0.0
 11
232.606
 21
56.7739
 31
0.0
  0
LINE
  8
0
 62
     0
 10
232.606
 20
56.7739
 30
0.0
 11
232.606
 21
50.8247
 31
0.0
  0
LINE
  8
0
 62
     0
 10
232.606
 20
50.8247
 30
0.0
 11
231.805
 21
50.8247
 31
0.0
  0
LINE
  8
0
 62
     0
 10
231.805
 20
50.8247
 30
0.0
 11
231.805
 21
47.8758
 31
0.0
  0
LINE
  8
0
 62
     0
 10
231.805
 20
47.8758
 30
0.0
 11
232.606
 21
47.8758
 31
0.0
  0
LINE
  8
0
 62
     0
 10
232.606
 20
47.8758
 30
0.0
 11
232.606
 21
46.8753
 31
0.0
  0
LINE
  8
0
 62
     0
 10
232.606
 20
46.8753
 30
0.0
 11
246.455
 21
46.8753
 31
0.0
  0
LINE
  8
0
 62
     0
 10
246.455
 20
46.8753
 30
0.0
 11
246.455
 21
47.8758
 31
0.0
  0
LINE
  8
0
 62
     0
 10
246.455
 20
47.8758
 30
0.0
 11
247.256
 21
47.8758
 31
0.0
  0
LINE
  8
0
 62
     0
 10
247.256
 20
47.8758
 30
0.0
 11
247.256
 21
50.8247
 31
0.0
  0
LINE
  8
0
 62
     0
 10
247.256
 20
50.8247
 30
0.0
 11
246.455
 21
50.8247
 31
0.0
  0
LINE
  8
0
 62
     0
 10
246.455
 20
50.8247
 30
0.0
 11
246.455
 21
56.7739
 31
0.0
  0
LINE
  8
0
 62
     0
 10
246.455
 20
56.7739
 30
0.0
 11
247.256
 21
56.7739
 31
0.0
  0
LINE
  8
0
 62
     0
 10
247.256
 20
56.7739
 30
0.0
 11
247.256
 21
59.7256
 31
0.0
  0
LINE
  8
0
 62
     0
 10
247.256
 20
59.7256
 30
0.0
 11
246.455
 21
59.7256
 31
0.0
  0
LINE
  8
0
 62
     0
 10
246.455
 20
59.7256
 30
0.0
 11
246.455
 21
60.7261
 31
0.0
  0
LINE
  8
0
 62
     0
 10
246.455
 20
60.7261
 30
0.0
 11
232.606
 21
60.7261
 31
0.0
  0
LINE
  8
0
 62
     0
 10
263.562
 20
60.7261
 30
0.0
 11
263.562
 21
59.7256
 31
0.0
  0
LINE
  8
0
 62
     0
 10
263.562
 20
59.7256
 30
0.0
 11
262.762
 21
59.7256
 31
0.0
  0
LINE
  8
0
 62
     0
 10
262.762
 20
59.7256
 30
0.0
 11
262.762
 21
56.7739
 31
0.0
  0
LINE
  8
0
 62
     0
 10
262.762
 20
56.7739
 30
0.0
 11
263.562
 21
56.7739
 31
0.0
  0
LINE
  8
0
 62
     0
 10
263.562
 20
56.7739
 30
0.0
 11
263.562
 21
50.8247
 31
0.0
  0
LINE
  8
0
 62
     0
 10
263.562
 20
50.8247
 30
0.0
 11
262.762
 21
50.8247
 31
0.0
  0
LINE
  8
0
 62
     0
 10
262.762
 20
50.8247
 30
0.0
 11
262.762
 21
47.8758
 31
0.0
  0
LINE
  8
0
 62
     0
 10
262.762
 20
47.8758
 30
0.0
 11
263.562
 21
47.8758
 31
0.0
  0
LINE
  8
0
 62
     0
 10
263.562
 20
47.8758
 30
0.0
 11
263.562
 21
46.8753
 31
0.0
  0
LINE
  8
0
 62
     0
 10
263.562
 20
46.8753
 30
0.0
 11
277.411
 21
46.8753
 31
0.0
  0
LINE
  8
0
 62
     0
 10
277.411
 20
46.8753
 30
0.0
 11
277.411
 21
47.8758
 31
0.0
  0
LINE
  8
0
 62
     0
 10
277.411
 20
47.8758
 30
0.0
 11
278.212
 21
47.8758
 31
0.0
  0
LINE
  8
0
 62
     0
 10
278.212
 20
47.8758
 30
0.0
 11
278.212
 21
50.8247
 31
0.0
  0
LINE
  8
0
 62
     0
 10
278.212
 20
50.8247
 30
0.0
 11
277.411
 21
50.8247
 31
0.0
  0
LINE
  8
0
 62
     0
 10
277.411
 20
50.8247
 30
0.0
 11
277.411
 21
56.7739
 31
0.0
  0
LINE
  8
0
 62
     0
 10
277.411
 20
56.7739
 30
0.0
 11
278.212
 21
56.7739
 31
0.0
  0
LINE
  8
0
 62
     0
 10
278.212
 20
56.7739
 30
0.0
 11
278.212
 21
59.7256
 31
0.0
  0
LINE
  8
0
 62
     0
 10
278.212
 20
59.7256
 30
0.0
 11
277.411
 21
59.7256
 31
0.0
  0
LINE
  8
0
 62
     0
 10
277.411
 20
59.7256
 30
0.0
 11
277.411
 21
60.7261
 31
0.0
  0
LINE
  8
0
 62
     0
 10
277.411
 20
60.7261
 30
0.0
 11
263.562
 21
60.7261
 31
0.0
  0
LINE
  8
0
 62
     0
 10
13.531
 20
79.7761
 30
0.0
 11
13.531
 21
78.7756
 31
0.0
  0
LINE
  8
0
 62
     0
 10
13.531
 20
78.7756
 30
0.0
 11
12.7303
 21
78.7756
 31
0.0
  0
LINE
  8
0
 62
     0
 10
12.7303
 20
78.7756
 30
0.0
 11
12.7303
 21
75.8239
 31
0.0
  0
LINE
  8
0
 62
     0
 10
12.7303
 20
75.8239
 30
0.0
 11
13.531
 21
75.8239
 31
0.0
  0
LINE
  8
0
 62
     0
 10
13.531
 20
75.8239
 30
0.0
 11
13.531
 21
69.8747
 31
0.0
  0
LINE
  8
0
 62
     0
 10
13.531
 20
69.8747
 30
0.0
 11
12.7303
 21
69.8747
 31
0.0
  0
LINE
  8
0
 62
     0
 10
12.7303
 20
69.8747
 30
0.0
 11
12.7303
 21
66.9258
 31
0.0
  0
LINE
  8
0
 62
     0
 10
12.7303
 20
66.9258
 30
0.0
 11
13.531
 21
66.9258
 31
0.0
  0
LINE
  8
0
 62
     0
 10
13.531
 20
66.9258
 30
0.0
 11
13.531
 21
65.9253
 31
0.0
  0
LINE
  8
0
 62
     0
 10
13.531
 20
65.9253
 30
0.0
 11
27.3802
 21
65.9253
 31
0.0
  0
LINE
  8
0
 62
     0
 10
27.3802
 20
65.9253
 30
0.0
 11
27.3802
 21
66.9258
 31
0.0
  0
LINE
  8
0
 62
     0
 10
27.3802
 20
66.9258
 30
0.0
 11
28.1809
 21
66.9258
 31
0.0
  0
LINE
  8
0
 62
     0
 10
28.1809
 20
66.9258
 30
0.0
 11
28.1809
 21
69.8747
 31
0.0
  0
LINE
  8
0
 62
     0
 10
28.1809
 20
69.8747
 30
0.0
 11
27.3802
 21
69.8747
 31
0.0
  0
LINE
  8
0
 62
     0
 10
27.3802
 20
69.8747
 30
0.0
 11
27.3802
 21
75.8239
 31
0.0
  0
LINE
  8
0
 62
     0
 10
27.3802
 20
75.8239
 30
0.0
 11
28.1809
 21
75.8239
 31
0.0
  0
LINE
  8
0
 62
     0
 10
28.1809
 20
75.8239
 30
0.0
 11
28.1809
 21
78.7756
 31
0.0
  0
LINE
  8
0
 62
     0
 10
28.1809
 20
78.7756
 30
0.0
 11
27.3802
 21
78.7756
 31
0.0
  0
LINE
  8
0
 62
     0
 10
27.3802
 20
78.7756
 30
0.0
 11
27.3802
 21
79.7761
 31
0.0
  0
LINE
  8
0
 62
     0
 10
27.3802
 20
79.7761
 30
0.0
 11
13.531
 21
79.7761
 31
0.0
  0
LINE
  8
0
 62
     0
 10
37.3433
 20
79.7761
 30
0.0
 11
37.3433
 21
78.7756
 31
0.0
  0
LINE
  8
0
 62
     0
 10
37.3433
 20
78.7756
 30
0.0
 11
36.5428
 21
78.7756
 31
0.0
  0
LINE
  8
0
 62
     0
 10
36.5428
 20
78.7756
 30
0.0
 11
36.5428
 21
75.8239
 31
0.0
  0
LINE
  8
0
 62
     0
 10
36.5428
 20
75.8239
 30
0.0
 11
37.3433
 21
75.8239
 31
0.0
  0
LINE
  8
0
 62
     0
 10
37.3433
 20
75.8239
 30
0.0
 11
37.3433
 21
69.8747
 31
0.0
  0
LINE
  8
0
 62
     0
 10
37.3433
 20
69.8747
 30
0.0
 11
36.5428
 21
69.8747
 31
0.0
  0
LINE
  8
0
 62
     0
 10
36.5428
 20
69.8747
 30
0.0
 11
36.5428
 21
66.9258
 31
0.0
  0
LINE
  8
0
 62
     0
 10
36.5428
 20
66.9258
 30
0.0
 11
37.3433
 21
66.9258
 31
0.0
  0
LINE
  8
0
 62
     0
 10
37.3433
 20
66.9258
 30
0.0
 11
37.3433
 21
65.9253
 31
0.0
  0
LINE
  8
0
 62
     0
 10
37.3433
 20
65.9253
 30
0.0
 11
51.1926
 21
65.9253
 31
0.0
  0
LINE
  8
0
 62
     0
 10
51.1926
 20
65.9253
 30
0.0
 11
51.1926
 21
66.9258
 31
0.0
  0
LINE
  8
0
 62
     0
 10
51.1926
 20
66.9258
 30
0.0
 11
51.9934
 21
66.9258
 31
0.0
  0
LINE
  8
0
 62
     0
 10
51.9934
 20
66.9258
 30
0.0
 11
51.9934
 21
69.8747
 31
0.0
  0
LINE
  8
0
 62
     0
 10
51.9934
 20
69.8747
 30
0.0
 11
51.1926
 21
69.8747
 31
0.0
  0
LINE
  8
0
 62
     0
 10
51.1926
 20
69.8747
 30
0.0
 11
51.1926
 21
75.8239
 31
0.0
  0
LINE
  8
0
 62
     0
 10
51.1926
 20
75.8239
 30
0.0
 11
51.9934
 21
75.8239
 31
0.0
  0
LINE
  8
0
 62
     0
 10
51.9934
 20
75.8239
 30
0.0
 11
51.9934
 21
78.7756
 31
0.0
  0
LINE
  8
0
 62
     0
 10
51.9934
 20
78.7756
 30
0.0
 11
51.1926
 21
78.7756
 31
0.0
  0
LINE
  8
0
 62
     0
 10
51.1926
 20
78.7756
 30
0.0
 11
51.1926
 21
79.7761
 31
0.0
  0
LINE
  8
0
 62
     0
 10
51.1926
 20
79.7761
 30
0.0
 11
37.3433
 21
79.7761
 31
0.0
  0
LINE
  8
0
 62
     0
 10
56.3933
 20
79.7761
 30
0.0
 11
56.3933
 21
78.7756
 31
0.0
  0
LINE
  8
0
 62
     0
 10
56.3933
 20
78.7756
 30
0.0
 11
55.5928
 21
78.7756
 31
0.0
  0
LINE
  8
0
 62
     0
 10
55.5928
 20
78.7756
 30
0.0
 11
55.5928
 21
75.8239
 31
0.0
  0
LINE
  8
0
 62
     0
 10
55.5928
 20
75.8239
 30
0.0
 11
56.3933
 21
75.8239
 31
0.0
  0
LINE
  8
0
 62
     0
 10
56.3933
 20
75.8239
 30
0.0
 11
56.3933
 21
69.8747
 31
0.0
  0
LINE
  8
0
 62
     0
 10
56.3933
 20
69.8747
 30
0.0
 11
55.5928
 21
69.8747
 31
0.0
  0
LINE
  8
0
 62
     0
 10
55.5928
 20
69.8747
 30
0.0
 11
55.5928
 21
66.9258
 31
0.0
  0
LINE
  8
0
 62
     0
 10
55.5928
 20
66.9258
 30
0.0
 11
56.3933
 21
66.9258
 31
0.0
  0
LINE
  8
0
 62
     0
 10
56.3933
 20
66.9258
 30
0.0
 11
56.3933
 21
65.9253
 31
0.0
  0
LINE
  8
0
 62
     0
 10
56.3933
 20
65.9253
 30
0.0
 11
70.2426
 21
65.9253
 31
0.0
  0
LINE
  8
0
 62
     0
 10
70.2426
 20
65.9253
 30
0.0
 11
70.2426
 21
66.9258
 31
0.0
  0
LINE
  8
0
 62
     0
 10
70.2426
 20
66.9258
 30
0.0
 11
71.0434
 21
66.9258
 31
0.0
  0
LINE
  8
0
 62
     0
 10
71.0434
 20
66.9258
 30
0.0
 11
71.0434
 21
69.8747
 31
0.0
  0
LINE
  8
0
 62
     0
 10
71.0434
 20
69.8747
 30
0.0
 11
70.2426
 21
69.8747
 31
0.0
  0
LINE
  8
0
 62
     0
 10
70.2426
 20
69.8747
 30
0.0
 11
70.2426
 21
75.8239
 31
0.0
  0
LINE
  8
0
 62
     0
 10
70.2426
 20
75.8239
 30
0.0
 11
71.0434
 21
75.8239
 31
0.0
  0
LINE
  8
0
 62
     0
 10
71.0434
 20
75.8239
 30
0.0
 11
71.0434
 21
78.7756
 31
0.0
  0
LINE
  8
0
 62
     0
 10
71.0434
 20
78.7756
 30
0.0
 11
70.2426
 21
78.7756
 31
0.0
  0
LINE
  8
0
 62
     0
 10
70.2426
 20
78.7756
 30
0.0
 11
70.2426
 21
79.7761
 31
0.0
  0
LINE
  8
0
 62
     0
 10
70.2426
 20
79.7761
 30
0.0
 11
56.3933
 21
79.7761
 31
0.0
  0
LINE
  8
0
 62
     0
 10
75.4433
 20
79.7761
 30
0.0
 11
75.4433
 21
78.7756
 31
0.0
  0
LINE
  8
0
 62
     0
 10
75.4433
 20
78.7756
 30
0.0
 11
74.6442
 21
78.7756
 31
0.0
  0
LINE
  8
0
 62
     0
 10
74.6442
 20
78.7756
 30
0.0
 11
74.6442
 21
75.8239
 31
0.0
  0
LINE
  8
0
 62
     0
 10
74.6442
 20
75.8239
 30
0.0
 11
75.4433
 21
75.8239
 31
0.0
  0
LINE
  8
0
 62
     0
 10
75.4433
 20
75.8239
 30
0.0
 11
75.4433
 21
69.8747
 31
0.0
  0
LINE
  8
0
 62
     0
 10
75.4433
 20
69.8747
 30
0.0
 11
74.6442
 21
69.8747
 31
0.0
  0
LINE
  8
0
 62
     0
 10
74.6442
 20
69.8747
 30
0.0
 11
74.6442
 21
66.9258
 31
0.0
  0
LINE
  8
0
 62
     0
 10
74.6442
 20
66.9258
 30
0.0
 11
75.4433
 21
66.9258
 31
0.0
  0
LINE
  8
0
 62
     0
 10
75.4433
 20
66.9258
 30
0.0
 11
75.4433
 21
65.9253
 31
0.0
  0
LINE
  8
0
 62
     0
 10
75.4433
 20
65.9253
 30
0.0
 11
89.2926
 21
65.9253
 31
0.0
  0
LINE
  8
0
 62
     0
 10
89.2926
 20
65.9253
 30
0.0
 11
89.2926
 21
66.9258
 31
0.0
  0
LINE
  8
0
 62
     0
 10
89.2926
 20
66.9258
 30
0.0
 11
90.0934
 21
66.9258
 31
0.0
  0
LINE
  8
0
 62
     0
 10
90.0934
 20
66.9258
 30
0.0
 11
90.0934
 21
69.8747
 31
0.0
  0
LINE
  8
0
 62
     0
 10
90.0934
 20
69.8747
 30
0.0
 11
89.2926
 21
69.8747
 31
0.0
  0
LINE
  8
0
 62
     0
 10
89.2926
 20
69.8747
 30
0.0
 11
89.2926
 21
75.8239
 31
0.0
  0
LINE
  8
0
 62
     0
 10
89.2926
 20
75.8239
 30
0.0
 11
90.0934
 21
75.8239
 31
0.0
  0
LINE
  8
0
 62
     0
 10
90.0934
 20
75.8239
 30
0.0
 11
90.0934
 21
78.7756
 31
0.0
  0
LINE
  8
0
 62
     0
 10
90.0934
 20
78.7756
 30
0.0
 11
89.2926
 21
78.7756
 31
0.0
  0
LINE
  8
0
 62
     0
 10
89.2926
 20
78.7756
 30
0.0
 11
89.2926
 21
79.7761
 31
0.0
  0
LINE
  8
0
 62
     0
 10
89.2926
 20
79.7761
 30
0.0
 11
75.4433
 21
79.7761
 31
0.0
  0
LINE
  8
0
 62
     0
 10
94.4922
 20
79.7761
 30
0.0
 11
94.4922
 21
78.7756
 31
0.0
  0
LINE
  8
0
 62
     0
 10
94.4922
 20
78.7756
 30
0.0
 11
93.6942
 21
78.7756
 31
0.0
  0
LINE
  8
0
 62
     0
 10
93.6942
 20
78.7756
 30
0.0
 11
93.6942
 21
75.8239
 31
0.0
  0
LINE
  8
0
 62
     0
 10
93.6942
 20
75.8239
 30
0.0
 11
94.4922
 21
75.8239
 31
0.0
  0
LINE
  8
0
 62
     0
 10
94.4922
 20
75.8239
 30
0.0
 11
94.4922
 21
69.8747
 31
0.0
  0
LINE
  8
0
 62
     0
 10
94.4922
 20
69.8747
 30
0.0
 11
93.6942
 21
69.8747
 31
0.0
  0
LINE
  8
0
 62
     0
 10
93.6942
 20
69.8747
 30
0.0
 11
93.6942
 21
66.9258
 31
0.0
  0
LINE
  8
0
 62
     0
 10
93.6942
 20
66.9258
 30
0.0
 11
94.4922
 21
66.9258
 31
0.0
  0
LINE
  8
0
 62
     0
 10
94.4922
 20
66.9258
 30
0.0
 11
94.4922
 21
65.9253
 31
0.0
  0
LINE
  8
0
 62
     0
 10
94.4922
 20
65.9253
 30
0.0
 11
108.343
 21
65.9253
 31
0.0
  0
LINE
  8
0
 62
     0
 10
108.343
 20
65.9253
 30
0.0
 11
108.343
 21
66.9258
 31
0.0
  0
LINE
  8
0
 62
     0
 10
108.343
 20
66.9258
 30
0.0
 11
109.143
 21
66.9258
 31
0.0
  0
LINE
  8
0
 62
     0
 10
109.143
 20
66.9258
 30
0.0
 11
109.143
 21
69.8747
 31
0.0
  0
LINE
  8
0
 62
     0
 10
109.143
 20
69.8747
 30
0.0
 11
108.343
 21
69.8747
 31
0.0
  0
LINE
  8
0
 62
     0
 10
108.343
 20
69.8747
 30
0.0
 11
108.343
 21
75.8239
 31
0.0
  0
LINE
  8
0
 62
     0
 10
108.343
 20
75.8239
 30
0.0
 11
109.143
 21
75.8239
 31
0.0
  0
LINE
  8
0
 62
     0
 10
109.143
 20
75.8239
 30
0.0
 11
109.143
 21
78.7756
 31
0.0
  0
LINE
  8
0
 62
     0
 10
109.143
 20
78.7756
 30
0.0
 11
108.343
 21
78.7756
 31
0.0
  0
LINE
  8
0
 62
     0
 10
108.343
 20
78.7756
 30
0.0
 11
108.343
 21
79.7761
 31
0.0
  0
LINE
  8
0
 62
     0
 10
108.343
 20
79.7761
 30
0.0
 11
94.4922
 21
79.7761
 31
0.0
  0
LINE
  8
0
 62
     0
 10
113.542
 20
79.7761
 30
0.0
 11
113.542
 21
78.7756
 31
0.0
  0
LINE
  8
0
 62
     0
 10
113.542
 20
78.7756
 30
0.0
 11
112.743
 21
78.7756
 31
0.0
  0
LINE
  8
0
 62
     0
 10
112.743
 20
78.7756
 30
0.0
 11
112.743
 21
75.8239
 31
0.0
  0
LINE
  8
0
 62
     0
 10
112.743
 20
75.8239
 30
0.0
 11
113.542
 21
75.8239
 31
0.0
  0
LINE
  8
0
 62
     0
 10
113.542
 20
75.8239
 30
0.0
 11
113.542
 21
69.8747
 31
0.0
  0
LINE
  8
0
 62
     0
 10
113.542
 20
69.8747
 30
0.0
 11
112.743
 21
69.8747
 31
0.0
  0
LINE
  8
0
 62
     0
 10
112.743
 20
69.8747
 30
0.0
 11
112.743
 21
66.9258
 31
0.0
  0
LINE
  8
0
 62
     0
 10
112.743
 20
66.9258
 30
0.0
 11
113.542
 21
66.9258
 31
0.0
  0
LINE
  8
0
 62
     0
 10
113.542
 20
66.9258
 30
0.0
 11
113.542
 21
65.9253
 31
0.0
  0
LINE
  8
0
 62
     0
 10
113.542
 20
65.9253
 30
0.0
 11
127.393
 21
65.9253
 31
0.0
  0
LINE
  8
0
 62
     0
 10
127.393
 20
65.9253
 30
0.0
 11
127.393
 21
66.9258
 31
0.0
  0
LINE
  8
0
 62
     0
 10
127.393
 20
66.9258
 30
0.0
 11
128.193
 21
66.9258
 31
0.0
  0
LINE
  8
0
 62
     0
 10
128.193
 20
66.9258
 30
0.0
 11
128.193
 21
69.8747
 31
0.0
  0
LINE
  8
0
 62
     0
 10
128.193
 20
69.8747
 30
0.0
 11
127.393
 21
69.8747
 31
0.0
  0
LINE
  8
0
 62
     0
 10
127.393
 20
69.8747
 30
0.0
 11
127.393
 21
75.8239
 31
0.0
  0
LINE
  8
0
 62
     0
 10
127.393
 20
75.8239
 30
0.0
 11
128.193
 21
75.8239
 31
0.0
  0
LINE
  8
0
 62
     0
 10
128.193
 20
75.8239
 30
0.0
 11
128.193
 21
78.7756
 31
0.0
  0
LINE
  8
0
 62
     0
 10
128.193
 20
78.7756
 30
0.0
 11
127.393
 21
78.7756
 31
0.0
  0
LINE
  8
0
 62
     0
 10
127.393
 20
78.7756
 30
0.0
 11
127.393
 21
79.7761
 31
0.0
  0
LINE
  8
0
 62
     0
 10
127.393
 20
79.7761
 30
0.0
 11
113.542
 21
79.7761
 31
0.0
  0
LINE
  8
0
 62
     0
 10
132.592
 20
79.7761
 30
0.0
 11
132.592
 21
78.7756
 31
0.0
  0
LINE
  8
0
 62
     0
 10
132.592
 20
78.7756
 30
0.0
 11
131.794
 21
78.7756
 31
0.0
  0
LINE
  8
0
 62
     0
 10
131.794
 20
78.7756
 30
0.0
 11
131.794
 21
75.8239
 31
0.0
  0
LINE
  8
0
 62
     0
 10
131.794
 20
75.8239
 30
0.0
 11
132.592
 21
75.8239
 31
0.0
  0
LINE
  8
0
 62
     0
 10
132.592
 20
75.8239
 30
0.0
 11
132.592
 21
69.8747
 31
0.0
  0
LINE
  8
0
 62
     0
 10
132.592
 20
69.8747
 30
0.0
 11
131.794
 21
69.8747
 31
0.0
  0
LINE
  8
0
 62
     0
 10
131.794
 20
69.8747
 30
0.0
 11
131.794
 21
66.9258
 31
0.0
  0
LINE
  8
0
 62
     0
 10
131.794
 20
66.9258
 30
0.0
 11
132.592
 21
66.9258
 31
0.0
  0
LINE
  8
0
 62
     0
 10
132.592
 20
66.9258
 30
0.0
 11
132.592
 21
65.9253
 31
0.0
  0
LINE
  8
0
 62
     0
 10
132.592
 20
65.9253
 30
0.0
 11
146.444
 21
65.9253
 31
0.0
  0
LINE
  8
0
 62
     0
 10
146.444
 20
65.9253
 30
0.0
 11
146.444
 21
66.9258
 31
0.0
  0
LINE
  8
0
 62
     0
 10
146.444
 20
66.9258
 30
0.0
 11
147.243
 21
66.9258
 31
0.0
  0
LINE
  8
0
 62
     0
 10
147.243
 20
66.9258
 30
0.0
 11
147.243
 21
69.8747
 31
0.0
  0
LINE
  8
0
 62
     0
 10
147.243
 20
69.8747
 30
0.0
 11
146.444
 21
69.8747
 31
0.0
  0
LINE
  8
0
 62
     0
 10
146.444
 20
69.8747
 30
0.0
 11
146.444
 21
75.8239
 31
0.0
  0
LINE
  8
0
 62
     0
 10
146.444
 20
75.8239
 30
0.0
 11
147.243
 21
75.8239
 31
0.0
  0
LINE
  8
0
 62
     0
 10
147.243
 20
75.8239
 30
0.0
 11
147.243
 21
78.7756
 31
0.0
  0
LINE
  8
0
 62
     0
 10
147.243
 20
78.7756
 30
0.0
 11
146.444
 21
78.7756
 31
0.0
  0
LINE
  8
0
 62
     0
 10
146.444
 20
78.7756
 30
0.0
 11
146.444
 21
79.7761
 31
0.0
  0
LINE
  8
0
 62
     0
 10
146.444
 20
79.7761
 30
0.0
 11
132.592
 21
79.7761
 31
0.0
  0
LINE
  8
0
 62
     0
 10
151.642
 20
79.7761
 30
0.0
 11
151.642
 21
78.7756
 31
0.0
  0
LINE
  8
0
 62
     0
 10
151.642
 20
78.7756
 30
0.0
 11
150.844
 21
78.7756
 31
0.0
  0
LINE
  8
0
 62
     0
 10
150.844
 20
78.7756
 30
0.0
 11
150.844
 21
75.8239
 31
0.0
  0
LINE
  8
0
 62
     0
 10
150.844
 20
75.8239
 30
0.0
 11
151.642
 21
75.8239
 31
0.0
  0
LINE
  8
0
 62
     0
 10
151.642
 20
75.8239
 30
0.0
 11
151.642
 21
69.8747
 31
0.0
  0
LINE
  8
0
 62
     0
 10
151.642
 20
69.8747
 30
0.0
 11
150.844
 21
69.8747
 31
0.0
  0
LINE
  8
0
 62
     0
 10
150.844
 20
69.8747
 30
0.0
 11
150.844
 21
66.9258
 31
0.0
  0
LINE
  8
0
 62
     0
 10
150.844
 20
66.9258
 30
0.0
 11
151.642
 21
66.9258
 31
0.0
  0
LINE
  8
0
 62
     0
 10
151.642
 20
66.9258
 30
0.0
 11
151.642
 21
65.9253
 31
0.0
  0
LINE
  8
0
 62
     0
 10
151.642
 20
65.9253
 30
0.0
 11
165.494
 21
65.9253
 31
0.0
  0
LINE
  8
0
 62
     0
 10
165.494
 20
65.9253
 30
0.0
 11
165.494
 21
66.9258
 31
0.0
  0
LINE
  8
0
 62
     0
 10
165.494
 20
66.9258
 30
0.0
 11
166.293
 21
66.9258
 31
0.0
  0
LINE
  8
0
 62
     0
 10
166.293
 20
66.9258
 30
0.0
 11
166.293
 21
69.8747
 31
0.0
  0
LINE
  8
0
 62
     0
 10
166.293
 20
69.8747
 30
0.0
 11
165.494
 21
69.8747
 31
0.0
  0
LINE
  8
0
 62
     0
 10
165.494
 20
69.8747
 30
0.0
 11
165.494
 21
75.8239
 31
0.0
  0
LINE
  8
0
 62
     0
 10
165.494
 20
75.8239
 30
0.0
 11
166.293
 21
75.8239
 31
0.0
  0
LINE
  8
0
 62
     0
 10
166.293
 20
75.8239
 30
0.0
 11
166.293
 21
78.7756
 31
0.0
  0
LINE
  8
0
 62
     0
 10
166.293
 20
78.7756
 30
0.0
 11
165.494
 21
78.7756
 31
0.0
  0
LINE
  8
0
 62
     0
 10
165.494
 20
78.7756
 30
0.0
 11
165.494
 21
79.7761
 31
0.0
  0
LINE
  8
0
 62
     0
 10
165.494
 20
79.7761
 30
0.0
 11
151.642
 21
79.7761
 31
0.0
  0
LINE
  8
0
 62
     0
 10
170.693
 20
79.7761
 30
0.0
 11
170.693
 21
78.7756
 31
0.0
  0
LINE
  8
0
 62
     0
 10
170.693
 20
78.7756
 30
0.0
 11
169.894
 21
78.7756
 31
0.0
  0
LINE
  8
0
 62
     0
 10
169.894
 20
78.7756
 30
0.0
 11
169.894
 21
75.8239
 31
0.0
  0
LINE
  8
0
 62
     0
 10
169.894
 20
75.8239
 30
0.0
 11
170.693
 21
75.8239
 31
0.0
  0
LINE
  8
0
 62
     0
 10
170.693
 20
75.8239
 30
0.0
 11
170.693
 21
69.8747
 31
0.0
  0
LINE
  8
0
 62
     0
 10
170.693
 20
69.8747
 30
0.0
 11
169.894
 21
69.8747
 31
0.0
  0
LINE
  8
0
 62
     0
 10
169.894
 20
69.8747
 30
0.0
 11
169.894
 21
66.9258
 31
0.0
  0
LINE
  8
0
 62
     0
 10
169.894
 20
66.9258
 30
0.0
 11
170.693
 21
66.9258
 31
0.0
  0
LINE
  8
0
 62
     0
 10
170.693
 20
66.9258
 30
0.0
 11
170.693
 21
65.9253
 31
0.0
  0
LINE
  8
0
 62
     0
 10
170.693
 20
65.9253
 30
0.0
 11
184.544
 21
65.9253
 31
0.0
  0
LINE
  8
0
 62
     0
 10
184.544
 20
65.9253
 30
0.0
 11
184.544
 21
66.9258
 31
0.0
  0
LINE
  8
0
 62
     0
 10
184.544
 20
66.9258
 30
0.0
 11
185.343
 21
66.9258
 31
0.0
  0
LINE
  8
0
 62
     0
 10
185.343
 20
66.9258
 30
0.0
 11
185.343
 21
69.8747
 31
0.0
  0
LINE
  8
0
 62
     0
 10
185.343
 20
69.8747
 30
0.0
 11
184.544
 21
69.8747
 31
0.0
  0
LINE
  8
0
 62
     0
 10
184.544
 20
69.8747
 30
0.0
 11
184.544
 21
75.8239
 31
0.0
  0
LINE
  8
0
 62
     0
 10
184.544
 20
75.8239
 30
0.0
 11
185.343
 21
75.8239
 31
0.0
  0
LINE
  8
0
 62
     0
 10
185.343
 20
75.8239
 30
0.0
 11
185.343
 21
78.7756
 31
0.0
  0
LINE
  8
0
 62
     0
 10
185.343
 20
78.7756
 30
0.0
 11
184.544
 21
78.7756
 31
0.0
  0
LINE
  8
0
 62
     0
 10
184.544
 20
78.7756
 30
0.0
 11
184.544
 21
79.7761
 31
0.0
  0
LINE
  8
0
 62
     0
 10
184.544
 20
79.7761
 30
0.0
 11
170.693
 21
79.7761
 31
0.0
  0
LINE
  8
0
 62
     0
 10
189.743
 20
79.7761
 30
0.0
 11
189.743
 21
78.7756
 31
0.0
  0
LINE
  8
0
 62
     0
 10
189.743
 20
78.7756
 30
0.0
 11
188.944
 21
78.7756
 31
0.0
  0
LINE
  8
0
 62
     0
 10
188.944
 20
78.7756
 30
0.0
 11
188.944
 21
75.8239
 31
0.0
  0
LINE
  8
0
 62
     0
 10
188.944
 20
75.8239
 30
0.0
 11
189.743
 21
75.8239
 31
0.0
  0
LINE
  8
0
 62
     0
 10
189.743
 20
75.8239
 30
0.0
 11
189.743
 21
69.8747
 31
0.0
  0
LINE
  8
0
 62
     0
 10
189.743
 20
69.8747
 30
0.0
 11
188.944
 21
69.8747
 31
0.0
  0
LINE
  8
0
 62
     0
 10
188.944
 20
69.8747
 30
0.0
 11
188.944
 21
66.9258
 31
0.0
  0
LINE
  8
0
 62
     0
 10
188.944
 20
66.9258
 30
0.0
 11
189.743
 21
66.9258
 31
0.0
  0
LINE
  8
0
 62
     0
 10
189.743
 20
66.9258
 30
0.0
 11
189.743
 21
65.9253
 31
0.0
  0
LINE
  8
0
 62
     0
 10
189.743
 20
65.9253
 30
0.0
 11
203.594
 21
65.9253
 31
0.0
  0
LINE
  8
0
 62
     0
 10
203.594
 20
65.9253
 30
0.0
 11
203.594
 21
66.9258
 31
0.0
  0
LINE
  8
0
 62
     0
 10
203.594
 20
66.9258
 30
0.0
 11
204.393
 21
66.9258
 31
0.0
  0
LINE
  8
0
 62
     0
 10
204.393
 20
66.9258
 30
0.0
 11
204.393
 21
69.8747
 31
0.0
  0
LINE
  8
0
 62
     0
 10
204.393
 20
69.8747
 30
0.0
 11
203.594
 21
69.8747
 31
0.0
  0
LINE
  8
0
 62
     0
 10
203.594
 20
69.8747
 30
0.0
 11
203.594
 21
75.8239
 31
0.0
  0
LINE
  8
0
 62
     0
 10
203.594
 20
75.8239
 30
0.0
 11
204.393
 21
75.8239
 31
0.0
  0
LINE
  8
0
 62
     0
 10
204.393
 20
75.8239
 30
0.0
 11
204.393
 21
78.7756
 31
0.0
  0
LINE
  8
0
 62
     0
 10
204.393
 20
78.7756
 30
0.0
 11
203.594
 21
78.7756
 31
0.0
  0
LINE
  8
0
 62
     0
 10
203.594
 20
78.7756
 30
0.0
 11
203.594
 21
79.7761
 31
0.0
  0
LINE
  8
0
 62
     0
 10
203.594
 20
79.7761
 30
0.0
 11
189.743
 21
79.7761
 31
0.0
  0
LINE
  8
0
 62
     0
 10
208.793
 20
79.7761
 30
0.0
 11
208.793
 21
78.7756
 31
0.0
  0
LINE
  8
0
 62
     0
 10
208.793
 20
78.7756
 30
0.0
 11
207.994
 21
78.7756
 31
0.0
  0
LINE
  8
0
 62
     0
 10
207.994
 20
78.7756
 30
0.0
 11
207.994
 21
75.8239
 31
0.0
  0
LINE
  8
0
 62
     0
 10
207.994
 20
75.8239
 30
0.0
 11
208.793
 21
75.8239
 31
0.0
  0
LINE
  8
0
 62
     0
 10
208.793
 20
75.8239
 30
0.0
 11
208.793
 21
69.8747
 31
0.0
  0
LINE
  8
0
 62
     0
 10
208.793
 20
69.8747
 30
0.0
 11
207.994
 21
69.8747
 31
0.0
  0
LINE
  8
0
 62
     0
 10
207.994
 20
69.8747
 30
0.0
 11
207.994
 21
66.9258
 31
0.0
  0
LINE
  8
0
 62
     0
 10
207.994
 20
66.9258
 30
0.0
 11
208.793
 21
66.9258
 31
0.0
  0
LINE
  8
0
 62
     0
 10
208.793
 20
66.9258
 30
0.0
 11
208.793
 21
65.9253
 31
0.0
  0
LINE
  8
0
 62
     0
 10
208.793
 20
65.9253
 30
0.0
 11
222.644
 21
65.9253
 31
0.0
  0
LINE
  8
0
 62
     0
 10
222.644
 20
65.9253
 30
0.0
 11
222.644
 21
66.9258
 31
0.0
  0
LINE
  8
0
 62
     0
 10
222.644
 20
66.9258
 30
0.0
 11
223.443
 21
66.9258
 31
0.0
  0
LINE
  8
0
 62
     0
 10
223.443
 20
66.9258
 30
0.0
 11
223.443
 21
69.8747
 31
0.0
  0
LINE
  8
0
 62
     0
 10
223.443
 20
69.8747
 30
0.0
 11
222.644
 21
69.8747
 31
0.0
  0
LINE
  8
0
 62
     0
 10
222.644
 20
69.8747
 30
0.0
 11
222.644
 21
75.8239
 31
0.0
  0
LINE
  8
0
 62
     0
 10
222.644
 20
75.8239
 30
0.0
 11
223.443
 21
75.8239
 31
0.0
  0
LINE
  8
0
 62
     0
 10
223.443
 20
75.8239
 30
0.0
 11
223.443
 21
78.7756
 31
0.0
  0
LINE
  8
0
 62
     0
 10
223.443
 20
78.7756
 30
0.0
 11
222.644
 21
78.7756
 31
0.0
  0
LINE
  8
0
 62
     0
 10
222.644
 20
78.7756
 30
0.0
 11
222.644
 21
79.7761
 31
0.0
  0
LINE
  8
0
 62
     0
 10
222.644
 20
79.7761
 30
0.0
 11
208.793
 21
79.7761
 31
0.0
  0
LINE
  8
0
 62
     0
 10
227.843
 20
79.7761
 30
0.0
 11
227.843
 21
78.7756
 31
0.0
  0
LINE
  8
0
 62
     0
 10
227.843
 20
78.7756
 30
0.0
 11
227.044
 21
78.7756
 31
0.0
  0
LINE
  8
0
 62
     0
 10
227.044
 20
78.7756
 30
0.0
 11
227.044
 21
75.8239
 31
0.0
  0
LINE
  8
0
 62
     0
 10
227.044
 20
75.8239
 30
0.0
 11
227.843
 21
75.8239
 31
0.0
  0
LINE
  8
0
 62
     0
 10
227.843
 20
75.8239
 30
0.0
 11
227.843
 21
69.8747
 31
0.0
  0
LINE
  8
0
 62
     0
 10
227.843
 20
69.8747
 30
0.0
 11
227.044
 21
69.8747
 31
0.0
  0
LINE
  8
0
 62
     0
 10
227.044
 20
69.8747
 30
0.0
 11
227.044
 21
66.9258
 31
0.0
  0
LINE
  8
0
 62
     0
 10
227.044
 20
66.9258
 30
0.0
 11
227.843
 21
66.9258
 31
0.0
  0
LINE
  8
0
 62
     0
 10
227.843
 20
66.9258
 30
0.0
 11
227.843
 21
65.9253
 31
0.0
  0
LINE
  8
0
 62
     0
 10
227.843
 20
65.9253
 30
0.0
 11
241.694
 21
65.9253
 31
0.0
  0
LINE
  8
0
 62
     0
 10
241.694
 20
65.9253
 30
0.0
 11
241.694
 21
66.9258
 31
0.0
  0
LINE
  8
0
 62
     0
 10
241.694
 20
66.9258
 30
0.0
 11
242.493
 21
66.9258
 31
0.0
  0
LINE
  8
0
 62
     0
 10
242.493
 20
66.9258
 30
0.0
 11
242.493
 21
69.8747
 31
0.0
  0
LINE
  8
0
 62
     0
 10
242.493
 20
69.8747
 30
0.0
 11
241.694
 21
69.8747
 31
0.0
  0
LINE
  8
0
 62
     0
 10
241.694
 20
69.8747
 30
0.0
 11
241.694
 21
75.8239
 31
0.0
  0
LINE
  8
0
 62
     0
 10
241.694
 20
75.8239
 30
0.0
 11
242.493
 21
75.8239
 31
0.0
  0
LINE
  8
0
 62
     0
 10
242.493
 20
75.8239
 30
0.0
 11
242.493
 21
78.7756
 31
0.0
  0
LINE
  8
0
 62
     0
 10
242.493
 20
78.7756
 30
0.0
 11
241.694
 21
78.7756
 31
0.0
  0
LINE
  8
0
 62
     0
 10
241.694
 20
78.7756
 30
0.0
 11
241.694
 21
79.7761
 31
0.0
  0
LINE
  8
0
 62
     0
 10
241.694
 20
79.7761
 30
0.0
 11
227.843
 21
79.7761
 31
0.0
  0
LINE
  8
0
 62
     0
 10
246.893
 20
79.7761
 30
0.0
 11
246.893
 21
78.7756
 31
0.0
  0
LINE
  8
0
 62
     0
 10
246.893
 20
78.7756
 30
0.0
 11
246.094
 21
78.7756
 31
0.0
  0
LINE
  8
0
 62
     0
 10
246.094
 20
78.7756
 30
0.0
 11
246.094
 21
75.8239
 31
0.0
  0
LINE
  8
0
 62
     0
 10
246.094
 20
75.8239
 30
0.0
 11
246.893
 21
75.8239
 31
0.0
  0
LINE
  8
0
 62
     0
 10
246.893
 20
75.8239
 30
0.0
 11
246.893
 21
69.8747
 31
0.0
  0
LINE
  8
0
 62
     0
 10
246.893
 20
69.8747
 30
0.0
 11
246.094
 21
69.8747
 31
0.0
  0
LINE
  8
0
 62
     0
 10
246.094
 20
69.8747
 30
0.0
 11
246.094
 21
66.9258
 31
0.0
  0
LINE
  8
0
 62
     0
 10
246.094
 20
66.9258
 30
0.0
 11
246.893
 21
66.9258
 31
0.0
  0
LINE
  8
0
 62
     0
 10
246.893
 20
66.9258
 30
0.0
 11
246.893
 21
65.9253
 31
0.0
  0
LINE
  8
0
 62
     0
 10
246.893
 20
65.9253
 30
0.0
 11
260.744
 21
65.9253
 31
0.0
  0
LINE
  8
0
 62
     0
 10
260.744
 20
65.9253
 30
0.0
 11
260.744
 21
66.9258
 31
0.0
  0
LINE
  8
0
 62
     0
 10
260.744
 20
66.9258
 30
0.0
 11
261.543
 21
66.9258
 31
0.0
  0
LINE
  8
0
 62
     0
 10
261.543
 20
66.9258
 30
0.0
 11
261.543
 21
69.8747
 31
0.0
  0
LINE
  8
0
 62
     0
 10
261.543
 20
69.8747
 30
0.0
 11
260.744
 21
69.8747
 31
0.0
  0
LINE
  8
0
 62
     0
 10
260.744
 20
69.8747
 30
0.0
 11
260.744
 21
75.8239
 31
0.0
  0
LINE
  8
0
 62
     0
 10
260.744
 20
75.8239
 30
0.0
 11
261.543
 21
75.8239
 31
0.0
  0
LINE
  8
0
 62
     0
 10
261.543
 20
75.8239
 30
0.0
 11
261.543
 21
78.7756
 31
0.0
  0
LINE
  8
0
 62
     0
 10
261.543
 20
78.7756
 30
0.0
 11
260.744
 21
78.7756
 31
0.0
  0
LINE
  8
0
 62
     0
 10
260.744
 20
78.7756
 30
0.0
 11
260.744
 21
79.7761
 31
0.0
  0
LINE
  8
0
 62
     0
 10
260.744
 20
79.7761
 30
0.0
 11
246.893
 21
79.7761
 31
0.0
  0
LINE
  8
0
 62
     0
 10
270.706
 20
79.7761
 30
0.0
 11
270.706
 21
78.7756
 31
0.0
  0
LINE
  8
0
 62
     0
 10
270.706
 20
78.7756
 30
0.0
 11
269.905
 21
78.7756
 31
0.0
  0
LINE
  8
0
 62
     0
 10
269.905
 20
78.7756
 30
0.0
 11
269.905
 21
75.8239
 31
0.0
  0
LINE
  8
0
 62
     0
 10
269.905
 20
75.8239
 30
0.0
 11
270.706
 21
75.8239
 31
0.0
  0
LINE
  8
0
 62
     0
 10
270.706
 20
75.8239
 30
0.0
 11
270.706
 21
69.8747
 31
0.0
  0
LINE
  8
0
 62
     0
 10
270.706
 20
69.8747
 30
0.0
 11
269.905
 21
69.8747
 31
0.0
  0
LINE
  8
0
 62
     0
 10
269.905
 20
69.8747
 30
0.0
 11
269.905
 21
66.9258
 31
0.0
  0
LINE
  8
0
 62
     0
 10
269.905
 20
66.9258
 30
0.0
 11
270.706
 21
66.9258
 31
0.0
  0
LINE
  8
0
 62
     0
 10
270.706
 20
66.9258
 30
0.0
 11
270.706
 21
65.9253
 31
0.0
  0
LINE
  8
0
 62
     0
 10
270.706
 20
65.9253
 30
0.0
 11
284.555
 21
65.9253
 31
0.0
  0
LINE
  8
0
 62
     0
 10
284.555
 20
65.9253
 30
0.0
 11
284.555
 21
66.9258
 31
0.0
  0
LINE
  8
0
 62
     0
 10
284.555
 20
66.9258
 30
0.0
 11
285.356
 21
66.9258
 31
0.0
  0
LINE
  8
0
 62
     0
 10
285.356
 20
66.9258
 30
0.0
 11
285.356
 21
69.8747
 31
0.0
  0
LINE
  8
0
 62
     0
 10
285.356
 20
69.8747
 30
0.0
 11
284.555
 21
69.8747
 31
0.0
  0
LINE
  8
0
 62
     0
 10
284.555
 20
69.8747
 30
0.0
 11
284.555
 21
75.8239
 31
0.0
  0
LINE
  8
0
 62
     0
 10
284.555
 20
75.8239
 30
0.0
 11
285.356
 21
75.8239
 31
0.0
  0
LINE
  8
0
 62
     0
 10
285.356
 20
75.8239
 30
0.0
 11
285.356
 21
78.7756
 31
0.0
  0
LINE
  8
0
 62
     0
 10
285.356
 20
78.7756
 30
0.0
 11
284.555
 21
78.7756
 31
0.0
  0
LINE
  8
0
 62
     0
 10
284.555
 20
78.7756
 30
0.0
 11
284.555
 21
79.7761
 31
0.0
  0
LINE
  8
0
 62
     0
 10
284.555
 20
79.7761
 30
0.0
 11
270.706
 21
79.7761
 31
0.0
  0
LINE
  8
0
 62
     0
 10
8.76847
 20
98.8261
 30
0.0
 11
8.76847
 21
97.8256
 31
0.0
  0
LINE
  8
0
 62
     0
 10
8.76847
 20
97.8256
 30
0.0
 11
7.96918
 21
97.8256
 31
0.0
  0
LINE
  8
0
 62
     0
 10
7.96918
 20
97.8256
 30
0.0
 11
7.96918
 21
94.8739
 31
0.0
  0
LINE
  8
0
 62
     0
 10
7.96918
 20
94.8739
 30
0.0
 11
8.76847
 21
94.8739
 31
0.0
  0
LINE
  8
0
 62
     0
 10
8.76847
 20
94.8739
 30
0.0
 11
8.76847
 21
88.9247
 31
0.0
  0
LINE
  8
0
 62
     0
 10
8.76847
 20
88.9247
 30
0.0
 11
7.96918
 21
88.9247
 31
0.0
  0
LINE
  8
0
 62
     0
 10
7.96918
 20
88.9247
 30
0.0
 11
7.96918
 21
85.9758
 31
0.0
  0
LINE
  8
0
 62
     0
 10
7.96918
 20
85.9758
 30
0.0
 11
8.76847
 21
85.9758
 31
0.0
  0
LINE
  8
0
 62
     0
 10
8.76847
 20
85.9758
 30
0.0
 11
8.76847
 21
84.9753
 31
0.0
  0
LINE
  8
0
 62
     0
 10
8.76847
 20
84.9753
 30
0.0
 11
22.6191
 21
84.9753
 31
0.0
  0
LINE
  8
0
 62
     0
 10
22.6191
 20
84.9753
 30
0.0
 11
22.6191
 21
85.9758
 31
0.0
  0
LINE
  8
0
 62
     0
 10
22.6191
 20
85.9758
 30
0.0
 11
23.4184
 21
85.9758
 31
0.0
  0
LINE
  8
0
 62
     0
 10
23.4184
 20
85.9758
 30
0.0
 11
23.4184
 21
88.9247
 31
0.0
  0
LINE
  8
0
 62
     0
 10
23.4184
 20
88.9247
 30
0.0
 11
22.6191
 21
88.9247
 31
0.0
  0
LINE
  8
0
 62
     0
 10
22.6191
 20
88.9247
 30
0.0
 11
22.6191
 21
94.8739
 31
0.0
  0
LINE
  8
0
 62
     0
 10
22.6191
 20
94.8739
 30
0.0
 11
23.4184
 21
94.8739
 31
0.0
  0
LINE
  8
0
 62
     0
 10
23.4184
 20
94.8739
 30
0.0
 11
23.4184
 21
97.8256
 31
0.0
  0
LINE
  8
0
 62
     0
 10
23.4184
 20
97.8256
 30
0.0
 11
22.6191
 21
97.8256
 31
0.0
  0
LINE
  8
0
 62
     0
 10
22.6191
 20
97.8256
 30
0.0
 11
22.6191
 21
98.8261
 31
0.0
  0
LINE
  8
0
 62
     0
 10
22.6191
 20
98.8261
 30
0.0
 11
8.76847
 21
98.8261
 31
0.0
  0
LINE
  8
0
 62
     0
 10
27.8185
 20
98.8261
 30
0.0
 11
27.8185
 21
97.8256
 31
0.0
  0
LINE
  8
0
 62
     0
 10
27.8185
 20
97.8256
 30
0.0
 11
27.0192
 21
97.8256
 31
0.0
  0
LINE
  8
0
 62
     0
 10
27.0192
 20
97.8256
 30
0.0
 11
27.0192
 21
94.8739
 31
0.0
  0
LINE
  8
0
 62
     0
 10
27.0192
 20
94.8739
 30
0.0
 11
27.8185
 21
94.8739
 31
0.0
  0
LINE
  8
0
 62
     0
 10
27.8185
 20
94.8739
 30
0.0
 11
27.8185
 21
88.9247
 31
0.0
  0
LINE
  8
0
 62
     0
 10
27.8185
 20
88.9247
 30
0.0
 11
27.0192
 21
88.9247
 31
0.0
  0
LINE
  8
0
 62
     0
 10
27.0192
 20
88.9247
 30
0.0
 11
27.0192
 21
85.9758
 31
0.0
  0
LINE
  8
0
 62
     0
 10
27.0192
 20
85.9758
 30
0.0
 11
27.8185
 21
85.9758
 31
0.0
  0
LINE
  8
0
 62
     0
 10
27.8185
 20
85.9758
 30
0.0
 11
27.8185
 21
84.9753
 31
0.0
  0
LINE
  8
0
 62
     0
 10
27.8185
 20
84.9753
 30
0.0
 11
41.6691
 21
84.9753
 31
0.0
  0
LINE
  8
0
 62
     0
 10
41.6691
 20
84.9753
 30
0.0
 11
41.6691
 21
85.9758
 31
0.0
  0
LINE
  8
0
 62
     0
 10
41.6691
 20
85.9758
 30
0.0
 11
42.4684
 21
85.9758
 31
0.0
  0
LINE
  8
0
 62
     0
 10
42.4684
 20
85.9758
 30
0.0
 11
42.4684
 21
88.9247
 31
0.0
  0
LINE
  8
0
 62
     0
 10
42.4684
 20
88.9247
 30
0.0
 11
41.6691
 21
88.9247
 31
0.0
  0
LINE
  8
0
 62
     0
 10
41.6691
 20
88.9247
 30
0.0
 11
41.6691
 21
94.8739
 31
0.0
  0
LINE
  8
0
 62
     0
 10
41.6691
 20
94.8739
 30
0.0
 11
42.4684
 21
94.8739
 31
0.0
  0
LINE
  8
0
 62
     0
 10
42.4684
 20
94.8739
 30
0.0
 11
42.4684
 21
97.8256
 31
0.0
  0
LINE
  8
0
 62
     0
 10
42.4684
 20
97.8256
 30
0.0
 11
41.6691
 21
97.8256
 31
0.0
  0
LINE
  8
0
 62
     0
 10
41.6691
 20
97.8256
 30
0.0
 11
41.6691
 21
98.8261
 31
0.0
  0
LINE
  8
0
 62
     0
 10
41.6691
 20
98.8261
 30
0.0
 11
27.8185
 21
98.8261
 31
0.0
  0
LINE
  8
0
 62
     0
 10
46.8683
 20
98.8261
 30
0.0
 11
46.8683
 21
97.8256
 31
0.0
  0
LINE
  8
0
 62
     0
 10
46.8683
 20
97.8256
 30
0.0
 11
46.0692
 21
97.8256
 31
0.0
  0
LINE
  8
0
 62
     0
 10
46.0692
 20
97.8256
 30
0.0
 11
46.0692
 21
94.8739
 31
0.0
  0
LINE
  8
0
 62
     0
 10
46.0692
 20
94.8739
 30
0.0
 11
46.8683
 21
94.8739
 31
0.0
  0
LINE
  8
0
 62
     0
 10
46.8683
 20
94.8739
 30
0.0
 11
46.8683
 21
88.9247
 31
0.0
  0
LINE
  8
0
 62
     0
 10
46.8683
 20
88.9247
 30
0.0
 11
46.0692
 21
88.9247
 31
0.0
  0
LINE
  8
0
 62
     0
 10
46.0692
 20
88.9247
 30
0.0
 11
46.0692
 21
85.9758
 31
0.0
  0
LINE
  8
0
 62
     0
 10
46.0692
 20
85.9758
 30
0.0
 11
46.8683
 21
85.9758
 31
0.0
  0
LINE
  8
0
 62
     0
 10
46.8683
 20
85.9758
 30
0.0
 11
46.8683
 21
84.9753
 31
0.0
  0
LINE
  8
0
 62
     0
 10
46.8683
 20
84.9753
 30
0.0
 11
60.7191
 21
84.9753
 31
0.0
  0
LINE
  8
0
 62
     0
 10
60.7191
 20
84.9753
 30
0.0
 11
60.7191
 21
85.9758
 31
0.0
  0
LINE
  8
0
 62
     0
 10
60.7191
 20
85.9758
 30
0.0
 11
61.5184
 21
85.9758
 31
0.0
  0
LINE
  8
0
 62
     0
 10
61.5184
 20
85.9758
 30
0.0
 11
61.5184
 21
88.9247
 31
0.0
  0
LINE
  8
0
 62
     0
 10
61.5184
 20
88.9247
 30
0.0
 11
60.7191
 21
88.9247
 31
0.0
  0
LINE
  8
0
 62
     0
 10
60.7191
 20
88.9247
 30
0.0
 11
60.7191
 21
94.8739
 31
0.0
  0
LINE
  8
0
 62
     0
 10
60.7191
 20
94.8739
 30
0.0
 11
61.5184
 21
94.8739
 31
0.0
  0
LINE
  8
0
 62
     0
 10
61.5184
 20
94.8739
 30
0.0
 11
61.5184
 21
97.8256
 31
0.0
  0
LINE
  8
0
 62
     0
 10
61.5184
 20
97.8256
 30
0.0
 11
60.7191
 21
97.8256
 31
0.0
  0
LINE
  8
0
 62
     0
 10
60.7191
 20
97.8256
 30
0.0
 11
60.7191
 21
98.8261
 31
0.0
  0
LINE
  8
0
 62
     0
 10
60.7191
 20
98.8261
 30
0.0
 11
46.8683
 21
98.8261
 31
0.0
  0
LINE
  8
0
 62
     0
 10
65.9183
 20
98.8261
 30
0.0
 11
65.9183
 21
97.8256
 31
0.0
  0
LINE
  8
0
 62
     0
 10
65.9183
 20
97.8256
 30
0.0
 11
65.1192
 21
97.8256
 31
0.0
  0
LINE
  8
0
 62
     0
 10
65.1192
 20
97.8256
 30
0.0
 11
65.1192
 21
94.8739
 31
0.0
  0
LINE
  8
0
 62
     0
 10
65.1192
 20
94.8739
 30
0.0
 11
65.9183
 21
94.8739
 31
0.0
  0
LINE
  8
0
 62
     0
 10
65.9183
 20
94.8739
 30
0.0
 11
65.9183
 21
88.9247
 31
0.0
  0
LINE
  8
0
 62
     0
 10
65.9183
 20
88.9247
 30
0.0
 11
65.1192
 21
88.9247
 31
0.0
  0
LINE
  8
0
 62
     0
 10
65.1192
 20
88.9247
 30
0.0
 11
65.1192
 21
85.9758
 31
0.0
  0
LINE
  8
0
 62
     0
 10
65.1192
 20
85.9758
 30
0.0
 11
65.9183
 21
85.9758
 31
0.0
  0
LINE
  8
0
 62
     0
 10
65.9183
 20
85.9758
 30
0.0
 11
65.9183
 21
84.9753
 31
0.0
  0
LINE
  8
0
 62
     0
 10
65.9183
 20
84.9753
 30
0.0
 11
79.7691
 21
84.9753
 31
0.0
  0
LINE
  8
0
 62
     0
 10
79.7691
 20
84.9753
 30
0.0
 11
79.7691
 21
85.9758
 31
0.0
  0
LINE
  8
0
 62
     0
 10
79.7691
 20
85.9758
 30
0.0
 11
80.5684
 21
85.9758
 31
0.0
  0
LINE
  8
0
 62
     0
 10
80.5684
 20
85.9758
 30
0.0
 11
80.5684
 21
88.9247
 31
0.0
  0
LINE
  8
0
 62
     0
 10
80.5684
 20
88.9247
 30
0.0
 11
79.7691
 21
88.9247
 31
0.0
  0
LINE
  8
0
 62
     0
 10
79.7691
 20
88.9247
 30
0.0
 11
79.7691
 21
94.8739
 31
0.0
  0
LINE
  8
0
 62
     0
 10
79.7691
 20
94.8739
 30
0.0
 11
80.5684
 21
94.8739
 31
0.0
  0
LINE
  8
0
 62
     0
 10
80.5684
 20
94.8739
 30
0.0
 11
80.5684
 21
97.8256
 31
0.0
  0
LINE
  8
0
 62
     0
 10
80.5684
 20
97.8256
 30
0.0
 11
79.7691
 21
97.8256
 31
0.0
  0
LINE
  8
0
 62
     0
 10
79.7691
 20
97.8256
 30
0.0
 11
79.7691
 21
98.8261
 31
0.0
  0
LINE
  8
0
 62
     0
 10
79.7691
 20
98.8261
 30
0.0
 11
65.9183
 21
98.8261
 31
0.0
  0
LINE
  8
0
 62
     0
 10
84.9683
 20
98.8261
 30
0.0
 11
84.9683
 21
97.8256
 31
0.0
  0
LINE
  8
0
 62
     0
 10
84.9683
 20
97.8256
 30
0.0
 11
84.1692
 21
97.8256
 31
0.0
  0
LINE
  8
0
 62
     0
 10
84.1692
 20
97.8256
 30
0.0
 11
84.1692
 21
94.8739
 31
0.0
  0
LINE
  8
0
 62
     0
 10
84.1692
 20
94.8739
 30
0.0
 11
84.9683
 21
94.8739
 31
0.0
  0
LINE
  8
0
 62
     0
 10
84.9683
 20
94.8739
 30
0.0
 11
84.9683
 21
88.9247
 31
0.0
  0
LINE
  8
0
 62
     0
 10
84.9683
 20
88.9247
 30
0.0
 11
84.1692
 21
88.9247
 31
0.0
  0
LINE
  8
0
 62
     0
 10
84.1692
 20
88.9247
 30
0.0
 11
84.1692
 21
85.9758
 31
0.0
  0
LINE
  8
0
 62
     0
 10
84.1692
 20
85.9758
 30
0.0
 11
84.9683
 21
85.9758
 31
0.0
  0
LINE
  8
0
 62
     0
 10
84.9683
 20
85.9758
 30
0.0
 11
84.9683
 21
84.9753
 31
0.0
  0
LINE
  8
0
 62
     0
 10
84.9683
 20
84.9753
 30
0.0
 11
98.8191
 21
84.9753
 31
0.0
  0
LINE
  8
0
 62
     0
 10
98.8191
 20
84.9753
 30
0.0
 11
98.8191
 21
85.9758
 31
0.0
  0
LINE
  8
0
 62
     0
 10
98.8191
 20
85.9758
 30
0.0
 11
99.6184
 21
85.9758
 31
0.0
  0
LINE
  8
0
 62
     0
 10
99.6184
 20
85.9758
 30
0.0
 11
99.6184
 21
88.9247
 31
0.0
  0
LINE
  8
0
 62
     0
 10
99.6184
 20
88.9247
 30
0.0
 11
98.8191
 21
88.9247
 31
0.0
  0
LINE
  8
0
 62
     0
 10
98.8191
 20
88.9247
 30
0.0
 11
98.8191
 21
94.8739
 31
0.0
  0
LINE
  8
0
 62
     0
 10
98.8191
 20
94.8739
 30
0.0
 11
99.6184
 21
94.8739
 31
0.0
  0
LINE
  8
0
 62
     0
 10
99.6184
 20
94.8739
 30
0.0
 11
99.6184
 21
97.8256
 31
0.0
  0
LINE
  8
0
 62
     0
 10
99.6184
 20
97.8256
 30
0.0
 11
98.8191
 21
97.8256
 31
0.0
  0
LINE
  8
0
 62
     0
 10
98.8191
 20
97.8256
 30
0.0
 11
98.8191
 21
98.8261
 31
0.0
  0
LINE
  8
0
 62
     0
 10
98.8191
 20
98.8261
 30
0.0
 11
84.9683
 21
98.8261
 31
0.0
  0
LINE
  8
0
 62
     0
 10
104.018
 20
98.8261
 30
0.0
 11
104.018
 21
97.8256
 31
0.0
  0
LINE
  8
0
 62
     0
 10
104.018
 20
97.8256
 30
0.0
 11
103.219
 21
97.8256
 31
0.0
  0
LINE
  8
0
 62
     0
 10
103.219
 20
97.8256
 30
0.0
 11
103.219
 21
94.8739
 31
0.0
  0
LINE
  8
0
 62
     0
 10
103.219
 20
94.8739
 30
0.0
 11
104.018
 21
94.8739
 31
0.0
  0
LINE
  8
0
 62
     0
 10
104.018
 20
94.8739
 30
0.0
 11
104.018
 21
88.9247
 31
0.0
  0
LINE
  8
0
 62
     0
 10
104.018
 20
88.9247
 30
0.0
 11
103.219
 21
88.9247
 31
0.0
  0
LINE
  8
0
 62
     0
 10
103.219
 20
88.9247
 30
0.0
 11
103.219
 21
85.9758
 31
0.0
  0
LINE
  8
0
 62
     0
 10
103.219
 20
85.9758
 30
0.0
 11
104.018
 21
85.9758
 31
0.0
  0
LINE
  8
0
 62
     0
 10
104.018
 20
85.9758
 30
0.0
 11
104.018
 21
84.9753
 31
0.0
  0
LINE
  8
0
 62
     0
 10
104.018
 20
84.9753
 30
0.0
 11
117.868
 21
84.9753
 31
0.0
  0
LINE
  8
0
 62
     0
 10
117.868
 20
84.9753
 30
0.0
 11
117.868
 21
85.9758
 31
0.0
  0
LINE
  8
0
 62
     0
 10
117.868
 20
85.9758
 30
0.0
 11
118.668
 21
85.9758
 31
0.0
  0
LINE
  8
0
 62
     0
 10
118.668
 20
85.9758
 30
0.0
 11
118.668
 21
88.9247
 31
0.0
  0
LINE
  8
0
 62
     0
 10
118.668
 20
88.9247
 30
0.0
 11
117.868
 21
88.9247
 31
0.0
  0
LINE
  8
0
 62
     0
 10
117.868
 20
88.9247
 30
0.0
 11
117.868
 21
94.8739
 31
0.0
  0
LINE
  8
0
 62
     0
 10
117.868
 20
94.8739
 30
0.0
 11
118.668
 21
94.8739
 31
0.0
  0
LINE
  8
0
 62
     0
 10
118.668
 20
94.8739
 30
0.0
 11
118.668
 21
97.8256
 31
0.0
  0
LINE
  8
0
 62
     0
 10
118.668
 20
97.8256
 30
0.0
 11
117.868
 21
97.8256
 31
0.0
  0
LINE
  8
0
 62
     0
 10
117.868
 20
97.8256
 30
0.0
 11
117.868
 21
98.8261
 31
0.0
  0
LINE
  8
0
 62
     0
 10
117.868
 20
98.8261
 30
0.0
 11
104.018
 21
98.8261
 31
0.0
  0
LINE
  8
0
 62
     0
 10
123.068
 20
98.8261
 30
0.0
 11
123.068
 21
97.8256
 31
0.0
  0
LINE
  8
0
 62
     0
 10
123.068
 20
97.8256
 30
0.0
 11
122.269
 21
97.8256
 31
0.0
  0
LINE
  8
0
 62
     0
 10
122.269
 20
97.8256
 30
0.0
 11
122.269
 21
94.8739
 31
0.0
  0
LINE
  8
0
 62
     0
 10
122.269
 20
94.8739
 30
0.0
 11
123.068
 21
94.8739
 31
0.0
  0
LINE
  8
0
 62
     0
 10
123.068
 20
94.8739
 30
0.0
 11
123.068
 21
88.9247
 31
0.0
  0
LINE
  8
0
 62
     0
 10
123.068
 20
88.9247
 30
0.0
 11
122.269
 21
88.9247
 31
0.0
  0
LINE
  8
0
 62
     0
 10
122.269
 20
88.9247
 30
0.0
 11
122.269
 21
85.9758
 31
0.0
  0
LINE
  8
0
 62
     0
 10
122.269
 20
85.9758
 30
0.0
 11
123.068
 21
85.9758
 31
0.0
  0
LINE
  8
0
 62
     0
 10
123.068
 20
85.9758
 30
0.0
 11
123.068
 21
84.9753
 31
0.0
  0
LINE
  8
0
 62
     0
 10
123.068
 20
84.9753
 30
0.0
 11
136.919
 21
84.9753
 31
0.0
  0
LINE
  8
0
 62
     0
 10
136.919
 20
84.9753
 30
0.0
 11
136.919
 21
85.9758
 31
0.0
  0
LINE
  8
0
 62
     0
 10
136.919
 20
85.9758
 30
0.0
 11
137.718
 21
85.9758
 31
0.0
  0
LINE
  8
0
 62
     0
 10
137.718
 20
85.9758
 30
0.0
 11
137.718
 21
88.9247
 31
0.0
  0
LINE
  8
0
 62
     0
 10
137.718
 20
88.9247
 30
0.0
 11
136.919
 21
88.9247
 31
0.0
  0
LINE
  8
0
 62
     0
 10
136.919
 20
88.9247
 30
0.0
 11
136.919
 21
94.8739
 31
0.0
  0
LINE
  8
0
 62
     0
 10
136.919
 20
94.8739
 30
0.0
 11
137.718
 21
94.8739
 31
0.0
  0
LINE
  8
0
 62
     0
 10
137.718
 20
94.8739
 30
0.0
 11
137.718
 21
97.8256
 31
0.0
  0
LINE
  8
0
 62
     0
 10
137.718
 20
97.8256
 30
0.0
 11
136.919
 21
97.8256
 31
0.0
  0
LINE
  8
0
 62
     0
 10
136.919
 20
97.8256
 30
0.0
 11
136.919
 21
98.8261
 31
0.0
  0
LINE
  8
0
 62
     0
 10
136.919
 20
98.8261
 30
0.0
 11
123.068
 21
98.8261
 31
0.0
  0
LINE
  8
0
 62
     0
 10
142.118
 20
98.8261
 30
0.0
 11
142.118
 21
97.8256
 31
0.0
  0
LINE
  8
0
 62
     0
 10
142.118
 20
97.8256
 30
0.0
 11
141.319
 21
97.8256
 31
0.0
  0
LINE
  8
0
 62
     0
 10
141.319
 20
97.8256
 30
0.0
 11
141.319
 21
94.8739
 31
0.0
  0
LINE
  8
0
 62
     0
 10
141.319
 20
94.8739
 30
0.0
 11
142.118
 21
94.8739
 31
0.0
  0
LINE
  8
0
 62
     0
 10
142.118
 20
94.8739
 30
0.0
 11
142.118
 21
88.9247
 31
0.0
  0
LINE
  8
0
 62
     0
 10
142.118
 20
88.9247
 30
0.0
 11
141.319
 21
88.9247
 31
0.0
  0
LINE
  8
0
 62
     0
 10
141.319
 20
88.9247
 30
0.0
 11
141.319
 21
85.9758
 31
0.0
  0
LINE
  8
0
 62
     0
 10
141.319
 20
85.9758
 30
0.0
 11
142.118
 21
85.9758
 31
0.0
  0
LINE
  8
0
 62
     0
 10
142.118
 20
85.9758
 30
0.0
 11
142.118
 21
84.9753
 31
0.0
  0
LINE
  8
0
 62
     0
 10
142.118
 20
84.9753
 30
0.0
 11
155.969
 21
84.9753
 31
0.0
  0
LINE
  8
0
 62
     0
 10
155.969
 20
84.9753
 30
0.0
 11
155.969
 21
85.9758
 31
0.0
  0
LINE
  8
0
 62
     0
 10
155.969
 20
85.9758
 30
0.0
 11
156.768
 21
85.9758
 31
0.0
  0
LINE
  8
0
 62
     0
 10
156.768
 20
85.9758
 30
0.0
 11
156.768
 21
88.9247
 31
0.0
  0
LINE
  8
0
 62
     0
 10
156.768
 20
88.9247
 30
0.0
 11
155.969
 21
88.9247
 31
0.0
  0
LINE
  8
0
 62
     0
 10
155.969
 20
88.9247
 30
0.0
 11
155.969
 21
94.8739
 31
0.0
  0
LINE
  8
0
 62
     0
 10
155.969
 20
94.8739
 30
0.0
 11
156.768
 21
94.8739
 31
0.0
  0
LINE
  8
0
 62
     0
 10
156.768
 20
94.8739
 30
0.0
 11
156.768
 21
97.8256
 31
0.0
  0
LINE
  8
0
 62
     0
 10
156.768
 20
97.8256
 30
0.0
 11
155.969
 21
97.8256
 31
0.0
  0
LINE
  8
0
 62
     0
 10
155.969
 20
97.8256
 30
0.0
 11
155.969
 21
98.8261
 31
0.0
  0
LINE
  8
0
 62
     0
 10
155.969
 20
98.8261
 30
0.0
 11
142.118
 21
98.8261
 31
0.0
  0
LINE
  8
0
 62
     0
 10
161.168
 20
98.8261
 30
0.0
 11
161.168
 21
97.8256
 31
0.0
  0
LINE
  8
0
 62
     0
 10
161.168
 20
97.8256
 30
0.0
 11
160.369
 21
97.8256
 31
0.0
  0
LINE
  8
0
 62
     0
 10
160.369
 20
97.8256
 30
0.0
 11
160.369
 21
94.8739
 31
0.0
  0
LINE
  8
0
 62
     0
 10
160.369
 20
94.8739
 30
0.0
 11
161.168
 21
94.8739
 31
0.0
  0
LINE
  8
0
 62
     0
 10
161.168
 20
94.8739
 30
0.0
 11
161.168
 21
88.9247
 31
0.0
  0
LINE
  8
0
 62
     0
 10
161.168
 20
88.9247
 30
0.0
 11
160.369
 21
88.9247
 31
0.0
  0
LINE
  8
0
 62
     0
 10
160.369
 20
88.9247
 30
0.0
 11
160.369
 21
85.9758
 31
0.0
  0
LINE
  8
0
 62
     0
 10
160.369
 20
85.9758
 30
0.0
 11
161.168
 21
85.9758
 31
0.0
  0
LINE
  8
0
 62
     0
 10
161.168
 20
85.9758
 30
0.0
 11
161.168
 21
84.9753
 31
0.0
  0
LINE
  8
0
 62
     0
 10
161.168
 20
84.9753
 30
0.0
 11
175.019
 21
84.9753
 31
0.0
  0
LINE
  8
0
 62
     0
 10
175.019
 20
84.9753
 30
0.0
 11
175.019
 21
85.9758
 31
0.0
  0
LINE
  8
0
 62
     0
 10
175.019
 20
85.9758
 30
0.0
 11
175.818
 21
85.9758
 31
0.0
  0
LINE
  8
0
 62
     0
 10
175.818
 20
85.9758
 30
0.0
 11
175.818
 21
88.9247
 31
0.0
  0
LINE
  8
0
 62
     0
 10
175.818
 20
88.9247
 30
0.0
 11
175.019
 21
88.9247
 31
0.0
  0
LINE
  8
0
 62
     0
 10
175.019
 20
88.9247
 30
0.0
 11
175.019
 21
94.8739
 31
0.0
  0
LINE
  8
0
 62
     0
 10
175.019
 20
94.8739
 30
0.0
 11
175.818
 21
94.8739
 31
0.0
  0
LINE
  8
0
 62
     0
 10
175.818
 20
94.8739
 30
0.0
 11
175.818
 21
97.8256
 31
0.0
  0
LINE
  8
0
 62
     0
 10
175.818
 20
97.8256
 30
0.0
 11
175.019
 21
97.8256
 31
0.0
  0
LINE
  8
0
 62
     0
 10
175.019
 20
97.8256
 30
0.0
 11
175.019
 21
98.8261
 31
0.0
  0
LINE
  8
0
 62
     0
 10
175.019
 20
98.8261
 30
0.0
 11
161.168
 21
98.8261
 31
0.0
  0
LINE
  8
0
 62
     0
 10
180.218
 20
98.8261
 30
0.0
 11
180.218
 21
97.8256
 31
0.0
  0
LINE
  8
0
 62
     0
 10
180.218
 20
97.8256
 30
0.0
 11
179.419
 21
97.8256
 31
0.0
  0
LINE
  8
0
 62
     0
 10
179.419
 20
97.8256
 30
0.0
 11
179.419
 21
94.8739
 31
0.0
  0
LINE
  8
0
 62
     0
 10
179.419
 20
94.8739
 30
0.0
 11
180.218
 21
94.8739
 31
0.0
  0
LINE
  8
0
 62
     0
 10
180.218
 20
94.8739
 30
0.0
 11
180.218
 21
88.9247
 31
0.0
  0
LINE
  8
0
 62
     0
 10
180.218
 20
88.9247
 30
0.0
 11
179.419
 21
88.9247
 31
0.0
  0
LINE
  8
0
 62
     0
 10
179.419
 20
88.9247
 30
0.0
 11
179.419
 21
85.9758
 31
0.0
  0
LINE
  8
0
 62
     0
 10
179.419
 20
85.9758
 30
0.0
 11
180.218
 21
85.9758
 31
0.0
  0
LINE
  8
0
 62
     0
 10
180.218
 20
85.9758
 30
0.0
 11
180.218
 21
84.9753
 31
0.0
  0
LINE
  8
0
 62
     0
 10
180.218
 20
84.9753
 30
0.0
 11
194.069
 21
84.9753
 31
0.0
  0
LINE
  8
0
 62
     0
 10
194.069
 20
84.9753
 30
0.0
 11
194.069
 21
85.9758
 31
0.0
  0
LINE
  8
0
 62
     0
 10
194.069
 20
85.9758
 30
0.0
 11
194.868
 21
85.9758
 31
0.0
  0
LINE
  8
0
 62
     0
 10
194.868
 20
85.9758
 30
0.0
 11
194.868
 21
88.9247
 31
0.0
  0
LINE
  8
0
 62
     0
 10
194.868
 20
88.9247
 30
0.0
 11
194.069
 21
88.9247
 31
0.0
  0
LINE
  8
0
 62
     0
 10
194.069
 20
88.9247
 30
0.0
 11
194.069
 21
94.8739
 31
0.0
  0
LINE
  8
0
 62
     0
 10
194.069
 20
94.8739
 30
0.0
 11
194.868
 21
94.8739
 31
0.0
  0
LINE
  8
0
 62
     0
 10
194.868
 20
94.8739
 30
0.0
 11
194.868
 21
97.8256
 31
0.0
  0
LINE
  8
0
 62
     0
 10
194.868
 20
97.8256
 30
0.0
 11
194.069
 21
97.8256
 31
0.0
  0
LINE
  8
0
 62
     0
 10
194.069
 20
97.8256
 30
0.0
 11
194.069
 21
98.8261
 31
0.0
  0
LINE
  8
0
 62
     0
 10
194.069
 20
98.8261
 30
0.0
 11
180.218
 21
98.8261
 31
0.0
  0
LINE
  8
0
 62
     0
 10
199.268
 20
98.8261
 30
0.0
 11
199.268
 21
97.8256
 31
0.0
  0
LINE
  8
0
 62
     0
 10
199.268
 20
97.8256
 30
0.0
 11
198.469
 21
97.8256
 31
0.0
  0
LINE
  8
0
 62
     0
 10
198.469
 20
97.8256
 30
0.0
 11
198.469
 21
94.8739
 31
0.0
  0
LINE
  8
0
 62
     0
 10
198.469
 20
94.8739
 30
0.0
 11
199.268
 21
94.8739
 31
0.0
  0
LINE
  8
0
 62
     0
 10
199.268
 20
94.8739
 30
0.0
 11
199.268
 21
88.9247
 31
0.0
  0
LINE
  8
0
 62
     0
 10
199.268
 20
88.9247
 30
0.0
 11
198.469
 21
88.9247
 31
0.0
  0
LINE
  8
0
 62
     0
 10
198.469
 20
88.9247
 30
0.0
 11
198.469
 21
85.9758
 31
0.0
  0
LINE
  8
0
 62
     0
 10
198.469
 20
85.9758
 30
0.0
 11
199.268
 21
85.9758
 31
0.0
  0
LINE
  8
0
 62
     0
 10
199.268
 20
85.9758
 30
0.0
 11
199.268
 21
84.9753
 31
0.0
  0
LINE
  8
0
 62
     0
 10
199.268
 20
84.9753
 30
0.0
 11
213.119
 21
84.9753
 31
0.0
  0
LINE
  8
0
 62
     0
 10
213.119
 20
84.9753
 30
0.0
 11
213.119
 21
85.9758
 31
0.0
  0
LINE
  8
0
 62
     0
 10
213.119
 20
85.9758
 30
0.0
 11
213.918
 21
85.9758
 31
0.0
  0
LINE
  8
0
 62
     0
 10
213.918
 20
85.9758
 30
0.0
 11
213.918
 21
88.9247
 31
0.0
  0
LINE
  8
0
 62
     0
 10
213.918
 20
88.9247
 30
0.0
 11
213.119
 21
88.9247
 31
0.0
  0
LINE
  8
0
 62
     0
 10
213.119
 20
88.9247
 30
0.0
 11
213.119
 21
94.8739
 31
0.0
  0
LINE
  8
0
 62
     0
 10
213.119
 20
94.8739
 30
0.0
 11
213.918
 21
94.8739
 31
0.0
  0
LINE
  8
0
 62
     0
 10
213.918
 20
94.8739
 30
0.0
 11
213.918
 21
97.8256
 31
0.0
  0
LINE
  8
0
 62
     0
 10
213.918
 20
97.8256
 30
0.0
 11
213.119
 21
97.8256
 31
0.0
  0
LINE
  8
0
 62
     0
 10
213.119
 20
97.8256
 30
0.0
 11
213.119
 21
98.8261
 31
0.0
  0
LINE
  8
0
 62
     0
 10
213.119
 20
98.8261
 30
0.0
 11
199.268
 21
98.8261
 31
0.0
  0
LINE
  8
0
 62
     0
 10
218.318
 20
98.8261
 30
0.0
 11
218.318
 21
97.8256
 31
0.0
  0
LINE
  8
0
 62
     0
 10
218.318
 20
97.8256
 30
0.0
 11
217.519
 21
97.8256
 31
0.0
  0
LINE
  8
0
 62
     0
 10
217.519
 20
97.8256
 30
0.0
 11
217.519
 21
94.8739
 31
0.0
  0
LINE
  8
0
 62
     0
 10
217.519
 20
94.8739
 30
0.0
 11
218.318
 21
94.8739
 31
0.0
  0
LINE
  8
0
 62
     0
 10
218.318
 20
94.8739
 30
0.0
 11
218.318
 21
88.9247
 31
0.0
  0
LINE
  8
0
 62
     0
 10
218.318
 20
88.9247
 30
0.0
 11
217.519
 21
88.9247
 31
0.0
  0
LINE
  8
0
 62
     0
 10
217.519
 20
88.9247
 30
0.0
 11
217.519
 21
85.9758
 31
0.0
  0
LINE
  8
0
 62
     0
 10
217.519
 20
85.9758
 30
0.0
 11
218.318
 21
85.9758
 31
0.0
  0
LINE
  8
0
 62
     0
 10
218.318
 20
85.9758
 30
0.0
 11
218.318
 21
84.9753
 31
0.0
  0
LINE
  8
0
 62
     0
 10
218.318
 20
84.9753
 30
0.0
 11
232.169
 21
84.9753
 31
0.0
  0
LINE
  8
0
 62
     0
 10
232.169
 20
84.9753
 30
0.0
 11
232.169
 21
85.9758
 31
0.0
  0
LINE
  8
0
 62
     0
 10
232.169
 20
85.9758
 30
0.0
 11
232.968
 21
85.9758
 31
0.0
  0
LINE
  8
0
 62
     0
 10
232.968
 20
85.9758
 30
0.0
 11
232.968
 21
88.9247
 31
0.0
  0
LINE
  8
0
 62
     0
 10
232.968
 20
88.9247
 30
0.0
 11
232.169
 21
88.9247
 31
0.0
  0
LINE
  8
0
 62
     0
 10
232.169
 20
88.9247
 30
0.0
 11
232.169
 21
94.8739
 31
0.0
  0
LINE
  8
0
 62
     0
 10
232.169
 20
94.8739
 30
0.0
 11
232.968
 21
94.8739
 31
0.0
  0
LINE
  8
0
 62
     0
 10
232.968
 20
94.8739
 30
0.0
 11
232.968
 21
97.8256
 31
0.0
  0
LINE
  8
0
 62
     0
 10
232.968
 20
97.8256
 30
0.0
 11
232.169
 21
97.8256
 31
0.0
  0
LINE
  8
0
 62
     0
 10
232.169
 20
97.8256
 30
0.0
 11
232.169
 21
98.8261
 31
0.0
  0
LINE
  8
0
 62
     0
 10
232.169
 20
98.8261
 30
0.0
 11
218.318
 21
98.8261
 31
0.0
  0
LINE
  8
0
 62
     0
 10
237.368
 20
98.8261
 30
0.0
 11
237.368
 21
97.8256
 31
0.0
  0
LINE
  8
0
 62
     0
 10
237.368
 20
97.8256
 30
0.0
 11
236.569
 21
97.8256
 31
0.0
  0
LINE
  8
0
 62
     0
 10
236.569
 20
97.8256
 30
0.0
 11
236.569
 21
94.8739
 31
0.0
  0
LINE
  8
0
 62
     0
 10
236.569
 20
94.8739
 30
0.0
 11
237.368
 21
94.8739
 31
0.0
  0
LINE
  8
0
 62
     0
 10
237.368
 20
94.8739
 30
0.0
 11
237.368
 21
88.9247
 31
0.0
  0
LINE
  8
0
 62
     0
 10
237.368
 20
88.9247
 30
0.0
 11
236.569
 21
88.9247
 31
0.0
  0
LINE
  8
0
 62
     0
 10
236.569
 20
88.9247
 30
0.0
 11
236.569
 21
85.9758
 31
0.0
  0
LINE
  8
0
 62
     0
 10
236.569
 20
85.9758
 30
0.0
 11
237.368
 21
85.9758
 31
0.0
  0
LINE
  8
0
 62
     0
 10
237.368
 20
85.9758
 30
0.0
 11
237.368
 21
84.9753
 31
0.0
  0
LINE
  8
0
 62
     0
 10
237.368
 20
84.9753
 30
0.0
 11
251.219
 21
84.9753
 31
0.0
  0
LINE
  8
0
 62
     0
 10
251.219
 20
84.9753
 30
0.0
 11
251.219
 21
85.9758
 31
0.0
  0
LINE
  8
0
 62
     0
 10
251.219
 20
85.9758
 30
0.0
 11
252.018
 21
85.9758
 31
0.0
  0
LINE
  8
0
 62
     0
 10
252.018
 20
85.9758
 30
0.0
 11
252.018
 21
88.9247
 31
0.0
  0
LINE
  8
0
 62
     0
 10
252.018
 20
88.9247
 30
0.0
 11
251.219
 21
88.9247
 31
0.0
  0
LINE
  8
0
 62
     0
 10
251.219
 20
88.9247
 30
0.0
 11
251.219
 21
94.8739
 31
0.0
  0
LINE
  8
0
 62
     0
 10
251.219
 20
94.8739
 30
0.0
 11
252.018
 21
94.8739
 31
0.0
  0
LINE
  8
0
 62
     0
 10
252.018
 20
94.8739
 30
0.0
 11
252.018
 21
97.8256
 31
0.0
  0
LINE
  8
0
 62
     0
 10
252.018
 20
97.8256
 30
0.0
 11
251.219
 21
97.8256
 31
0.0
  0
LINE
  8
0
 62
     0
 10
251.219
 20
97.8256
 30
0.0
 11
251.219
 21
98.8261
 31
0.0
  0
LINE
  8
0
 62
     0
 10
251.219
 20
98.8261
 30
0.0
 11
237.368
 21
98.8261
 31
0.0
  0
LINE
  8
0
 62
     0
 10
256.418
 20
98.8261
 30
0.0
 11
256.418
 21
97.8256
 31
0.0
  0
LINE
  8
0
 62
     0
 10
256.418
 20
97.8256
 30
0.0
 11
255.618
 21
97.8256
 31
0.0
  0
LINE
  8
0
 62
     0
 10
255.618
 20
97.8256
 30
0.0
 11
255.618
 21
94.8739
 31
0.0
  0
LINE
  8
0
 62
     0
 10
255.618
 20
94.8739
 30
0.0
 11
256.418
 21
94.8739
 31
0.0
  0
LINE
  8
0
 62
     0
 10
256.418
 20
94.8739
 30
0.0
 11
256.418
 21
88.9247
 31
0.0
  0
LINE
  8
0
 62
     0
 10
256.418
 20
88.9247
 30
0.0
 11
255.618
 21
88.9247
 31
0.0
  0
LINE
  8
0
 62
     0
 10
255.618
 20
88.9247
 30
0.0
 11
255.618
 21
85.9758
 31
0.0
  0
LINE
  8
0
 62
     0
 10
255.618
 20
85.9758
 30
0.0
 11
256.418
 21
85.9758
 31
0.0
  0
LINE
  8
0
 62
     0
 10
256.418
 20
85.9758
 30
0.0
 11
256.418
 21
84.9753
 31
0.0
  0
LINE
  8
0
 62
     0
 10
256.418
 20
84.9753
 30
0.0
 11
270.269
 21
84.9753
 31
0.0
  0
LINE
  8
0
 62
     0
 10
270.269
 20
84.9753
 30
0.0
 11
270.269
 21
85.9758
 31
0.0
  0
LINE
  8
0
 62
     0
 10
270.269
 20
85.9758
 30
0.0
 11
271.068
 21
85.9758
 31
0.0
  0
LINE
  8
0
 62
     0
 10
271.068
 20
85.9758
 30
0.0
 11
271.068
 21
88.9247
 31
0.0
  0
LINE
  8
0
 62
     0
 10
271.068
 20
88.9247
 30
0.0
 11
270.269
 21
88.9247
 31
0.0
  0
LINE
  8
0
 62
     0
 10
270.269
 20
88.9247
 30
0.0
 11
270.269
 21
94.8739
 31
0.0
  0
LINE
  8
0
 62
     0
 10
270.269
 20
94.8739
 30
0.0
 11
271.068
 21
94.8739
 31
0.0
  0
LINE
  8
0
 62
     0
 10
271.068
 20
94.8739
 30
0.0
 11
271.068
 21
97.8256
 31
0.0
  0
LINE
  8
0
 62
     0
 10
271.068
 20
97.8256
 30
0.0
 11
270.269
 21
97.8256
 31
0.0
  0
LINE
  8
0
 62
     0
 10
270.269
 20
97.8256
 30
0.0
 11
270.269
 21
98.8261
 31
0.0
  0
LINE
  8
0
 62
     0
 10
270.269
 20
98.8261
 30
0.0
 11
256.418
 21
98.8261
 31
0.0
  0
LINE
  8
0
 62
     0
 10
275.468
 20
98.8261
 30
0.0
 11
275.468
 21
97.8256
 31
0.0
  0
LINE
  8
0
 62
     0
 10
275.468
 20
97.8256
 30
0.0
 11
274.669
 21
97.8256
 31
0.0
  0
LINE
  8
0
 62
     0
 10
274.669
 20
97.8256
 30
0.0
 11
274.669
 21
94.8739
 31
0.0
  0
LINE
  8
0
 62
     0
 10
274.669
 20
94.8739
 30
0.0
 11
275.468
 21
94.8739
 31
0.0
  0
LINE
  8
0
 62
     0
 10
275.468
 20
94.8739
 30
0.0
 11
275.468
 21
88.9247
 31
0.0
  0
LINE
  8
0
 62
     0
 10
275.468
 20
88.9247
 30
0.0
 11
274.669
 21
88.9247
 31
0.0
  0
LINE
  8
0
 62
     0
 10
274.669
 20
88.9247
 30
0.0
 11
274.669
 21
85.9758
 31
0.0
  0
LINE
  8
0
 62
     0
 10
274.669
 20
85.9758
 30
0.0
 11
275.468
 21
85.9758
 31
0.0
  0
LINE
  8
0
 62
     0
 10
275.468
 20
85.9758
 30
0.0
 11
275.468
 21
84.9753
 31
0.0
  0
LINE
  8
0
 62
     0
 10
275.468
 20
84.9753
 30
0.0
 11
289.319
 21
84.9753
 31
0.0
  0
LINE
  8
0
 62
     0
 10
289.319
 20
84.9753
 30
0.0
 11
289.319
 21
85.9758
 31
0.0
  0
LINE
  8
0
 62
     0
 10
289.319
 20
85.9758
 30
0.0
 11
290.118
 21
85.9758
 31
0.0
  0
LINE
  8
0
 62
     0
 10
290.118
 20
85.9758
 30
0.0
 11
290.118
 21
88.9247
 31
0.0
  0
LINE
  8
0
 62
     0
 10
290.118
 20
88.9247
 30
0.0
 11
289.319
 21
88.9247
 31
0.0
  0
LINE
  8
0
 62
     0
 10
289.319
 20
88.9247
 30
0.0
 11
289.319
 21
94.8739
 31
0.0
  0
LINE
  8
0
 62
     0
 10
289.319
 20
94.8739
 30
0.0
 11
290.118
 21
94.8739
 31
0.0
  0
LINE
  8
0
 62
     0
 10
290.118
 20
94.8739
 30
0.0
 11
290.118
 21
97.8256
 31
0.0
  0
LINE
  8
0
 62
     0
 10
290.118
 20
97.8256
 30
0.0
 11
289.319
 21
97.8256
 31
0.0
  0
LINE
  8
0
 62
     0
 10
289.319
 20
97.8256
 30
0.0
 11
289.319
 21
98.8261
 31
0.0
  0
LINE
  8
0
 62
     0
 10
289.319
 20
98.8261
 30
0.0
 11
275.468
 21
98.8261
 31
0.0
  0
LINE
  8
0
 62
     0
 10
148.573
 20
105.875
 30
0.0
 11
148.147
 21
105.66
 31
0.0
  0
LINE
  8
0
 62
     0
 10
148.147
 20
105.66
 30
0.0
 11
147.81
 21
105.322
 31
0.0
  0
LINE
  8
0
 62
     0
 10
147.81
 20
105.322
 30
0.0
 11
147.593
 21
104.896
 31
0.0
  0
LINE
  8
0
 62
     0
 10
147.593
 20
104.896
 30
0.0
 11
147.519
 21
104.426
 31
0.0
  0
LINE
  8
0
 62
     0
 10
147.519
 20
104.426
 30
0.0
 11
147.593
 21
103.955
 31
0.0
  0
LINE
  8
0
 62
     0
 10
147.593
 20
103.955
 30
0.0
 11
147.81
 21
103.529
 31
0.0
  0
LINE
  8
0
 62
     0
 10
147.81
 20
103.529
 30
0.0
 11
148.147
 21
103.192
 31
0.0
  0
LINE
  8
0
 62
     0
 10
148.147
 20
103.192
 30
0.0
 11
148.573
 21
102.974
 31
0.0
  0
LINE
  8
0
 62
     0
 10
148.573
 20
102.974
 30
0.0
 11
149.043
 21
102.9
 31
0.0
  0
LINE
  8
0
 62
     0
 10
149.043
 20
102.9
 30
0.0
 11
149.514
 21
102.974
 31
0.0
  0
LINE
  8
0
 62
     0
 10
149.514
 20
102.974
 30
0.0
 11
149.94
 21
103.192
 31
0.0
  0
LINE
  8
0
 62
     0
 10
149.94
 20
103.192
 30
0.0
 11
150.278
 21
103.529
 31
0.0
  0
LINE
  8
0
 62
     0
 10
150.278
 20
103.529
 30
0.0
 11
150.494
 21
103.955
 31
0.0
  0
LINE
  8
0
 62
     0
 10
150.494
 20
103.955
 30
0.0
 11
150.569
 21
104.426
 31
0.0
  0
LINE
  8
0
 62
     0
 10
150.569
 20
104.426
 30
0.0
 11
150.494
 21
104.896
 31
0.0
  0
LINE
  8
0
 62
     0
 10
150.494
 20
104.896
 30
0.0
 11
150.278
 21
105.322
 31
0.0
  0
LINE
  8
0
 62
     0
 10
150.278
 20
105.322
 30
0.0
 11
149.94
 21
105.66
 31
0.0
  0
LINE
  8
0
 62
     0
 10
149.94
 20
105.66
 30
0.0
 11
149.514
 21
105.875
 31
0.0
  0
LINE
  8
0
 62
     0
 10
149.514
 20
105.875
 30
0.0
 11
149.043
 21
105.952
 31
0.0
  0
LINE
  8
0
 62
     0
 10
149.043
 20
105.952
 30
0.0
 11
148.573
 21
105.875
 31
0.0
  0
LINE
  8
0
 62
     0
 10
294.448
 20
105.875
 30
0.0
 11
294.022
 21
105.66
 31
0.0
  0
LINE
  8
0
 62
     0
 10
294.022
 20
105.66
 30
0.0
 11
293.686
 21
105.322
 31
0.0
  0
LINE
  8
0
 62
     0
 10
293.686
 20
105.322
 30
0.0
 11
293.468
 21
104.896
 31
0.0
  0
LINE
  8
0
 62
     0
 10
293.468
 20
104.896
 30
0.0
 11
293.395
 21
104.426
 31
0.0
  0
LINE
  8
0
 62
     0
 10
293.395
 20
104.426
 30
0.0
 11
293.468
 21
103.955
 31
0.0
  0
LINE
  8
0
 62
     0
 10
293.468
 20
103.955
 30
0.0
 11
293.686
 21
103.529
 31
0.0
  0
LINE
  8
0
 62
     0
 10
293.686
 20
103.529
 30
0.0
 11
294.022
 21
103.192
 31
0.0
  0
LINE
  8
0
 62
     0
 10
294.022
 20
103.192
 30
0.0
 11
294.448
 21
102.974
 31
0.0
  0
LINE
  8
0
 62
     0
 10
294.448
 20
102.974
 30
0.0
 11
294.919
 21
102.9
 31
0.0
  0
LINE
  8
0
 62
     0
 10
294.919
 20
102.9
 30
0.0
 11
295.391
 21
102.974
 31
0.0
  0
LINE
  8
0
 62
     0
 10
295.391
 20
102.974
 30
0.0
 11
295.815
 21
103.192
 31
0.0
  0
LINE
  8
0
 62
     0
 10
295.815
 20
103.192
 30
0.0
 11
296.153
 21
103.529
 31
0.0
  0
LINE
  8
0
 62
     0
 10
296.153
 20
103.529
 30
0.0
 11
296.369
 21
103.955
 31
0.0
  0
LINE
  8
0
 62
     0
 10
296.369
 20
103.955
 30
0.0
 11
296.445
 21
104.426
 31
0.0
  0
LINE
  8
0
 62
     0
 10
296.445
 20
104.426
 30
0.0
 11
296.369
 21
104.896
 31
0.0
  0
LINE
  8
0
 62
     0
 10
296.369
 20
104.896
 30
0.0
 11
296.153
 21
105.322
 31
0.0
  0
LINE
  8
0
 62
     0
 10
296.153
 20
105.322
 30
0.0
 11
295.815
 21
105.66
 31
0.0
  0
LINE
  8
0
 62
     0
 10
295.815
 20
105.66
 30
0.0
 11
295.391
 21
105.875
 31
0.0
  0
LINE
  8
0
 62
     0
 10
295.391
 20
105.875
 30
0.0
 11
294.919
 21
105.952
 31
0.0
  0
LINE
  8
0
 62
     0
 10
294.919
 20
105.952
 30
0.0
 11
294.448
 21
105.875
 31
0.0
  0
LINE
  8
0
 62
     0
 10
2.69682
 20
105.875
 30
0.0
 11
2.27239
 21
105.66
 31
0.0
  0
LINE
  8
0
 62
     0
 10
2.27239
 20
105.66
 30
0.0
 11
1.93477
 21
105.322
 31
0.0
  0
LINE
  8
0
 62
     0
 10
1.93477
 20
105.322
 30
0.0
 11
1.71841
 21
104.896
 31
0.0
  0
LINE
  8
0
 62
     0
 10
1.71841
 20
104.896
 30
0.0
 11
1.64262
 21
104.426
 31
0.0
  0
LINE
  8
0
 62
     0
 10
1.64262
 20
104.426
 30
0.0
 11
1.71841
 21
103.955
 31
0.0
  0
LINE
  8
0
 62
     0
 10
1.71841
 20
103.955
 30
0.0
 11
1.93477
 21
103.529
 31
0.0
  0
LINE
  8
0
 62
     0
 10
1.93477
 20
103.529
 30
0.0
 11
2.27239
 21
103.192
 31
0.0
  0
LINE
  8
0
 62
     0
 10
2.27239
 20
103.192
 30
0.0
 11
2.69682
 21
102.974
 31
0.0
  0
LINE
  8
0
 62
     0
 10
2.69682
 20
102.974
 30
0.0
 11
3.16811
 21
102.9
 31
0.0
  0
LINE
  8
0
 62
     0
 10
3.16811
 20
102.9
 30
0.0
 11
3.6394
 21
102.974
 31
0.0
  0
LINE
  8
0
 62
     0
 10
3.6394
 20
102.974
 30
0.0
 11
4.0652
 21
103.192
 31
0.0
  0
LINE
  8
0
 62
     0
 10
4.0652
 20
103.192
 30
0.0
 11
4.40147
 21
103.529
 31
0.0
  0
LINE
  8
0
 62
     0
 10
4.40147
 20
103.529
 30
0.0
 11
4.6192
 21
103.955
 31
0.0
  0
LINE
  8
0
 62
     0
 10
4.6192
 20
103.955
 30
0.0
 11
4.69223
 21
104.426
 31
0.0
  0
LINE
  8
0
 62
     0
 10
4.69223
 20
104.426
 30
0.0
 11
4.6192
 21
104.896
 31
0.0
  0
LINE
  8
0
 62
     0
 10
4.6192
 20
104.896
 30
0.0
 11
4.40147
 21
105.322
 31
0.0
  0
LINE
  8
0
 62
     0
 10
4.40147
 20
105.322
 30
0.0
 11
4.0652
 21
105.66
 31
0.0
  0
LINE
  8
0
 62
     0
 10
4.0652
 20
105.66
 30
0.0
 11
3.6394
 21
105.875
 31
0.0
  0
LINE
  8
0
 62
     0
 10
3.6394
 20
105.875
 30
0.0
 11
3.16811
 21
105.95
 31
0.0
  0
LINE
  8
0
 62
     0
 10
3.16811
 20
105.95
 30
0.0
 11
2.69682
 21
105.875
 31
0.0
  0
ENDSEC
  0
EOF
