  0
SECTION
  2
HEADER
  9
$ACADVER
  1
AC1009
  9
$EXTMIN
 10
0.0
 20
0.0
 30
0.0
  9
$EXTMAX
 10
1000.0
 20
1000.0
 30
0.0
  9
$FILLMODE
 70
 0
  9
$SPLFRAME
 70
 1
  0
ENDSEC
  0
SECTION
  2
TABLES
  0
TABLE
  2
LAYER
 70
1
  0
LAYER
  2
0
 70
     0
 62
     7
  6
CONTINUOUS
  0
ENDTAB
  0
ENDSEC
  0
SECTION
  2
ENTITIES
  0
LINE
  8
0
 62
     0
 10
295.994
 20
107.5
 30
0.0
 11
296.151
 21
107.495
 31
0.0
  0
LINE
  8
0
 62
     0
 10
296.151
 20
107.495
 30
0.0
 11
296.307
 21
107.476
 31
0.0
  0
LINE
  8
0
 62
     0
 10
296.307
 20
107.476
 30
0.0
 11
296.46
 21
107.444
 31
0.0
  0
LINE
  8
0
 62
     0
 10
296.46
 20
107.444
 30
0.0
 11
296.613
 21
107.403
 31
0.0
  0
LINE
  8
0
 62
     0
 10
296.613
 20
107.403
 30
0.0
 11
296.759
 21
107.349
 31
0.0
  0
LINE
  8
0
 62
     0
 10
296.759
 20
107.349
 30
0.0
 11
296.901
 21
107.281
 31
0.0
  0
LINE
  8
0
 62
     0
 10
296.901
 20
107.281
 30
0.0
 11
297.039
 21
107.206
 31
0.0
  0
LINE
  8
0
 62
     0
 10
297.039
 20
107.206
 30
0.0
 11
297.17
 21
107.118
 31
0.0
  0
LINE
  8
0
 62
     0
 10
297.17
 20
107.118
 30
0.0
 11
297.293
 21
107.02
 31
0.0
  0
LINE
  8
0
 62
     0
 10
297.293
 20
107.02
 30
0.0
 11
297.408
 21
106.914
 31
0.0
  0
LINE
  8
0
 62
     0
 10
297.408
 20
106.914
 30
0.0
 11
297.514
 21
106.798
 31
0.0
  0
LINE
  8
0
 62
     0
 10
297.514
 20
106.798
 30
0.0
 11
297.612
 21
106.675
 31
0.0
  0
LINE
  8
0
 62
     0
 10
297.612
 20
106.675
 30
0.0
 11
297.7
 21
106.545
 31
0.0
  0
LINE
  8
0
 62
     0
 10
297.7
 20
106.545
 30
0.0
 11
297.776
 21
106.409
 31
0.0
  0
LINE
  8
0
 62
     0
 10
297.776
 20
106.409
 30
0.0
 11
297.842
 21
106.265
 31
0.0
  0
LINE
  8
0
 62
     0
 10
297.842
 20
106.265
 30
0.0
 11
297.898
 21
106.119
 31
0.0
  0
LINE
  8
0
 62
     0
 10
297.898
 20
106.119
 30
0.0
 11
297.939
 21
105.968
 31
0.0
  0
LINE
  8
0
 62
     0
 10
297.939
 20
105.968
 30
0.0
 11
297.969
 21
105.813
 31
0.0
  0
LINE
  8
0
 62
     0
 10
297.969
 20
105.813
 30
0.0
 11
297.988
 21
105.658
 31
0.0
  0
LINE
  8
0
 62
     0
 10
297.988
 20
105.658
 30
0.0
 11
297.995
 21
105.5
 31
0.0
  0
LINE
  8
0
 62
     0
 10
297.995
 20
105.5
 30
0.0
 11
297.995
 21
2.09875
 31
0.0
  0
LINE
  8
0
 62
     0
 10
297.995
 20
2.09875
 30
0.0
 11
297.988
 21
1.94303
 31
0.0
  0
LINE
  8
0
 62
     0
 10
297.988
 20
1.94303
 30
0.0
 11
297.969
 21
1.78594
 31
0.0
  0
LINE
  8
0
 62
     0
 10
297.969
 20
1.78594
 30
0.0
 11
297.939
 21
1.63435
 31
0.0
  0
LINE
  8
0
 62
     0
 10
297.939
 20
1.63435
 30
0.0
 11
297.898
 21
1.48001
 31
0.0
  0
LINE
  8
0
 62
     0
 10
297.898
 20
1.48001
 30
0.0
 11
297.842
 21
1.33394
 31
0.0
  0
LINE
  8
0
 62
     0
 10
297.842
 20
1.33394
 30
0.0
 11
297.776
 21
1.19338
 31
0.0
  0
LINE
  8
0
 62
     0
 10
297.776
 20
1.19338
 30
0.0
 11
297.7
 21
1.0542
 31
0.0
  0
LINE
  8
0
 62
     0
 10
297.7
 20
1.0542
 30
0.0
 11
297.612
 21
0.923286
 31
0.0
  0
LINE
  8
0
 62
     0
 10
297.612
 20
0.923286
 30
0.0
 11
297.514
 21
0.80064
 31
0.0
  0
LINE
  8
0
 62
     0
 10
297.514
 20
0.80064
 30
0.0
 11
297.408
 21
0.684886
 31
0.0
  0
LINE
  8
0
 62
     0
 10
297.408
 20
0.684886
 30
0.0
 11
297.293
 21
0.578778
 31
0.0
  0
LINE
  8
0
 62
     0
 10
297.293
 20
0.578778
 30
0.0
 11
297.17
 21
0.480935
 31
0.0
  0
LINE
  8
0
 62
     0
 10
297.17
 20
0.480935
 30
0.0
 11
297.039
 21
0.39274
 31
0.0
  0
LINE
  8
0
 62
     0
 10
297.039
 20
0.39274
 30
0.0
 11
296.901
 21
0.316949
 31
0.0
  0
LINE
  8
0
 62
     0
 10
296.901
 20
0.316949
 30
0.0
 11
296.759
 21
0.252181
 31
0.0
  0
LINE
  8
0
 62
     0
 10
296.759
 20
0.252181
 30
0.0
 11
296.613
 21
0.195682
 31
0.0
  0
LINE
  8
0
 62
     0
 10
296.613
 20
0.195682
 30
0.0
 11
296.46
 21
0.15434
 31
0.0
  0
LINE
  8
0
 62
     0
 10
296.46
 20
0.15434
 30
0.0
 11
296.307
 21
0.124024
 31
0.0
  0
LINE
  8
0
 62
     0
 10
296.307
 20
0.124024
 30
0.0
 11
296.151
 21
0.106109
 31
0.0
  0
LINE
  8
0
 62
     0
 10
296.151
 20
0.106109
 30
0.0
 11
295.994
 21
0.0992188
 31
0.0
  0
LINE
  8
0
 62
     0
 10
295.994
 20
0.0992188
 30
0.0
 11
2.09324
 21
0.0978408
 31
0.0
  0
LINE
  8
0
 62
     0
 10
2.09324
 20
0.0978408
 30
0.0
 11
1.93614
 21
0.106109
 31
0.0
  0
LINE
  8
0
 62
     0
 10
1.93614
 20
0.106109
 30
0.0
 11
1.78043
 21
0.124024
 31
0.0
  0
LINE
  8
0
 62
     0
 10
1.78043
 20
0.124024
 30
0.0
 11
1.62609
 21
0.15434
 31
0.0
  0
LINE
  8
0
 62
     0
 10
1.62609
 20
0.15434
 30
0.0
 11
1.4745
 21
0.195682
 31
0.0
  0
LINE
  8
0
 62
     0
 10
1.4745
 20
0.195682
 30
0.0
 11
1.32843
 21
0.252181
 31
0.0
  0
LINE
  8
0
 62
     0
 10
1.32843
 20
0.252181
 30
0.0
 11
1.18511
 21
0.316949
 31
0.0
  0
LINE
  8
0
 62
     0
 10
1.18511
 20
0.316949
 30
0.0
 11
1.04869
 21
0.39274
 31
0.0
  0
LINE
  8
0
 62
     0
 10
1.04869
 20
0.39274
 30
0.0
 11
0.917773
 21
0.480935
 31
0.0
  0
LINE
  8
0
 62
     0
 10
0.917773
 20
0.480935
 30
0.0
 11
0.795129
 21
0.578778
 31
0.0
  0
LINE
  8
0
 62
     0
 10
0.795129
 20
0.578778
 30
0.0
 11
0.679372
 21
0.684886
 31
0.0
  0
LINE
  8
0
 62
     0
 10
0.679372
 20
0.684886
 30
0.0
 11
0.573264
 21
0.80064
 31
0.0
  0
LINE
  8
0
 62
     0
 10
0.573264
 20
0.80064
 30
0.0
 11
0.475424
 21
0.923286
 31
0.0
  0
LINE
  8
0
 62
     0
 10
0.475424
 20
0.923286
 30
0.0
 11
0.38723
 21
1.0542
 31
0.0
  0
LINE
  8
0
 62
     0
 10
0.38723
 20
1.0542
 30
0.0
 11
0.311437
 21
1.19338
 31
0.0
  0
LINE
  8
0
 62
     0
 10
0.311437
 20
1.19338
 30
0.0
 11
0.245291
 21
1.33394
 31
0.0
  0
LINE
  8
0
 62
     0
 10
0.245291
 20
1.33394
 30
0.0
 11
0.190169
 21
1.48001
 31
0.0
  0
LINE
  8
0
 62
     0
 10
0.190169
 20
1.48001
 30
0.0
 11
0.148828
 21
1.63435
 31
0.0
  0
LINE
  8
0
 62
     0
 10
0.148828
 20
1.63435
 30
0.0
 11
0.117133
 21
1.78594
 31
0.0
  0
LINE
  8
0
 62
     0
 10
0.117133
 20
1.78594
 30
0.0
 11
0.0992188
 21
1.94303
 31
0.0
  0
LINE
  8
0
 62
     0
 10
0.0992188
 20
1.94303
 30
0.0
 11
0.0923286
 21
2.09875
 31
0.0
  0
LINE
  8
0
 62
     0
 10
0.0923286
 20
2.09875
 30
0.0
 11
0.0937066
 21
105.5
 31
0.0
  0
LINE
  8
0
 62
     0
 10
0.0937066
 20
105.5
 30
0.0
 11
0.0992188
 21
105.658
 31
0.0
  0
LINE
  8
0
 62
     0
 10
0.0992188
 20
105.658
 30
0.0
 11
0.117133
 21
105.813
 31
0.0
  0
LINE
  8
0
 62
     0
 10
0.117133
 20
105.813
 30
0.0
 11
0.148828
 21
105.968
 31
0.0
  0
LINE
  8
0
 62
     0
 10
0.148828
 20
105.968
 30
0.0
 11
0.190169
 21
106.119
 31
0.0
  0
LINE
  8
0
 62
     0
 10
0.190169
 20
106.119
 30
0.0
 11
0.245291
 21
106.265
 31
0.0
  0
LINE
  8
0
 62
     0
 10
0.245291
 20
106.265
 30
0.0
 11
0.311437
 21
106.409
 31
0.0
  0
LINE
  8
0
 62
     0
 10
0.311437
 20
106.409
 30
0.0
 11
0.38723
 21
106.545
 31
0.0
  0
LINE
  8
0
 62
     0
 10
0.38723
 20
106.545
 30
0.0
 11
0.475424
 21
106.675
 31
0.0
  0
LINE
  8
0
 62
     0
 10
0.475424
 20
106.675
 30
0.0
 11
0.573264
 21
106.798
 31
0.0
  0
LINE
  8
0
 62
     0
 10
0.573264
 20
106.798
 30
0.0
 11
0.679372
 21
106.914
 31
0.0
  0
LINE
  8
0
 62
     0
 10
0.679372
 20
106.914
 30
0.0
 11
0.795129
 21
107.02
 31
0.0
  0
LINE
  8
0
 62
     0
 10
0.795129
 20
107.02
 30
0.0
 11
0.917773
 21
107.118
 31
0.0
  0
LINE
  8
0
 62
     0
 10
0.917773
 20
107.118
 30
0.0
 11
1.04869
 21
107.206
 31
0.0
  0
LINE
  8
0
 62
     0
 10
1.04869
 20
107.206
 30
0.0
 11
1.18511
 21
107.281
 31
0.0
  0
LINE
  8
0
 62
     0
 10
1.18511
 20
107.281
 30
0.0
 11
1.32843
 21
107.349
 31
0.0
  0
LINE
  8
0
 62
     0
 10
1.32843
 20
107.349
 30
0.0
 11
1.4745
 21
107.403
 31
0.0
  0
LINE
  8
0
 62
     0
 10
1.4745
 20
107.403
 30
0.0
 11
1.62609
 21
107.444
 31
0.0
  0
LINE
  8
0
 62
     0
 10
1.62609
 20
107.444
 30
0.0
 11
1.78043
 21
107.476
 31
0.0
  0
LINE
  8
0
 62
     0
 10
1.78043
 20
107.476
 30
0.0
 11
1.93614
 21
107.495
 31
0.0
  0
LINE
  8
0
 62
     0
 10
1.93614
 20
107.495
 30
0.0
 11
2.09324
 21
107.501
 31
0.0
  0
LINE
  8
0
 62
     0
 10
2.09324
 20
107.501
 30
0.0
 11
295.994
 21
107.5
 31
0.0
  0
LINE
  8
0
 62
     0
 10
294.448
 20
4.6247
 30
0.0
 11
294.022
 21
4.40697
 31
0.0
  0
LINE
  8
0
 62
     0
 10
294.022
 20
4.40697
 30
0.0
 11
293.686
 21
4.07211
 31
0.0
  0
LINE
  8
0
 62
     0
 10
293.686
 20
4.07211
 30
0.0
 11
293.468
 21
3.64628
 31
0.0
  0
LINE
  8
0
 62
     0
 10
293.468
 20
3.64628
 30
0.0
 11
293.395
 21
3.17638
 31
0.0
  0
LINE
  8
0
 62
     0
 10
293.395
 20
3.17638
 30
0.0
 11
293.468
 21
2.70233
 31
0.0
  0
LINE
  8
0
 62
     0
 10
293.468
 20
2.70233
 30
0.0
 11
293.686
 21
2.27928
 31
0.0
  0
LINE
  8
0
 62
     0
 10
293.686
 20
2.27928
 30
0.0
 11
294.022
 21
1.94166
 31
0.0
  0
LINE
  8
0
 62
     0
 10
294.022
 20
1.94166
 30
0.0
 11
294.448
 21
1.72393
 31
0.0
  0
LINE
  8
0
 62
     0
 10
294.448
 20
1.72393
 30
0.0
 11
294.919
 21
1.64951
 31
0.0
  0
LINE
  8
0
 62
     0
 10
294.919
 20
1.64951
 30
0.0
 11
295.391
 21
1.72393
 31
0.0
  0
LINE
  8
0
 62
     0
 10
295.391
 20
1.72393
 30
0.0
 11
295.815
 21
1.94166
 31
0.0
  0
LINE
  8
0
 62
     0
 10
295.815
 20
1.94166
 30
0.0
 11
296.153
 21
2.27928
 31
0.0
  0
LINE
  8
0
 62
     0
 10
296.153
 20
2.27928
 30
0.0
 11
296.369
 21
2.70233
 31
0.0
  0
LINE
  8
0
 62
     0
 10
296.369
 20
2.70233
 30
0.0
 11
296.445
 21
3.17638
 31
0.0
  0
LINE
  8
0
 62
     0
 10
296.445
 20
3.17638
 30
0.0
 11
296.369
 21
3.64628
 31
0.0
  0
LINE
  8
0
 62
     0
 10
296.369
 20
3.64628
 30
0.0
 11
296.153
 21
4.07211
 31
0.0
  0
LINE
  8
0
 62
     0
 10
296.153
 20
4.07211
 30
0.0
 11
295.815
 21
4.40697
 31
0.0
  0
LINE
  8
0
 62
     0
 10
295.815
 20
4.40697
 30
0.0
 11
295.391
 21
4.6247
 31
0.0
  0
LINE
  8
0
 62
     0
 10
295.391
 20
4.6247
 30
0.0
 11
294.919
 21
4.69911
 31
0.0
  0
LINE
  8
0
 62
     0
 10
294.919
 20
4.69911
 30
0.0
 11
294.448
 21
4.6247
 31
0.0
  0
LINE
  8
0
 62
     0
 10
148.573
 20
4.6247
 30
0.0
 11
148.147
 21
4.40697
 31
0.0
  0
LINE
  8
0
 62
     0
 10
148.147
 20
4.40697
 30
0.0
 11
147.81
 21
4.07211
 31
0.0
  0
LINE
  8
0
 62
     0
 10
147.81
 20
4.07211
 30
0.0
 11
147.593
 21
3.64628
 31
0.0
  0
LINE
  8
0
 62
     0
 10
147.593
 20
3.64628
 30
0.0
 11
147.519
 21
3.17638
 31
0.0
  0
LINE
  8
0
 62
     0
 10
147.519
 20
3.17638
 30
0.0
 11
147.593
 21
2.70233
 31
0.0
  0
LINE
  8
0
 62
     0
 10
147.593
 20
2.70233
 30
0.0
 11
147.81
 21
2.27928
 31
0.0
  0
LINE
  8
0
 62
     0
 10
147.81
 20
2.27928
 30
0.0
 11
148.147
 21
1.94166
 31
0.0
  0
LINE
  8
0
 62
     0
 10
148.147
 20
1.94166
 30
0.0
 11
148.573
 21
1.72393
 31
0.0
  0
LINE
  8
0
 62
     0
 10
148.573
 20
1.72393
 30
0.0
 11
149.043
 21
1.64951
 31
0.0
  0
LINE
  8
0
 62
     0
 10
149.043
 20
1.64951
 30
0.0
 11
149.514
 21
1.72393
 31
0.0
  0
LINE
  8
0
 62
     0
 10
149.514
 20
1.72393
 30
0.0
 11
149.94
 21
1.94166
 31
0.0
  0
LINE
  8
0
 62
     0
 10
149.94
 20
1.94166
 30
0.0
 11
150.278
 21
2.27928
 31
0.0
  0
LINE
  8
0
 62
     0
 10
150.278
 20
2.27928
 30
0.0
 11
150.494
 21
2.70233
 31
0.0
  0
LINE
  8
0
 62
     0
 10
150.494
 20
2.70233
 30
0.0
 11
150.569
 21
3.17638
 31
0.0
  0
LINE
  8
0
 62
     0
 10
150.569
 20
3.17638
 30
0.0
 11
150.494
 21
3.64628
 31
0.0
  0
LINE
  8
0
 62
     0
 10
150.494
 20
3.64628
 30
0.0
 11
150.278
 21
4.07211
 31
0.0
  0
LINE
  8
0
 62
     0
 10
150.278
 20
4.07211
 30
0.0
 11
149.94
 21
4.40697
 31
0.0
  0
LINE
  8
0
 62
     0
 10
149.94
 20
4.40697
 30
0.0
 11
149.514
 21
4.6247
 31
0.0
  0
LINE
  8
0
 62
     0
 10
149.514
 20
4.6247
 30
0.0
 11
149.043
 21
4.69911
 31
0.0
  0
LINE
  8
0
 62
     0
 10
149.043
 20
4.69911
 30
0.0
 11
148.573
 21
4.6247
 31
0.0
  0
LINE
  8
0
 62
     0
 10
2.69682
 20
4.6247
 30
0.0
 11
2.27239
 21
4.40697
 31
0.0
  0
LINE
  8
0
 62
     0
 10
2.27239
 20
4.40697
 30
0.0
 11
1.93477
 21
4.07211
 31
0.0
  0
LINE
  8
0
 62
     0
 10
1.93477
 20
4.07211
 30
0.0
 11
1.71841
 21
3.64628
 31
0.0
  0
LINE
  8
0
 62
     0
 10
1.71841
 20
3.64628
 30
0.0
 11
1.64262
 21
3.17638
 31
0.0
  0
LINE
  8
0
 62
     0
 10
1.64262
 20
3.17638
 30
0.0
 11
1.71841
 21
2.70233
 31
0.0
  0
LINE
  8
0
 62
     0
 10
1.71841
 20
2.70233
 30
0.0
 11
1.93477
 21
2.27928
 31
0.0
  0
LINE
  8
0
 62
     0
 10
1.93477
 20
2.27928
 30
0.0
 11
2.27239
 21
1.94166
 31
0.0
  0
LINE
  8
0
 62
     0
 10
2.27239
 20
1.94166
 30
0.0
 11
2.69682
 21
1.72393
 31
0.0
  0
LINE
  8
0
 62
     0
 10
2.69682
 20
1.72393
 30
0.0
 11
3.16811
 21
1.64951
 31
0.0
  0
LINE
  8
0
 62
     0
 10
3.16811
 20
1.64951
 30
0.0
 11
3.6394
 21
1.72393
 31
0.0
  0
LINE
  8
0
 62
     0
 10
3.6394
 20
1.72393
 30
0.0
 11
4.0652
 21
1.94166
 31
0.0
  0
LINE
  8
0
 62
     0
 10
4.0652
 20
1.94166
 30
0.0
 11
4.40147
 21
2.27928
 31
0.0
  0
LINE
  8
0
 62
     0
 10
4.40147
 20
2.27928
 30
0.0
 11
4.6192
 21
2.70233
 31
0.0
  0
LINE
  8
0
 62
     0
 10
4.6192
 20
2.70233
 30
0.0
 11
4.69223
 21
3.17638
 31
0.0
  0
LINE
  8
0
 62
     0
 10
4.69223
 20
3.17638
 30
0.0
 11
4.6192
 21
3.64628
 31
0.0
  0
LINE
  8
0
 62
     0
 10
4.6192
 20
3.64628
 30
0.0
 11
4.40147
 21
4.07211
 31
0.0
  0
LINE
  8
0
 62
     0
 10
4.40147
 20
4.07211
 30
0.0
 11
4.0652
 21
4.40697
 31
0.0
  0
LINE
  8
0
 62
     0
 10
4.0652
 20
4.40697
 30
0.0
 11
3.6394
 21
4.6247
 31
0.0
  0
LINE
  8
0
 62
     0
 10
3.6394
 20
4.6247
 30
0.0
 11
3.16811
 21
4.69911
 31
0.0
  0
LINE
  8
0
 62
     0
 10
3.16811
 20
4.69911
 30
0.0
 11
2.69682
 21
4.6247
 31
0.0
  0
LINE
  8
0
 62
     0
 10
6.16811
 20
101.426
 30
0.0
 11
6.16811
 21
44.2764
 31
0.0
  0
LINE
  8
0
 62
     0
 10
6.16811
 20
44.2764
 30
0.0
 11
6.16673
 21
44.2764
 31
0.0
  0
LINE
  8
0
 62
     0
 10
6.16673
 20
44.2764
 30
0.0
 11
6.16673
 21
25.225
 31
0.0
  0
LINE
  8
0
 62
     0
 10
6.16673
 20
25.225
 30
0.0
 11
39.5041
 21
25.225
 31
0.0
  0
LINE
  8
0
 62
     0
 10
39.5041
 20
25.225
 30
0.0
 11
39.5041
 21
6.17499
 31
0.0
  0
LINE
  8
0
 62
     0
 10
39.5041
 20
6.17499
 30
0.0
 11
277.632
 21
6.17499
 31
0.0
  0
LINE
  8
0
 62
     0
 10
277.632
 20
6.17499
 30
0.0
 11
277.632
 21
25.225
 31
0.0
  0
LINE
  8
0
 62
     0
 10
277.632
 20
25.225
 30
0.0
 11
291.919
 21
25.225
 31
0.0
  0
LINE
  8
0
 62
     0
 10
291.919
 20
25.225
 30
0.0
 11
291.919
 21
101.426
 31
0.0
  0
LINE
  8
0
 62
     0
 10
291.919
 20
101.426
 30
0.0
 11
6.16811
 21
101.426
 31
0.0
  0
LINE
  8
0
 62
     0
 10
29.982
 20
63.325
 30
0.0
 11
39.5041
 21
63.325
 31
0.0
  0
LINE
  8
0
 62
     0
 10
39.5041
 20
63.325
 30
0.0
 11
39.5041
 21
44.2764
 31
0.0
  0
LINE
  8
0
 62
     0
 10
39.5041
 20
44.2764
 30
0.0
 11
29.982
 21
44.2764
 31
0.0
  0
LINE
  8
0
 62
     0
 10
29.982
 20
44.2764
 30
0.0
 11
29.982
 21
63.325
 31
0.0
  0
LINE
  8
0
 62
     0
 10
148.573
 20
105.875
 30
0.0
 11
148.147
 21
105.66
 31
0.0
  0
LINE
  8
0
 62
     0
 10
148.147
 20
105.66
 30
0.0
 11
147.81
 21
105.322
 31
0.0
  0
LINE
  8
0
 62
     0
 10
147.81
 20
105.322
 30
0.0
 11
147.593
 21
104.896
 31
0.0
  0
LINE
  8
0
 62
     0
 10
147.593
 20
104.896
 30
0.0
 11
147.519
 21
104.426
 31
0.0
  0
LINE
  8
0
 62
     0
 10
147.519
 20
104.426
 30
0.0
 11
147.593
 21
103.955
 31
0.0
  0
LINE
  8
0
 62
     0
 10
147.593
 20
103.955
 30
0.0
 11
147.81
 21
103.529
 31
0.0
  0
LINE
  8
0
 62
     0
 10
147.81
 20
103.529
 30
0.0
 11
148.147
 21
103.192
 31
0.0
  0
LINE
  8
0
 62
     0
 10
148.147
 20
103.192
 30
0.0
 11
148.573
 21
102.974
 31
0.0
  0
LINE
  8
0
 62
     0
 10
148.573
 20
102.974
 30
0.0
 11
149.043
 21
102.9
 31
0.0
  0
LINE
  8
0
 62
     0
 10
149.043
 20
102.9
 30
0.0
 11
149.514
 21
102.974
 31
0.0
  0
LINE
  8
0
 62
     0
 10
149.514
 20
102.974
 30
0.0
 11
149.94
 21
103.192
 31
0.0
  0
LINE
  8
0
 62
     0
 10
149.94
 20
103.192
 30
0.0
 11
150.278
 21
103.529
 31
0.0
  0
LINE
  8
0
 62
     0
 10
150.278
 20
103.529
 30
0.0
 11
150.494
 21
103.955
 31
0.0
  0
LINE
  8
0
 62
     0
 10
150.494
 20
103.955
 30
0.0
 11
150.569
 21
104.426
 31
0.0
  0
LINE
  8
0
 62
     0
 10
150.569
 20
104.426
 30
0.0
 11
150.494
 21
104.896
 31
0.0
  0
LINE
  8
0
 62
     0
 10
150.494
 20
104.896
 30
0.0
 11
150.278
 21
105.322
 31
0.0
  0
LINE
  8
0
 62
     0
 10
150.278
 20
105.322
 30
0.0
 11
149.94
 21
105.66
 31
0.0
  0
LINE
  8
0
 62
     0
 10
149.94
 20
105.66
 30
0.0
 11
149.514
 21
105.875
 31
0.0
  0
LINE
  8
0
 62
     0
 10
149.514
 20
105.875
 30
0.0
 11
149.043
 21
105.952
 31
0.0
  0
LINE
  8
0
 62
     0
 10
149.043
 20
105.952
 30
0.0
 11
148.573
 21
105.875
 31
0.0
  0
LINE
  8
0
 62
     0
 10
294.448
 20
105.875
 30
0.0
 11
294.022
 21
105.66
 31
0.0
  0
LINE
  8
0
 62
     0
 10
294.022
 20
105.66
 30
0.0
 11
293.686
 21
105.322
 31
0.0
  0
LINE
  8
0
 62
     0
 10
293.686
 20
105.322
 30
0.0
 11
293.468
 21
104.896
 31
0.0
  0
LINE
  8
0
 62
     0
 10
293.468
 20
104.896
 30
0.0
 11
293.395
 21
104.426
 31
0.0
  0
LINE
  8
0
 62
     0
 10
293.395
 20
104.426
 30
0.0
 11
293.468
 21
103.955
 31
0.0
  0
LINE
  8
0
 62
     0
 10
293.468
 20
103.955
 30
0.0
 11
293.686
 21
103.529
 31
0.0
  0
LINE
  8
0
 62
     0
 10
293.686
 20
103.529
 30
0.0
 11
294.022
 21
103.192
 31
0.0
  0
LINE
  8
0
 62
     0
 10
294.022
 20
103.192
 30
0.0
 11
294.448
 21
102.974
 31
0.0
  0
LINE
  8
0
 62
     0
 10
294.448
 20
102.974
 30
0.0
 11
294.919
 21
102.9
 31
0.0
  0
LINE
  8
0
 62
     0
 10
294.919
 20
102.9
 30
0.0
 11
295.391
 21
102.974
 31
0.0
  0
LINE
  8
0
 62
     0
 10
295.391
 20
102.974
 30
0.0
 11
295.815
 21
103.192
 31
0.0
  0
LINE
  8
0
 62
     0
 10
295.815
 20
103.192
 30
0.0
 11
296.153
 21
103.529
 31
0.0
  0
LINE
  8
0
 62
     0
 10
296.153
 20
103.529
 30
0.0
 11
296.369
 21
103.955
 31
0.0
  0
LINE
  8
0
 62
     0
 10
296.369
 20
103.955
 30
0.0
 11
296.445
 21
104.426
 31
0.0
  0
LINE
  8
0
 62
     0
 10
296.445
 20
104.426
 30
0.0
 11
296.369
 21
104.896
 31
0.0
  0
LINE
  8
0
 62
     0
 10
296.369
 20
104.896
 30
0.0
 11
296.153
 21
105.322
 31
0.0
  0
LINE
  8
0
 62
     0
 10
296.153
 20
105.322
 30
0.0
 11
295.815
 21
105.66
 31
0.0
  0
LINE
  8
0
 62
     0
 10
295.815
 20
105.66
 30
0.0
 11
295.391
 21
105.875
 31
0.0
  0
LINE
  8
0
 62
     0
 10
295.391
 20
105.875
 30
0.0
 11
294.919
 21
105.952
 31
0.0
  0
LINE
  8
0
 62
     0
 10
294.919
 20
105.952
 30
0.0
 11
294.448
 21
105.875
 31
0.0
  0
LINE
  8
0
 62
     0
 10
2.69682
 20
105.875
 30
0.0
 11
2.27239
 21
105.66
 31
0.0
  0
LINE
  8
0
 62
     0
 10
2.27239
 20
105.66
 30
0.0
 11
1.93477
 21
105.322
 31
0.0
  0
LINE
  8
0
 62
     0
 10
1.93477
 20
105.322
 30
0.0
 11
1.71841
 21
104.896
 31
0.0
  0
LINE
  8
0
 62
     0
 10
1.71841
 20
104.896
 30
0.0
 11
1.64262
 21
104.426
 31
0.0
  0
LINE
  8
0
 62
     0
 10
1.64262
 20
104.426
 30
0.0
 11
1.71841
 21
103.955
 31
0.0
  0
LINE
  8
0
 62
     0
 10
1.71841
 20
103.955
 30
0.0
 11
1.93477
 21
103.529
 31
0.0
  0
LINE
  8
0
 62
     0
 10
1.93477
 20
103.529
 30
0.0
 11
2.27239
 21
103.192
 31
0.0
  0
LINE
  8
0
 62
     0
 10
2.27239
 20
103.192
 30
0.0
 11
2.69682
 21
102.974
 31
0.0
  0
LINE
  8
0
 62
     0
 10
2.69682
 20
102.974
 30
0.0
 11
3.16811
 21
102.9
 31
0.0
  0
LINE
  8
0
 62
     0
 10
3.16811
 20
102.9
 30
0.0
 11
3.6394
 21
102.974
 31
0.0
  0
LINE
  8
0
 62
     0
 10
3.6394
 20
102.974
 30
0.0
 11
4.0652
 21
103.192
 31
0.0
  0
LINE
  8
0
 62
     0
 10
4.0652
 20
103.192
 30
0.0
 11
4.40147
 21
103.529
 31
0.0
  0
LINE
  8
0
 62
     0
 10
4.40147
 20
103.529
 30
0.0
 11
4.6192
 21
103.955
 31
0.0
  0
LINE
  8
0
 62
     0
 10
4.6192
 20
103.955
 30
0.0
 11
4.69223
 21
104.426
 31
0.0
  0
LINE
  8
0
 62
     0
 10
4.69223
 20
104.426
 30
0.0
 11
4.6192
 21
104.896
 31
0.0
  0
LINE
  8
0
 62
     0
 10
4.6192
 20
104.896
 30
0.0
 11
4.40147
 21
105.322
 31
0.0
  0
LINE
  8
0
 62
     0
 10
4.40147
 20
105.322
 30
0.0
 11
4.0652
 21
105.66
 31
0.0
  0
LINE
  8
0
 62
     0
 10
4.0652
 20
105.66
 30
0.0
 11
3.6394
 21
105.875
 31
0.0
  0
LINE
  8
0
 62
     0
 10
3.6394
 20
105.875
 30
0.0
 11
3.16811
 21
105.95
 31
0.0
  0
LINE
  8
0
 62
     0
 10
3.16811
 20
105.95
 30
0.0
 11
2.69682
 21
105.875
 31
0.0
  0
ENDSEC
  0
EOF
