M48
;DRILL file {KiCad 4.0.4+dfsg1-stable} date Tue Nov  8 21:14:40 2016
;FORMAT={-:-/ absolute / metric / decimal}
FMAT,2
METRIC,TZ
T1C0.991
T2C1.092
T3C1.499
%
G90
G05
M71
T1
X76.994Y-86.201
X76.994Y-96.361
X82.074Y-80.962
X84.614Y-80.962
X90.487Y-33.02
X90.487Y-43.18
X92.869Y-71.12
X92.869Y-81.28
X95.25Y-52.07
X95.25Y-62.23
X102.394Y-90.17
X102.394Y-100.33
X109.537Y-33.02
X109.537Y-43.18
X119.062Y-52.07
X119.062Y-62.23
X123.825Y-71.12
X123.825Y-81.28
X123.825Y-109.22
X123.825Y-119.38
X128.588Y-33.02
X128.588Y-43.18
X133.35Y-90.17
X133.35Y-100.33
X138.112Y-52.07
X138.112Y-62.23
X142.875Y-71.12
X142.875Y-81.28
X147.637Y-33.02
X147.637Y-43.18
X147.637Y-109.22
X147.637Y-119.38
X152.4Y-90.17
X152.4Y-100.33
X157.162Y-52.07
X157.162Y-62.23
X161.925Y-71.12
X161.925Y-81.28
X166.688Y-33.02
X166.688Y-43.18
X171.45Y-90.17
X171.45Y-100.33
X176.213Y-52.07
X176.213Y-62.23
X180.975Y-71.12
X180.975Y-81.28
X185.737Y-33.02
X185.737Y-43.18
X190.5Y-90.17
X190.5Y-100.33
X195.262Y-52.07
X195.262Y-62.23
X200.025Y-71.12
X200.025Y-81.28
X204.787Y-33.02
X204.787Y-43.18
X209.55Y-90.17
X209.55Y-100.33
X214.312Y-52.07
X214.312Y-62.23
X219.075Y-71.12
X219.075Y-81.28
X223.837Y-33.02
X223.837Y-43.18
X223.837Y-109.22
X223.837Y-119.38
X228.6Y-90.17
X228.6Y-100.33
X233.362Y-52.07
X233.362Y-62.23
X238.125Y-71.12
X238.125Y-81.28
X242.887Y-33.02
X242.887Y-43.18
X247.65Y-90.17
X247.65Y-100.33
X252.412Y-52.07
X252.412Y-62.23
X257.175Y-71.12
X257.175Y-81.28
X261.938Y-33.02
X261.938Y-43.18
X266.7Y-90.17
X266.7Y-100.33
X271.462Y-52.07
X271.462Y-62.23
X276.225Y-71.12
X276.225Y-81.28
X280.988Y-33.02
X280.988Y-43.18
X283.369Y-109.22
X283.369Y-119.38
X285.75Y-90.17
X285.75Y-100.33
X290.512Y-52.07
X290.512Y-62.23
X295.275Y-71.12
X295.275Y-81.28
X300.037Y-33.02
X300.037Y-43.18
X304.8Y-90.17
X304.8Y-100.33
X304.8Y-109.22
X304.8Y-119.38
X309.562Y-52.07
X309.562Y-62.23
X314.325Y-71.12
X314.325Y-81.28
X319.087Y-33.02
X319.087Y-43.18
X323.85Y-90.17
X323.85Y-100.33
X323.85Y-109.22
X323.85Y-119.38
X328.613Y-52.07
X328.613Y-62.23
X338.137Y-33.02
X338.137Y-43.18
X342.9Y-109.22
X342.9Y-119.38
X345.281Y-71.12
X345.281Y-81.28
X350.044Y-90.17
X350.044Y-100.33
X352.425Y-52.07
X352.425Y-62.23
X352.901Y-36.036
X352.901Y-46.196
T2
X169.386Y-104.299
X169.386Y-119.539
X171.926Y-104.299
X171.926Y-119.539
X174.466Y-104.299
X174.466Y-119.539
X177.006Y-104.299
X177.006Y-119.539
X179.546Y-104.299
X179.546Y-106.839
X179.546Y-116.999
X179.546Y-119.539
X182.086Y-104.299
X182.086Y-119.539
X184.626Y-104.299
X184.626Y-119.539
X187.166Y-104.299
X187.166Y-119.539
X189.706Y-104.299
X189.706Y-119.539
X192.246Y-104.299
X192.246Y-119.539
X194.786Y-104.299
X194.786Y-119.539
X197.326Y-104.299
X197.326Y-106.839
X197.326Y-109.379
X197.326Y-111.919
X197.326Y-114.459
X197.326Y-116.999
X197.326Y-119.539
T3
X77.153Y-35.56
X79.534Y-73.66
X81.915Y-54.61
X83.502Y-33.02
X85.884Y-71.12
X88.265Y-52.07
X89.059Y-92.71
X95.409Y-90.17
X96.203Y-35.56
X102.552Y-33.02
X105.727Y-54.61
X110.49Y-73.66
X110.49Y-111.76
X112.078Y-52.07
X115.252Y-35.56
X116.84Y-71.12
X116.84Y-109.22
X120.015Y-92.71
X121.602Y-33.02
X124.777Y-54.61
X126.365Y-90.17
X129.54Y-73.66
X131.127Y-52.07
X131.921Y-111.76
X134.302Y-35.56
X135.89Y-71.12
X138.271Y-109.22
X139.065Y-92.71
X140.653Y-33.02
X143.827Y-54.61
X145.415Y-90.17
X148.59Y-73.66
X150.177Y-52.07
X153.352Y-35.56
X154.94Y-71.12
X158.115Y-92.71
X159.702Y-33.02
X162.877Y-54.61
X164.465Y-90.17
X167.64Y-73.66
X169.227Y-52.07
X172.403Y-35.56
X173.99Y-71.12
X177.165Y-92.71
X178.752Y-33.02
X181.927Y-54.61
X183.515Y-90.17
X186.69Y-73.66
X188.278Y-52.07
X191.452Y-35.56
X193.04Y-71.12
X196.215Y-92.71
X197.802Y-33.02
X200.977Y-54.61
X202.565Y-90.17
X205.74Y-73.66
X207.327Y-52.07
X210.502Y-35.56
X210.502Y-111.76
X212.09Y-71.12
X215.265Y-92.71
X216.852Y-33.02
X216.852Y-109.22
X220.028Y-54.61
X221.615Y-90.17
X224.79Y-73.66
X226.377Y-52.07
X229.552Y-35.56
X231.14Y-71.12
X234.315Y-92.71
X235.903Y-33.02
X239.077Y-54.61
X240.665Y-90.17
X243.84Y-73.66
X245.427Y-52.07
X248.602Y-35.56
X250.19Y-71.12
X253.365Y-92.71
X254.952Y-33.02
X258.127Y-54.61
X259.715Y-90.17
X262.89Y-73.66
X264.477Y-52.07
X267.652Y-35.56
X269.24Y-71.12
X270.034Y-111.76
X272.415Y-92.71
X274.002Y-33.02
X276.384Y-109.22
X277.178Y-54.61
X278.765Y-90.17
X281.94Y-73.66
X283.527Y-52.07
X286.702Y-35.56
X288.29Y-71.12
X291.465Y-92.71
X291.465Y-111.76
X293.053Y-33.02
X296.227Y-54.61
X297.815Y-90.17
X297.815Y-109.22
X300.99Y-73.66
X302.577Y-52.07
X305.752Y-35.56
X307.34Y-71.12
X310.515Y-92.71
X310.515Y-111.76
X312.102Y-33.02
X315.277Y-54.61
X316.865Y-90.17
X316.865Y-109.22
X321.627Y-52.07
X324.803Y-35.56
X329.565Y-111.76
X331.152Y-33.02
X331.946Y-73.66
X335.915Y-109.22
X336.709Y-92.71
X338.296Y-71.12
X339.09Y-54.61
X343.059Y-90.17
X343.852Y-35.56
X345.44Y-52.07
X350.202Y-33.02
T0
M30
