M48
;DRILL file {KiCad 4.0.4+dfsg1-stable} date Tue Nov  8 21:14:40 2016
;FORMAT={-:-/ absolute / metric / decimal}
FMAT,2
METRIC,TZ
T1C3.988
%
G90
G05
M71
T1
X80.962Y-38.1
X83.344Y-76.2
X85.725Y-57.15
X92.869Y-95.25
X100.012Y-38.1
X109.537Y-57.15
X114.3Y-76.2
X114.3Y-114.3
X119.062Y-38.1
X123.825Y-95.25
X128.588Y-57.15
X133.35Y-76.2
X135.731Y-114.3
X138.112Y-38.1
X142.875Y-95.25
X147.637Y-57.15
X152.4Y-76.2
X157.162Y-38.1
X161.925Y-95.25
X166.688Y-57.15
X171.45Y-76.2
X176.213Y-38.1
X180.975Y-95.25
X185.737Y-57.15
X190.5Y-76.2
X195.262Y-38.1
X200.025Y-95.25
X204.787Y-57.15
X209.55Y-76.2
X214.312Y-38.1
X214.312Y-114.3
X219.075Y-95.25
X223.837Y-57.15
X228.6Y-76.2
X233.362Y-38.1
X238.125Y-95.25
X242.887Y-57.15
X247.65Y-76.2
X252.412Y-38.1
X257.175Y-95.25
X261.938Y-57.15
X266.7Y-76.2
X271.462Y-38.1
X273.844Y-114.3
X276.225Y-95.25
X280.988Y-57.15
X285.75Y-76.2
X290.512Y-38.1
X295.275Y-95.25
X295.275Y-114.3
X300.037Y-57.15
X304.8Y-76.2
X309.562Y-38.1
X314.325Y-95.25
X314.325Y-114.3
X319.087Y-57.15
X328.613Y-38.1
X333.375Y-114.3
X335.756Y-76.2
X340.519Y-95.25
X342.9Y-57.15
X347.662Y-38.1
T0
M30
